<?xml version="1.0" encoding="utf-8" standalone="no"?>
<!DOCTYPE svg PUBLIC "-//W3C//DTD SVG 1.1//EN"
  "http://www.w3.org/Graphics/SVG/1.1/DTD/svg11.dtd">
<!-- Created with matplotlib (https://matplotlib.org/) -->
<svg height="360pt" version="1.1" viewBox="0 0 2952 360" width="2952pt" xmlns="http://www.w3.org/2000/svg" xmlns:xlink="http://www.w3.org/1999/xlink">
 <metadata>
  <rdf:RDF xmlns:cc="http://creativecommons.org/ns#" xmlns:dc="http://purl.org/dc/elements/1.1/" xmlns:rdf="http://www.w3.org/1999/02/22-rdf-syntax-ns#">
   <cc:Work>
    <dc:type rdf:resource="http://purl.org/dc/dcmitype/StillImage"/>
    <dc:date>2020-10-22T01:34:12.394819</dc:date>
    <dc:format>image/svg+xml</dc:format>
    <dc:creator>
     <cc:Agent>
      <dc:title>Matplotlib v3.3.1, https://matplotlib.org/</dc:title>
     </cc:Agent>
    </dc:creator>
   </cc:Work>
  </rdf:RDF>
 </metadata>
 <defs>
  <style type="text/css">*{stroke-linecap:butt;stroke-linejoin:round;}</style>
 </defs>
 <g id="figure_1">
  <g id="patch_1">
   <path d="M 0 360 
L 2952 360 
L 2952 0 
L 0 0 
z
" style="fill:#ffffff;"/>
  </g>
  <g id="axes_1">
   <g id="patch_2">
    <path d="M 63.83 293.02 
L 2941.2 293.02 
L 2941.2 25.44 
L 63.83 25.44 
z
" style="fill:#ffffff;"/>
   </g>
   <g id="matplotlib.axis_1">
    <g id="xtick_1">
     <g id="text_1">
      <!-- -128.1 -->
      <g style="fill:#262626;" transform="translate(101.679253 332.255938)rotate(-90)scale(0.1 -0.1)">
       <defs>
        <path d="M 4.890625 31.390625 
L 31.203125 31.390625 
L 31.203125 23.390625 
L 4.890625 23.390625 
z
" id="DejaVuSans-45"/>
        <path d="M 12.40625 8.296875 
L 28.515625 8.296875 
L 28.515625 63.921875 
L 10.984375 60.40625 
L 10.984375 69.390625 
L 28.421875 72.90625 
L 38.28125 72.90625 
L 38.28125 8.296875 
L 54.390625 8.296875 
L 54.390625 0 
L 12.40625 0 
z
" id="DejaVuSans-49"/>
        <path d="M 19.1875 8.296875 
L 53.609375 8.296875 
L 53.609375 0 
L 7.328125 0 
L 7.328125 8.296875 
Q 12.9375 14.109375 22.625 23.890625 
Q 32.328125 33.6875 34.8125 36.53125 
Q 39.546875 41.84375 41.421875 45.53125 
Q 43.3125 49.21875 43.3125 52.78125 
Q 43.3125 58.59375 39.234375 62.25 
Q 35.15625 65.921875 28.609375 65.921875 
Q 23.96875 65.921875 18.8125 64.3125 
Q 13.671875 62.703125 7.8125 59.421875 
L 7.8125 69.390625 
Q 13.765625 71.78125 18.9375 73 
Q 24.125 74.21875 28.421875 74.21875 
Q 39.75 74.21875 46.484375 68.546875 
Q 53.21875 62.890625 53.21875 53.421875 
Q 53.21875 48.921875 51.53125 44.890625 
Q 49.859375 40.875 45.40625 35.40625 
Q 44.1875 33.984375 37.640625 27.21875 
Q 31.109375 20.453125 19.1875 8.296875 
z
" id="DejaVuSans-50"/>
        <path d="M 31.78125 34.625 
Q 24.75 34.625 20.71875 30.859375 
Q 16.703125 27.09375 16.703125 20.515625 
Q 16.703125 13.921875 20.71875 10.15625 
Q 24.75 6.390625 31.78125 6.390625 
Q 38.8125 6.390625 42.859375 10.171875 
Q 46.921875 13.96875 46.921875 20.515625 
Q 46.921875 27.09375 42.890625 30.859375 
Q 38.875 34.625 31.78125 34.625 
z
M 21.921875 38.8125 
Q 15.578125 40.375 12.03125 44.71875 
Q 8.5 49.078125 8.5 55.328125 
Q 8.5 64.0625 14.71875 69.140625 
Q 20.953125 74.21875 31.78125 74.21875 
Q 42.671875 74.21875 48.875 69.140625 
Q 55.078125 64.0625 55.078125 55.328125 
Q 55.078125 49.078125 51.53125 44.71875 
Q 48 40.375 41.703125 38.8125 
Q 48.828125 37.15625 52.796875 32.3125 
Q 56.78125 27.484375 56.78125 20.515625 
Q 56.78125 9.90625 50.3125 4.234375 
Q 43.84375 -1.421875 31.78125 -1.421875 
Q 19.734375 -1.421875 13.25 4.234375 
Q 6.78125 9.90625 6.78125 20.515625 
Q 6.78125 27.484375 10.78125 32.3125 
Q 14.796875 37.15625 21.921875 38.8125 
z
M 18.3125 54.390625 
Q 18.3125 48.734375 21.84375 45.5625 
Q 25.390625 42.390625 31.78125 42.390625 
Q 38.140625 42.390625 41.71875 45.5625 
Q 45.3125 48.734375 45.3125 54.390625 
Q 45.3125 60.0625 41.71875 63.234375 
Q 38.140625 66.40625 31.78125 66.40625 
Q 25.390625 66.40625 21.84375 63.234375 
Q 18.3125 60.0625 18.3125 54.390625 
z
" id="DejaVuSans-56"/>
        <path d="M 10.6875 12.40625 
L 21 12.40625 
L 21 0 
L 10.6875 0 
z
" id="DejaVuSans-46"/>
       </defs>
       <use xlink:href="#DejaVuSans-45"/>
       <use x="36.083984" xlink:href="#DejaVuSans-49"/>
       <use x="99.707031" xlink:href="#DejaVuSans-50"/>
       <use x="163.330078" xlink:href="#DejaVuSans-56"/>
       <use x="226.953125" xlink:href="#DejaVuSans-46"/>
       <use x="258.740234" xlink:href="#DejaVuSans-49"/>
      </g>
     </g>
    </g>
    <g id="xtick_2">
     <g id="text_2">
      <!-- -99.08 -->
      <g style="fill:#262626;" transform="translate(171.859009 332.255938)rotate(-90)scale(0.1 -0.1)">
       <defs>
        <path d="M 10.984375 1.515625 
L 10.984375 10.5 
Q 14.703125 8.734375 18.5 7.8125 
Q 22.3125 6.890625 25.984375 6.890625 
Q 35.75 6.890625 40.890625 13.453125 
Q 46.046875 20.015625 46.78125 33.40625 
Q 43.953125 29.203125 39.59375 26.953125 
Q 35.25 24.703125 29.984375 24.703125 
Q 19.046875 24.703125 12.671875 31.3125 
Q 6.296875 37.9375 6.296875 49.421875 
Q 6.296875 60.640625 12.9375 67.421875 
Q 19.578125 74.21875 30.609375 74.21875 
Q 43.265625 74.21875 49.921875 64.515625 
Q 56.59375 54.828125 56.59375 36.375 
Q 56.59375 19.140625 48.40625 8.859375 
Q 40.234375 -1.421875 26.421875 -1.421875 
Q 22.703125 -1.421875 18.890625 -0.6875 
Q 15.09375 0.046875 10.984375 1.515625 
z
M 30.609375 32.421875 
Q 37.25 32.421875 41.125 36.953125 
Q 45.015625 41.5 45.015625 49.421875 
Q 45.015625 57.28125 41.125 61.84375 
Q 37.25 66.40625 30.609375 66.40625 
Q 23.96875 66.40625 20.09375 61.84375 
Q 16.21875 57.28125 16.21875 49.421875 
Q 16.21875 41.5 20.09375 36.953125 
Q 23.96875 32.421875 30.609375 32.421875 
z
" id="DejaVuSans-57"/>
        <path d="M 31.78125 66.40625 
Q 24.171875 66.40625 20.328125 58.90625 
Q 16.5 51.421875 16.5 36.375 
Q 16.5 21.390625 20.328125 13.890625 
Q 24.171875 6.390625 31.78125 6.390625 
Q 39.453125 6.390625 43.28125 13.890625 
Q 47.125 21.390625 47.125 36.375 
Q 47.125 51.421875 43.28125 58.90625 
Q 39.453125 66.40625 31.78125 66.40625 
z
M 31.78125 74.21875 
Q 44.046875 74.21875 50.515625 64.515625 
Q 56.984375 54.828125 56.984375 36.375 
Q 56.984375 17.96875 50.515625 8.265625 
Q 44.046875 -1.421875 31.78125 -1.421875 
Q 19.53125 -1.421875 13.0625 8.265625 
Q 6.59375 17.96875 6.59375 36.375 
Q 6.59375 54.828125 13.0625 64.515625 
Q 19.53125 74.21875 31.78125 74.21875 
z
" id="DejaVuSans-48"/>
       </defs>
       <use xlink:href="#DejaVuSans-45"/>
       <use x="36.083984" xlink:href="#DejaVuSans-57"/>
       <use x="99.707031" xlink:href="#DejaVuSans-57"/>
       <use x="163.330078" xlink:href="#DejaVuSans-46"/>
       <use x="195.117188" xlink:href="#DejaVuSans-48"/>
       <use x="258.740234" xlink:href="#DejaVuSans-56"/>
      </g>
     </g>
    </g>
    <g id="xtick_3">
     <g id="text_3">
      <!-- -71.07 -->
      <g style="fill:#262626;" transform="translate(242.038765 332.255938)rotate(-90)scale(0.1 -0.1)">
       <defs>
        <path d="M 8.203125 72.90625 
L 55.078125 72.90625 
L 55.078125 68.703125 
L 28.609375 0 
L 18.3125 0 
L 43.21875 64.59375 
L 8.203125 64.59375 
z
" id="DejaVuSans-55"/>
       </defs>
       <use xlink:href="#DejaVuSans-45"/>
       <use x="36.083984" xlink:href="#DejaVuSans-55"/>
       <use x="99.707031" xlink:href="#DejaVuSans-49"/>
       <use x="163.330078" xlink:href="#DejaVuSans-46"/>
       <use x="195.117188" xlink:href="#DejaVuSans-48"/>
       <use x="258.740234" xlink:href="#DejaVuSans-55"/>
      </g>
     </g>
    </g>
    <g id="xtick_4">
     <g id="text_4">
      <!-- -43.01 -->
      <g style="fill:#262626;" transform="translate(312.218521 332.255938)rotate(-90)scale(0.1 -0.1)">
       <defs>
        <path d="M 37.796875 64.3125 
L 12.890625 25.390625 
L 37.796875 25.390625 
z
M 35.203125 72.90625 
L 47.609375 72.90625 
L 47.609375 25.390625 
L 58.015625 25.390625 
L 58.015625 17.1875 
L 47.609375 17.1875 
L 47.609375 0 
L 37.796875 0 
L 37.796875 17.1875 
L 4.890625 17.1875 
L 4.890625 26.703125 
z
" id="DejaVuSans-52"/>
        <path d="M 40.578125 39.3125 
Q 47.65625 37.796875 51.625 33 
Q 55.609375 28.21875 55.609375 21.1875 
Q 55.609375 10.40625 48.1875 4.484375 
Q 40.765625 -1.421875 27.09375 -1.421875 
Q 22.515625 -1.421875 17.65625 -0.515625 
Q 12.796875 0.390625 7.625 2.203125 
L 7.625 11.71875 
Q 11.71875 9.328125 16.59375 8.109375 
Q 21.484375 6.890625 26.8125 6.890625 
Q 36.078125 6.890625 40.9375 10.546875 
Q 45.796875 14.203125 45.796875 21.1875 
Q 45.796875 27.640625 41.28125 31.265625 
Q 36.765625 34.90625 28.71875 34.90625 
L 20.21875 34.90625 
L 20.21875 43.015625 
L 29.109375 43.015625 
Q 36.375 43.015625 40.234375 45.921875 
Q 44.09375 48.828125 44.09375 54.296875 
Q 44.09375 59.90625 40.109375 62.90625 
Q 36.140625 65.921875 28.71875 65.921875 
Q 24.65625 65.921875 20.015625 65.03125 
Q 15.375 64.15625 9.8125 62.3125 
L 9.8125 71.09375 
Q 15.4375 72.65625 20.34375 73.4375 
Q 25.25 74.21875 29.59375 74.21875 
Q 40.828125 74.21875 47.359375 69.109375 
Q 53.90625 64.015625 53.90625 55.328125 
Q 53.90625 49.265625 50.4375 45.09375 
Q 46.96875 40.921875 40.578125 39.3125 
z
" id="DejaVuSans-51"/>
       </defs>
       <use xlink:href="#DejaVuSans-45"/>
       <use x="36.083984" xlink:href="#DejaVuSans-52"/>
       <use x="99.707031" xlink:href="#DejaVuSans-51"/>
       <use x="163.330078" xlink:href="#DejaVuSans-46"/>
       <use x="195.117188" xlink:href="#DejaVuSans-48"/>
       <use x="258.740234" xlink:href="#DejaVuSans-49"/>
      </g>
     </g>
    </g>
    <g id="xtick_5">
     <g id="text_5">
      <!-- -27.01 -->
      <g style="fill:#262626;" transform="translate(382.398277 332.255938)rotate(-90)scale(0.1 -0.1)">
       <use xlink:href="#DejaVuSans-45"/>
       <use x="36.083984" xlink:href="#DejaVuSans-50"/>
       <use x="99.707031" xlink:href="#DejaVuSans-55"/>
       <use x="163.330078" xlink:href="#DejaVuSans-46"/>
       <use x="195.117188" xlink:href="#DejaVuSans-48"/>
       <use x="258.740234" xlink:href="#DejaVuSans-49"/>
      </g>
     </g>
    </g>
    <g id="xtick_6">
     <g id="text_6">
      <!-- -18.01 -->
      <g style="fill:#262626;" transform="translate(452.578034 332.255938)rotate(-90)scale(0.1 -0.1)">
       <use xlink:href="#DejaVuSans-45"/>
       <use x="36.083984" xlink:href="#DejaVuSans-49"/>
       <use x="99.707031" xlink:href="#DejaVuSans-56"/>
       <use x="163.330078" xlink:href="#DejaVuSans-46"/>
       <use x="195.117188" xlink:href="#DejaVuSans-48"/>
       <use x="258.740234" xlink:href="#DejaVuSans-49"/>
      </g>
     </g>
    </g>
    <g id="xtick_7">
     <g id="text_7">
      <!-- -17.03 -->
      <g style="fill:#262626;" transform="translate(522.75779 332.255938)rotate(-90)scale(0.1 -0.1)">
       <use xlink:href="#DejaVuSans-45"/>
       <use x="36.083984" xlink:href="#DejaVuSans-49"/>
       <use x="99.707031" xlink:href="#DejaVuSans-55"/>
       <use x="163.330078" xlink:href="#DejaVuSans-46"/>
       <use x="195.117188" xlink:href="#DejaVuSans-48"/>
       <use x="258.740234" xlink:href="#DejaVuSans-51"/>
      </g>
     </g>
    </g>
    <g id="xtick_8">
     <g id="text_8">
      <!-- -1.03 -->
      <g style="fill:#262626;" transform="translate(592.937546 325.893438)rotate(-90)scale(0.1 -0.1)">
       <use xlink:href="#DejaVuSans-45"/>
       <use x="36.083984" xlink:href="#DejaVuSans-49"/>
       <use x="99.707031" xlink:href="#DejaVuSans-46"/>
       <use x="131.494141" xlink:href="#DejaVuSans-48"/>
       <use x="195.117188" xlink:href="#DejaVuSans-51"/>
      </g>
     </g>
    </g>
    <g id="xtick_9">
     <g id="text_9">
      <!-- 0.0 -->
      <g style="fill:#262626;" transform="translate(663.117302 315.923125)rotate(-90)scale(0.1 -0.1)">
       <use xlink:href="#DejaVuSans-48"/>
       <use x="63.623047" xlink:href="#DejaVuSans-46"/>
       <use x="95.410156" xlink:href="#DejaVuSans-48"/>
      </g>
     </g>
    </g>
    <g id="xtick_10">
     <g id="text_10">
      <!-- 0.99 -->
      <g style="fill:#262626;" transform="translate(733.297058 322.285625)rotate(-90)scale(0.1 -0.1)">
       <use xlink:href="#DejaVuSans-48"/>
       <use x="63.623047" xlink:href="#DejaVuSans-46"/>
       <use x="95.410156" xlink:href="#DejaVuSans-57"/>
       <use x="159.033203" xlink:href="#DejaVuSans-57"/>
      </g>
     </g>
    </g>
    <g id="xtick_11">
     <g id="text_11">
      <!-- 1.0 -->
      <g style="fill:#262626;" transform="translate(803.476814 315.923125)rotate(-90)scale(0.1 -0.1)">
       <use xlink:href="#DejaVuSans-49"/>
       <use x="63.623047" xlink:href="#DejaVuSans-46"/>
       <use x="95.410156" xlink:href="#DejaVuSans-48"/>
      </g>
     </g>
    </g>
    <g id="xtick_12">
     <g id="text_12">
      <!-- 1.99 -->
      <g style="fill:#262626;" transform="translate(873.65657 322.285625)rotate(-90)scale(0.1 -0.1)">
       <use xlink:href="#DejaVuSans-49"/>
       <use x="63.623047" xlink:href="#DejaVuSans-46"/>
       <use x="95.410156" xlink:href="#DejaVuSans-57"/>
       <use x="159.033203" xlink:href="#DejaVuSans-57"/>
      </g>
     </g>
    </g>
    <g id="xtick_13">
     <g id="text_13">
      <!-- 2.01 -->
      <g style="fill:#262626;" transform="translate(943.836326 322.285625)rotate(-90)scale(0.1 -0.1)">
       <use xlink:href="#DejaVuSans-50"/>
       <use x="63.623047" xlink:href="#DejaVuSans-46"/>
       <use x="95.410156" xlink:href="#DejaVuSans-48"/>
       <use x="159.033203" xlink:href="#DejaVuSans-49"/>
      </g>
     </g>
    </g>
    <g id="xtick_14">
     <g id="text_14">
      <!-- 2.99 -->
      <g style="fill:#262626;" transform="translate(1014.016082 322.285625)rotate(-90)scale(0.1 -0.1)">
       <use xlink:href="#DejaVuSans-50"/>
       <use x="63.623047" xlink:href="#DejaVuSans-46"/>
       <use x="95.410156" xlink:href="#DejaVuSans-57"/>
       <use x="159.033203" xlink:href="#DejaVuSans-57"/>
      </g>
     </g>
    </g>
    <g id="xtick_15">
     <g id="text_15">
      <!-- 14.02 -->
      <g style="fill:#262626;" transform="translate(1084.195838 328.648125)rotate(-90)scale(0.1 -0.1)">
       <use xlink:href="#DejaVuSans-49"/>
       <use x="63.623047" xlink:href="#DejaVuSans-52"/>
       <use x="127.246094" xlink:href="#DejaVuSans-46"/>
       <use x="159.033203" xlink:href="#DejaVuSans-48"/>
       <use x="222.65625" xlink:href="#DejaVuSans-50"/>
      </g>
     </g>
    </g>
    <g id="xtick_16">
     <g id="text_16">
      <!-- 15.02 -->
      <g style="fill:#262626;" transform="translate(1154.375595 328.648125)rotate(-90)scale(0.1 -0.1)">
       <defs>
        <path d="M 10.796875 72.90625 
L 49.515625 72.90625 
L 49.515625 64.59375 
L 19.828125 64.59375 
L 19.828125 46.734375 
Q 21.96875 47.46875 24.109375 47.828125 
Q 26.265625 48.1875 28.421875 48.1875 
Q 40.625 48.1875 47.75 41.5 
Q 54.890625 34.8125 54.890625 23.390625 
Q 54.890625 11.625 47.5625 5.09375 
Q 40.234375 -1.421875 26.90625 -1.421875 
Q 22.3125 -1.421875 17.546875 -0.640625 
Q 12.796875 0.140625 7.71875 1.703125 
L 7.71875 11.625 
Q 12.109375 9.234375 16.796875 8.0625 
Q 21.484375 6.890625 26.703125 6.890625 
Q 35.15625 6.890625 40.078125 11.328125 
Q 45.015625 15.765625 45.015625 23.390625 
Q 45.015625 31 40.078125 35.4375 
Q 35.15625 39.890625 26.703125 39.890625 
Q 22.75 39.890625 18.8125 39.015625 
Q 14.890625 38.140625 10.796875 36.28125 
z
" id="DejaVuSans-53"/>
       </defs>
       <use xlink:href="#DejaVuSans-49"/>
       <use x="63.623047" xlink:href="#DejaVuSans-53"/>
       <use x="127.246094" xlink:href="#DejaVuSans-46"/>
       <use x="159.033203" xlink:href="#DejaVuSans-48"/>
       <use x="222.65625" xlink:href="#DejaVuSans-50"/>
      </g>
     </g>
    </g>
    <g id="xtick_17">
     <g id="text_17">
      <!-- 15.99 -->
      <g style="fill:#262626;" transform="translate(1224.555351 328.648125)rotate(-90)scale(0.1 -0.1)">
       <use xlink:href="#DejaVuSans-49"/>
       <use x="63.623047" xlink:href="#DejaVuSans-53"/>
       <use x="127.246094" xlink:href="#DejaVuSans-46"/>
       <use x="159.033203" xlink:href="#DejaVuSans-57"/>
       <use x="222.65625" xlink:href="#DejaVuSans-57"/>
      </g>
     </g>
    </g>
    <g id="xtick_18">
     <g id="text_18">
      <!-- 16.02 -->
      <g style="fill:#262626;" transform="translate(1294.735107 328.648125)rotate(-90)scale(0.1 -0.1)">
       <defs>
        <path d="M 33.015625 40.375 
Q 26.375 40.375 22.484375 35.828125 
Q 18.609375 31.296875 18.609375 23.390625 
Q 18.609375 15.53125 22.484375 10.953125 
Q 26.375 6.390625 33.015625 6.390625 
Q 39.65625 6.390625 43.53125 10.953125 
Q 47.40625 15.53125 47.40625 23.390625 
Q 47.40625 31.296875 43.53125 35.828125 
Q 39.65625 40.375 33.015625 40.375 
z
M 52.59375 71.296875 
L 52.59375 62.3125 
Q 48.875 64.0625 45.09375 64.984375 
Q 41.3125 65.921875 37.59375 65.921875 
Q 27.828125 65.921875 22.671875 59.328125 
Q 17.53125 52.734375 16.796875 39.40625 
Q 19.671875 43.65625 24.015625 45.921875 
Q 28.375 48.1875 33.59375 48.1875 
Q 44.578125 48.1875 50.953125 41.515625 
Q 57.328125 34.859375 57.328125 23.390625 
Q 57.328125 12.15625 50.6875 5.359375 
Q 44.046875 -1.421875 33.015625 -1.421875 
Q 20.359375 -1.421875 13.671875 8.265625 
Q 6.984375 17.96875 6.984375 36.375 
Q 6.984375 53.65625 15.1875 63.9375 
Q 23.390625 74.21875 37.203125 74.21875 
Q 40.921875 74.21875 44.703125 73.484375 
Q 48.484375 72.75 52.59375 71.296875 
z
" id="DejaVuSans-54"/>
       </defs>
       <use xlink:href="#DejaVuSans-49"/>
       <use x="63.623047" xlink:href="#DejaVuSans-54"/>
       <use x="127.246094" xlink:href="#DejaVuSans-46"/>
       <use x="159.033203" xlink:href="#DejaVuSans-48"/>
       <use x="222.65625" xlink:href="#DejaVuSans-50"/>
      </g>
     </g>
    </g>
    <g id="xtick_19">
     <g id="text_19">
      <!-- 17.0 -->
      <g style="fill:#262626;" transform="translate(1364.914863 322.285625)rotate(-90)scale(0.1 -0.1)">
       <use xlink:href="#DejaVuSans-49"/>
       <use x="63.623047" xlink:href="#DejaVuSans-55"/>
       <use x="127.246094" xlink:href="#DejaVuSans-46"/>
       <use x="159.033203" xlink:href="#DejaVuSans-48"/>
      </g>
     </g>
    </g>
    <g id="xtick_20">
     <g id="text_20">
      <!-- 21.98 -->
      <g style="fill:#262626;" transform="translate(1435.094619 328.648125)rotate(-90)scale(0.1 -0.1)">
       <use xlink:href="#DejaVuSans-50"/>
       <use x="63.623047" xlink:href="#DejaVuSans-49"/>
       <use x="127.246094" xlink:href="#DejaVuSans-46"/>
       <use x="159.033203" xlink:href="#DejaVuSans-57"/>
       <use x="222.65625" xlink:href="#DejaVuSans-56"/>
      </g>
     </g>
    </g>
    <g id="xtick_21">
     <g id="text_21">
      <!-- 22.98 -->
      <g style="fill:#262626;" transform="translate(1505.274375 328.648125)rotate(-90)scale(0.1 -0.1)">
       <use xlink:href="#DejaVuSans-50"/>
       <use x="63.623047" xlink:href="#DejaVuSans-50"/>
       <use x="127.246094" xlink:href="#DejaVuSans-46"/>
       <use x="159.033203" xlink:href="#DejaVuSans-57"/>
       <use x="222.65625" xlink:href="#DejaVuSans-56"/>
      </g>
     </g>
    </g>
    <g id="xtick_22">
     <g id="text_22">
      <!-- 25.98 -->
      <g style="fill:#262626;" transform="translate(1575.454131 328.648125)rotate(-90)scale(0.1 -0.1)">
       <use xlink:href="#DejaVuSans-50"/>
       <use x="63.623047" xlink:href="#DejaVuSans-53"/>
       <use x="127.246094" xlink:href="#DejaVuSans-46"/>
       <use x="159.033203" xlink:href="#DejaVuSans-57"/>
       <use x="222.65625" xlink:href="#DejaVuSans-56"/>
      </g>
     </g>
    </g>
    <g id="xtick_23">
     <g id="text_23">
      <!-- 26.02 -->
      <g style="fill:#262626;" transform="translate(1645.633887 328.648125)rotate(-90)scale(0.1 -0.1)">
       <use xlink:href="#DejaVuSans-50"/>
       <use x="63.623047" xlink:href="#DejaVuSans-54"/>
       <use x="127.246094" xlink:href="#DejaVuSans-46"/>
       <use x="159.033203" xlink:href="#DejaVuSans-48"/>
       <use x="222.65625" xlink:href="#DejaVuSans-50"/>
      </g>
     </g>
    </g>
    <g id="xtick_24">
     <g id="text_24">
      <!-- 27.99 -->
      <g style="fill:#262626;" transform="translate(1715.813643 328.648125)rotate(-90)scale(0.1 -0.1)">
       <use xlink:href="#DejaVuSans-50"/>
       <use x="63.623047" xlink:href="#DejaVuSans-55"/>
       <use x="127.246094" xlink:href="#DejaVuSans-46"/>
       <use x="159.033203" xlink:href="#DejaVuSans-57"/>
       <use x="222.65625" xlink:href="#DejaVuSans-57"/>
      </g>
     </g>
    </g>
    <g id="xtick_25">
     <g id="text_25">
      <!-- 30.01 -->
      <g style="fill:#262626;" transform="translate(1785.993399 328.648125)rotate(-90)scale(0.1 -0.1)">
       <use xlink:href="#DejaVuSans-51"/>
       <use x="63.623047" xlink:href="#DejaVuSans-48"/>
       <use x="127.246094" xlink:href="#DejaVuSans-46"/>
       <use x="159.033203" xlink:href="#DejaVuSans-48"/>
       <use x="222.65625" xlink:href="#DejaVuSans-49"/>
      </g>
     </g>
    </g>
    <g id="xtick_26">
     <g id="text_26">
      <!-- 31.99 -->
      <g style="fill:#262626;" transform="translate(1856.173155 328.648125)rotate(-90)scale(0.1 -0.1)">
       <use xlink:href="#DejaVuSans-51"/>
       <use x="63.623047" xlink:href="#DejaVuSans-49"/>
       <use x="127.246094" xlink:href="#DejaVuSans-46"/>
       <use x="159.033203" xlink:href="#DejaVuSans-57"/>
       <use x="222.65625" xlink:href="#DejaVuSans-57"/>
      </g>
     </g>
    </g>
    <g id="xtick_27">
     <g id="text_27">
      <!-- 37.95 -->
      <g style="fill:#262626;" transform="translate(1926.352912 328.648125)rotate(-90)scale(0.1 -0.1)">
       <use xlink:href="#DejaVuSans-51"/>
       <use x="63.623047" xlink:href="#DejaVuSans-55"/>
       <use x="127.246094" xlink:href="#DejaVuSans-46"/>
       <use x="159.033203" xlink:href="#DejaVuSans-57"/>
       <use x="222.65625" xlink:href="#DejaVuSans-53"/>
      </g>
     </g>
    </g>
    <g id="xtick_28">
     <g id="text_28">
      <!-- 39.01 -->
      <g style="fill:#262626;" transform="translate(1996.532668 328.648125)rotate(-90)scale(0.1 -0.1)">
       <use xlink:href="#DejaVuSans-51"/>
       <use x="63.623047" xlink:href="#DejaVuSans-57"/>
       <use x="127.246094" xlink:href="#DejaVuSans-46"/>
       <use x="159.033203" xlink:href="#DejaVuSans-48"/>
       <use x="222.65625" xlink:href="#DejaVuSans-49"/>
      </g>
     </g>
    </g>
    <g id="xtick_29">
     <g id="text_29">
      <!-- 42.01 -->
      <g style="fill:#262626;" transform="translate(2066.712424 328.648125)rotate(-90)scale(0.1 -0.1)">
       <use xlink:href="#DejaVuSans-52"/>
       <use x="63.623047" xlink:href="#DejaVuSans-50"/>
       <use x="127.246094" xlink:href="#DejaVuSans-46"/>
       <use x="159.033203" xlink:href="#DejaVuSans-48"/>
       <use x="222.65625" xlink:href="#DejaVuSans-49"/>
      </g>
     </g>
    </g>
    <g id="xtick_30">
     <g id="text_30">
      <!-- 43.01 -->
      <g style="fill:#262626;" transform="translate(2136.89218 328.648125)rotate(-90)scale(0.1 -0.1)">
       <use xlink:href="#DejaVuSans-52"/>
       <use x="63.623047" xlink:href="#DejaVuSans-51"/>
       <use x="127.246094" xlink:href="#DejaVuSans-46"/>
       <use x="159.033203" xlink:href="#DejaVuSans-48"/>
       <use x="222.65625" xlink:href="#DejaVuSans-49"/>
      </g>
     </g>
    </g>
    <g id="xtick_31">
     <g id="text_31">
      <!-- 50.02 -->
      <g style="fill:#262626;" transform="translate(2207.071936 328.648125)rotate(-90)scale(0.1 -0.1)">
       <use xlink:href="#DejaVuSans-53"/>
       <use x="63.623047" xlink:href="#DejaVuSans-48"/>
       <use x="127.246094" xlink:href="#DejaVuSans-46"/>
       <use x="159.033203" xlink:href="#DejaVuSans-48"/>
       <use x="222.65625" xlink:href="#DejaVuSans-50"/>
      </g>
     </g>
    </g>
    <g id="xtick_32">
     <g id="text_32">
      <!-- 57.02 -->
      <g style="fill:#262626;" transform="translate(2277.251692 328.648125)rotate(-90)scale(0.1 -0.1)">
       <use xlink:href="#DejaVuSans-53"/>
       <use x="63.623047" xlink:href="#DejaVuSans-55"/>
       <use x="127.246094" xlink:href="#DejaVuSans-46"/>
       <use x="159.033203" xlink:href="#DejaVuSans-48"/>
       <use x="222.65625" xlink:href="#DejaVuSans-50"/>
      </g>
     </g>
    </g>
    <g id="xtick_33">
     <g id="text_33">
      <!-- 58.01 -->
      <g style="fill:#262626;" transform="translate(2347.431448 328.648125)rotate(-90)scale(0.1 -0.1)">
       <use xlink:href="#DejaVuSans-53"/>
       <use x="63.623047" xlink:href="#DejaVuSans-56"/>
       <use x="127.246094" xlink:href="#DejaVuSans-46"/>
       <use x="159.033203" xlink:href="#DejaVuSans-48"/>
       <use x="222.65625" xlink:href="#DejaVuSans-49"/>
      </g>
     </g>
    </g>
    <g id="xtick_34">
     <g id="text_34">
      <!-- 58.02 -->
      <g style="fill:#262626;" transform="translate(2417.611204 328.648125)rotate(-90)scale(0.1 -0.1)">
       <use xlink:href="#DejaVuSans-53"/>
       <use x="63.623047" xlink:href="#DejaVuSans-56"/>
       <use x="127.246094" xlink:href="#DejaVuSans-46"/>
       <use x="159.033203" xlink:href="#DejaVuSans-48"/>
       <use x="222.65625" xlink:href="#DejaVuSans-50"/>
      </g>
     </g>
    </g>
    <g id="xtick_35">
     <g id="text_35">
      <!-- 59.03 -->
      <g style="fill:#262626;" transform="translate(2487.79096 328.648125)rotate(-90)scale(0.1 -0.1)">
       <use xlink:href="#DejaVuSans-53"/>
       <use x="63.623047" xlink:href="#DejaVuSans-57"/>
       <use x="127.246094" xlink:href="#DejaVuSans-46"/>
       <use x="159.033203" xlink:href="#DejaVuSans-48"/>
       <use x="222.65625" xlink:href="#DejaVuSans-51"/>
      </g>
     </g>
    </g>
    <g id="xtick_36">
     <g id="text_36">
      <!-- 71.04 -->
      <g style="fill:#262626;" transform="translate(2557.970716 328.648125)rotate(-90)scale(0.1 -0.1)">
       <use xlink:href="#DejaVuSans-55"/>
       <use x="63.623047" xlink:href="#DejaVuSans-49"/>
       <use x="127.246094" xlink:href="#DejaVuSans-46"/>
       <use x="159.033203" xlink:href="#DejaVuSans-48"/>
       <use x="222.65625" xlink:href="#DejaVuSans-52"/>
      </g>
     </g>
    </g>
    <g id="xtick_37">
     <g id="text_37">
      <!-- 84.02 -->
      <g style="fill:#262626;" transform="translate(2628.150473 328.648125)rotate(-90)scale(0.1 -0.1)">
       <use xlink:href="#DejaVuSans-56"/>
       <use x="63.623047" xlink:href="#DejaVuSans-52"/>
       <use x="127.246094" xlink:href="#DejaVuSans-46"/>
       <use x="159.033203" xlink:href="#DejaVuSans-48"/>
       <use x="222.65625" xlink:href="#DejaVuSans-50"/>
      </g>
     </g>
    </g>
    <g id="xtick_38">
     <g id="text_38">
      <!-- 97.05 -->
      <g style="fill:#262626;" transform="translate(2698.330229 328.648125)rotate(-90)scale(0.1 -0.1)">
       <use xlink:href="#DejaVuSans-57"/>
       <use x="63.623047" xlink:href="#DejaVuSans-55"/>
       <use x="127.246094" xlink:href="#DejaVuSans-46"/>
       <use x="159.033203" xlink:href="#DejaVuSans-48"/>
       <use x="222.65625" xlink:href="#DejaVuSans-53"/>
      </g>
     </g>
    </g>
    <g id="xtick_39">
     <g id="text_39">
      <!-- 114.04 -->
      <g style="fill:#262626;" transform="translate(2768.509985 335.010625)rotate(-90)scale(0.1 -0.1)">
       <use xlink:href="#DejaVuSans-49"/>
       <use x="63.623047" xlink:href="#DejaVuSans-49"/>
       <use x="127.246094" xlink:href="#DejaVuSans-52"/>
       <use x="190.869141" xlink:href="#DejaVuSans-46"/>
       <use x="222.65625" xlink:href="#DejaVuSans-48"/>
       <use x="286.279297" xlink:href="#DejaVuSans-52"/>
      </g>
     </g>
    </g>
    <g id="xtick_40">
     <g id="text_40">
      <!-- 128.1 -->
      <g style="fill:#262626;" transform="translate(2838.689741 328.648125)rotate(-90)scale(0.1 -0.1)">
       <use xlink:href="#DejaVuSans-49"/>
       <use x="63.623047" xlink:href="#DejaVuSans-50"/>
       <use x="127.246094" xlink:href="#DejaVuSans-56"/>
       <use x="190.869141" xlink:href="#DejaVuSans-46"/>
       <use x="222.65625" xlink:href="#DejaVuSans-49"/>
      </g>
     </g>
    </g>
    <g id="xtick_41">
     <g id="text_41">
      <!-- 360.15 -->
      <g style="fill:#262626;" transform="translate(2908.869497 335.010625)rotate(-90)scale(0.1 -0.1)">
       <use xlink:href="#DejaVuSans-51"/>
       <use x="63.623047" xlink:href="#DejaVuSans-54"/>
       <use x="127.246094" xlink:href="#DejaVuSans-48"/>
       <use x="190.869141" xlink:href="#DejaVuSans-46"/>
       <use x="222.65625" xlink:href="#DejaVuSans-49"/>
       <use x="286.279297" xlink:href="#DejaVuSans-53"/>
      </g>
     </g>
    </g>
    <g id="text_42">
     <!-- Mass shift -->
     <g style="fill:#262626;" transform="translate(1477.543125 346.609062)scale(0.1 -0.1)">
      <defs>
       <path d="M 9.8125 72.90625 
L 24.515625 72.90625 
L 43.109375 23.296875 
L 61.8125 72.90625 
L 76.515625 72.90625 
L 76.515625 0 
L 66.890625 0 
L 66.890625 64.015625 
L 48.09375 14.015625 
L 38.1875 14.015625 
L 19.390625 64.015625 
L 19.390625 0 
L 9.8125 0 
z
" id="DejaVuSans-77"/>
       <path d="M 34.28125 27.484375 
Q 23.390625 27.484375 19.1875 25 
Q 14.984375 22.515625 14.984375 16.5 
Q 14.984375 11.71875 18.140625 8.90625 
Q 21.296875 6.109375 26.703125 6.109375 
Q 34.1875 6.109375 38.703125 11.40625 
Q 43.21875 16.703125 43.21875 25.484375 
L 43.21875 27.484375 
z
M 52.203125 31.203125 
L 52.203125 0 
L 43.21875 0 
L 43.21875 8.296875 
Q 40.140625 3.328125 35.546875 0.953125 
Q 30.953125 -1.421875 24.3125 -1.421875 
Q 15.921875 -1.421875 10.953125 3.296875 
Q 6 8.015625 6 15.921875 
Q 6 25.140625 12.171875 29.828125 
Q 18.359375 34.515625 30.609375 34.515625 
L 43.21875 34.515625 
L 43.21875 35.40625 
Q 43.21875 41.609375 39.140625 45 
Q 35.0625 48.390625 27.6875 48.390625 
Q 23 48.390625 18.546875 47.265625 
Q 14.109375 46.140625 10.015625 43.890625 
L 10.015625 52.203125 
Q 14.9375 54.109375 19.578125 55.046875 
Q 24.21875 56 28.609375 56 
Q 40.484375 56 46.34375 49.84375 
Q 52.203125 43.703125 52.203125 31.203125 
z
" id="DejaVuSans-97"/>
       <path d="M 44.28125 53.078125 
L 44.28125 44.578125 
Q 40.484375 46.53125 36.375 47.5 
Q 32.28125 48.484375 27.875 48.484375 
Q 21.1875 48.484375 17.84375 46.4375 
Q 14.5 44.390625 14.5 40.28125 
Q 14.5 37.15625 16.890625 35.375 
Q 19.28125 33.59375 26.515625 31.984375 
L 29.59375 31.296875 
Q 39.15625 29.25 43.1875 25.515625 
Q 47.21875 21.78125 47.21875 15.09375 
Q 47.21875 7.46875 41.1875 3.015625 
Q 35.15625 -1.421875 24.609375 -1.421875 
Q 20.21875 -1.421875 15.453125 -0.5625 
Q 10.6875 0.296875 5.421875 2 
L 5.421875 11.28125 
Q 10.40625 8.6875 15.234375 7.390625 
Q 20.0625 6.109375 24.8125 6.109375 
Q 31.15625 6.109375 34.5625 8.28125 
Q 37.984375 10.453125 37.984375 14.40625 
Q 37.984375 18.0625 35.515625 20.015625 
Q 33.0625 21.96875 24.703125 23.78125 
L 21.578125 24.515625 
Q 13.234375 26.265625 9.515625 29.90625 
Q 5.8125 33.546875 5.8125 39.890625 
Q 5.8125 47.609375 11.28125 51.796875 
Q 16.75 56 26.8125 56 
Q 31.78125 56 36.171875 55.265625 
Q 40.578125 54.546875 44.28125 53.078125 
z
" id="DejaVuSans-115"/>
       <path id="DejaVuSans-32"/>
       <path d="M 54.890625 33.015625 
L 54.890625 0 
L 45.90625 0 
L 45.90625 32.71875 
Q 45.90625 40.484375 42.875 44.328125 
Q 39.84375 48.1875 33.796875 48.1875 
Q 26.515625 48.1875 22.3125 43.546875 
Q 18.109375 38.921875 18.109375 30.90625 
L 18.109375 0 
L 9.078125 0 
L 9.078125 75.984375 
L 18.109375 75.984375 
L 18.109375 46.1875 
Q 21.34375 51.125 25.703125 53.5625 
Q 30.078125 56 35.796875 56 
Q 45.21875 56 50.046875 50.171875 
Q 54.890625 44.34375 54.890625 33.015625 
z
" id="DejaVuSans-104"/>
       <path d="M 9.421875 54.6875 
L 18.40625 54.6875 
L 18.40625 0 
L 9.421875 0 
z
M 9.421875 75.984375 
L 18.40625 75.984375 
L 18.40625 64.59375 
L 9.421875 64.59375 
z
" id="DejaVuSans-105"/>
       <path d="M 37.109375 75.984375 
L 37.109375 68.5 
L 28.515625 68.5 
Q 23.6875 68.5 21.796875 66.546875 
Q 19.921875 64.59375 19.921875 59.515625 
L 19.921875 54.6875 
L 34.71875 54.6875 
L 34.71875 47.703125 
L 19.921875 47.703125 
L 19.921875 0 
L 10.890625 0 
L 10.890625 47.703125 
L 2.296875 47.703125 
L 2.296875 54.6875 
L 10.890625 54.6875 
L 10.890625 58.5 
Q 10.890625 67.625 15.140625 71.796875 
Q 19.390625 75.984375 28.609375 75.984375 
z
" id="DejaVuSans-102"/>
       <path d="M 18.3125 70.21875 
L 18.3125 54.6875 
L 36.8125 54.6875 
L 36.8125 47.703125 
L 18.3125 47.703125 
L 18.3125 18.015625 
Q 18.3125 11.328125 20.140625 9.421875 
Q 21.96875 7.515625 27.59375 7.515625 
L 36.8125 7.515625 
L 36.8125 0 
L 27.59375 0 
Q 17.1875 0 13.234375 3.875 
Q 9.28125 7.765625 9.28125 18.015625 
L 9.28125 47.703125 
L 2.6875 47.703125 
L 2.6875 54.6875 
L 9.28125 54.6875 
L 9.28125 70.21875 
z
" id="DejaVuSans-116"/>
      </defs>
      <use xlink:href="#DejaVuSans-77"/>
      <use x="86.279297" xlink:href="#DejaVuSans-97"/>
      <use x="147.558594" xlink:href="#DejaVuSans-115"/>
      <use x="199.658203" xlink:href="#DejaVuSans-115"/>
      <use x="251.757812" xlink:href="#DejaVuSans-32"/>
      <use x="283.544922" xlink:href="#DejaVuSans-115"/>
      <use x="335.644531" xlink:href="#DejaVuSans-104"/>
      <use x="399.023438" xlink:href="#DejaVuSans-105"/>
      <use x="426.806641" xlink:href="#DejaVuSans-102"/>
      <use x="460.261719" xlink:href="#DejaVuSans-116"/>
     </g>
    </g>
   </g>
   <g id="matplotlib.axis_2">
    <g id="ytick_1">
     <g id="text_43">
      <!-- 0 -->
      <g style="fill:#262626;" transform="translate(50.4675 296.819219)scale(0.1 -0.1)">
       <use xlink:href="#DejaVuSans-48"/>
      </g>
     </g>
    </g>
    <g id="ytick_2">
     <g id="text_44">
      <!-- 5000 -->
      <g style="fill:#262626;" transform="translate(31.38 242.828097)scale(0.1 -0.1)">
       <use xlink:href="#DejaVuSans-53"/>
       <use x="63.623047" xlink:href="#DejaVuSans-48"/>
       <use x="127.246094" xlink:href="#DejaVuSans-48"/>
       <use x="190.869141" xlink:href="#DejaVuSans-48"/>
      </g>
     </g>
    </g>
    <g id="ytick_3">
     <g id="text_45">
      <!-- 10000 -->
      <g style="fill:#262626;" transform="translate(25.0175 188.836975)scale(0.1 -0.1)">
       <use xlink:href="#DejaVuSans-49"/>
       <use x="63.623047" xlink:href="#DejaVuSans-48"/>
       <use x="127.246094" xlink:href="#DejaVuSans-48"/>
       <use x="190.869141" xlink:href="#DejaVuSans-48"/>
       <use x="254.492188" xlink:href="#DejaVuSans-48"/>
      </g>
     </g>
    </g>
    <g id="ytick_4">
     <g id="text_46">
      <!-- 15000 -->
      <g style="fill:#262626;" transform="translate(25.0175 134.845853)scale(0.1 -0.1)">
       <use xlink:href="#DejaVuSans-49"/>
       <use x="63.623047" xlink:href="#DejaVuSans-53"/>
       <use x="127.246094" xlink:href="#DejaVuSans-48"/>
       <use x="190.869141" xlink:href="#DejaVuSans-48"/>
       <use x="254.492188" xlink:href="#DejaVuSans-48"/>
      </g>
     </g>
    </g>
    <g id="ytick_5">
     <g id="text_47">
      <!-- 20000 -->
      <g style="fill:#262626;" transform="translate(25.0175 80.854731)scale(0.1 -0.1)">
       <use xlink:href="#DejaVuSans-50"/>
       <use x="63.623047" xlink:href="#DejaVuSans-48"/>
       <use x="127.246094" xlink:href="#DejaVuSans-48"/>
       <use x="190.869141" xlink:href="#DejaVuSans-48"/>
       <use x="254.492188" xlink:href="#DejaVuSans-48"/>
      </g>
     </g>
    </g>
    <g id="text_48">
     <!-- Number of peptides -->
     <g style="fill:#262626;" transform="translate(18.937813 208.943281)rotate(-90)scale(0.1 -0.1)">
      <defs>
       <path d="M 9.8125 72.90625 
L 23.09375 72.90625 
L 55.421875 11.921875 
L 55.421875 72.90625 
L 64.984375 72.90625 
L 64.984375 0 
L 51.703125 0 
L 19.390625 60.984375 
L 19.390625 0 
L 9.8125 0 
z
" id="DejaVuSans-78"/>
       <path d="M 8.5 21.578125 
L 8.5 54.6875 
L 17.484375 54.6875 
L 17.484375 21.921875 
Q 17.484375 14.15625 20.5 10.265625 
Q 23.53125 6.390625 29.59375 6.390625 
Q 36.859375 6.390625 41.078125 11.03125 
Q 45.3125 15.671875 45.3125 23.6875 
L 45.3125 54.6875 
L 54.296875 54.6875 
L 54.296875 0 
L 45.3125 0 
L 45.3125 8.40625 
Q 42.046875 3.421875 37.71875 1 
Q 33.40625 -1.421875 27.6875 -1.421875 
Q 18.265625 -1.421875 13.375 4.4375 
Q 8.5 10.296875 8.5 21.578125 
z
M 31.109375 56 
z
" id="DejaVuSans-117"/>
       <path d="M 52 44.1875 
Q 55.375 50.25 60.0625 53.125 
Q 64.75 56 71.09375 56 
Q 79.640625 56 84.28125 50.015625 
Q 88.921875 44.046875 88.921875 33.015625 
L 88.921875 0 
L 79.890625 0 
L 79.890625 32.71875 
Q 79.890625 40.578125 77.09375 44.375 
Q 74.3125 48.1875 68.609375 48.1875 
Q 61.625 48.1875 57.5625 43.546875 
Q 53.515625 38.921875 53.515625 30.90625 
L 53.515625 0 
L 44.484375 0 
L 44.484375 32.71875 
Q 44.484375 40.625 41.703125 44.40625 
Q 38.921875 48.1875 33.109375 48.1875 
Q 26.21875 48.1875 22.15625 43.53125 
Q 18.109375 38.875 18.109375 30.90625 
L 18.109375 0 
L 9.078125 0 
L 9.078125 54.6875 
L 18.109375 54.6875 
L 18.109375 46.1875 
Q 21.1875 51.21875 25.484375 53.609375 
Q 29.78125 56 35.6875 56 
Q 41.65625 56 45.828125 52.96875 
Q 50 49.953125 52 44.1875 
z
" id="DejaVuSans-109"/>
       <path d="M 48.6875 27.296875 
Q 48.6875 37.203125 44.609375 42.84375 
Q 40.53125 48.484375 33.40625 48.484375 
Q 26.265625 48.484375 22.1875 42.84375 
Q 18.109375 37.203125 18.109375 27.296875 
Q 18.109375 17.390625 22.1875 11.75 
Q 26.265625 6.109375 33.40625 6.109375 
Q 40.53125 6.109375 44.609375 11.75 
Q 48.6875 17.390625 48.6875 27.296875 
z
M 18.109375 46.390625 
Q 20.953125 51.265625 25.265625 53.625 
Q 29.59375 56 35.59375 56 
Q 45.5625 56 51.78125 48.09375 
Q 58.015625 40.1875 58.015625 27.296875 
Q 58.015625 14.40625 51.78125 6.484375 
Q 45.5625 -1.421875 35.59375 -1.421875 
Q 29.59375 -1.421875 25.265625 0.953125 
Q 20.953125 3.328125 18.109375 8.203125 
L 18.109375 0 
L 9.078125 0 
L 9.078125 75.984375 
L 18.109375 75.984375 
z
" id="DejaVuSans-98"/>
       <path d="M 56.203125 29.59375 
L 56.203125 25.203125 
L 14.890625 25.203125 
Q 15.484375 15.921875 20.484375 11.0625 
Q 25.484375 6.203125 34.421875 6.203125 
Q 39.59375 6.203125 44.453125 7.46875 
Q 49.3125 8.734375 54.109375 11.28125 
L 54.109375 2.78125 
Q 49.265625 0.734375 44.1875 -0.34375 
Q 39.109375 -1.421875 33.890625 -1.421875 
Q 20.796875 -1.421875 13.15625 6.1875 
Q 5.515625 13.8125 5.515625 26.8125 
Q 5.515625 40.234375 12.765625 48.109375 
Q 20.015625 56 32.328125 56 
Q 43.359375 56 49.78125 48.890625 
Q 56.203125 41.796875 56.203125 29.59375 
z
M 47.21875 32.234375 
Q 47.125 39.59375 43.09375 43.984375 
Q 39.0625 48.390625 32.421875 48.390625 
Q 24.90625 48.390625 20.390625 44.140625 
Q 15.875 39.890625 15.1875 32.171875 
z
" id="DejaVuSans-101"/>
       <path d="M 41.109375 46.296875 
Q 39.59375 47.171875 37.8125 47.578125 
Q 36.03125 48 33.890625 48 
Q 26.265625 48 22.1875 43.046875 
Q 18.109375 38.09375 18.109375 28.8125 
L 18.109375 0 
L 9.078125 0 
L 9.078125 54.6875 
L 18.109375 54.6875 
L 18.109375 46.1875 
Q 20.953125 51.171875 25.484375 53.578125 
Q 30.03125 56 36.53125 56 
Q 37.453125 56 38.578125 55.875 
Q 39.703125 55.765625 41.0625 55.515625 
z
" id="DejaVuSans-114"/>
       <path d="M 30.609375 48.390625 
Q 23.390625 48.390625 19.1875 42.75 
Q 14.984375 37.109375 14.984375 27.296875 
Q 14.984375 17.484375 19.15625 11.84375 
Q 23.34375 6.203125 30.609375 6.203125 
Q 37.796875 6.203125 41.984375 11.859375 
Q 46.1875 17.53125 46.1875 27.296875 
Q 46.1875 37.015625 41.984375 42.703125 
Q 37.796875 48.390625 30.609375 48.390625 
z
M 30.609375 56 
Q 42.328125 56 49.015625 48.375 
Q 55.71875 40.765625 55.71875 27.296875 
Q 55.71875 13.875 49.015625 6.21875 
Q 42.328125 -1.421875 30.609375 -1.421875 
Q 18.84375 -1.421875 12.171875 6.21875 
Q 5.515625 13.875 5.515625 27.296875 
Q 5.515625 40.765625 12.171875 48.375 
Q 18.84375 56 30.609375 56 
z
" id="DejaVuSans-111"/>
       <path d="M 18.109375 8.203125 
L 18.109375 -20.796875 
L 9.078125 -20.796875 
L 9.078125 54.6875 
L 18.109375 54.6875 
L 18.109375 46.390625 
Q 20.953125 51.265625 25.265625 53.625 
Q 29.59375 56 35.59375 56 
Q 45.5625 56 51.78125 48.09375 
Q 58.015625 40.1875 58.015625 27.296875 
Q 58.015625 14.40625 51.78125 6.484375 
Q 45.5625 -1.421875 35.59375 -1.421875 
Q 29.59375 -1.421875 25.265625 0.953125 
Q 20.953125 3.328125 18.109375 8.203125 
z
M 48.6875 27.296875 
Q 48.6875 37.203125 44.609375 42.84375 
Q 40.53125 48.484375 33.40625 48.484375 
Q 26.265625 48.484375 22.1875 42.84375 
Q 18.109375 37.203125 18.109375 27.296875 
Q 18.109375 17.390625 22.1875 11.75 
Q 26.265625 6.109375 33.40625 6.109375 
Q 40.53125 6.109375 44.609375 11.75 
Q 48.6875 17.390625 48.6875 27.296875 
z
" id="DejaVuSans-112"/>
       <path d="M 45.40625 46.390625 
L 45.40625 75.984375 
L 54.390625 75.984375 
L 54.390625 0 
L 45.40625 0 
L 45.40625 8.203125 
Q 42.578125 3.328125 38.25 0.953125 
Q 33.9375 -1.421875 27.875 -1.421875 
Q 17.96875 -1.421875 11.734375 6.484375 
Q 5.515625 14.40625 5.515625 27.296875 
Q 5.515625 40.1875 11.734375 48.09375 
Q 17.96875 56 27.875 56 
Q 33.9375 56 38.25 53.625 
Q 42.578125 51.265625 45.40625 46.390625 
z
M 14.796875 27.296875 
Q 14.796875 17.390625 18.875 11.75 
Q 22.953125 6.109375 30.078125 6.109375 
Q 37.203125 6.109375 41.296875 11.75 
Q 45.40625 17.390625 45.40625 27.296875 
Q 45.40625 37.203125 41.296875 42.84375 
Q 37.203125 48.484375 30.078125 48.484375 
Q 22.953125 48.484375 18.875 42.84375 
Q 14.796875 37.203125 14.796875 27.296875 
z
" id="DejaVuSans-100"/>
      </defs>
      <use xlink:href="#DejaVuSans-78"/>
      <use x="74.804688" xlink:href="#DejaVuSans-117"/>
      <use x="138.183594" xlink:href="#DejaVuSans-109"/>
      <use x="235.595703" xlink:href="#DejaVuSans-98"/>
      <use x="299.072266" xlink:href="#DejaVuSans-101"/>
      <use x="360.595703" xlink:href="#DejaVuSans-114"/>
      <use x="401.708984" xlink:href="#DejaVuSans-32"/>
      <use x="433.496094" xlink:href="#DejaVuSans-111"/>
      <use x="494.677734" xlink:href="#DejaVuSans-102"/>
      <use x="529.882812" xlink:href="#DejaVuSans-32"/>
      <use x="561.669922" xlink:href="#DejaVuSans-112"/>
      <use x="625.146484" xlink:href="#DejaVuSans-101"/>
      <use x="686.669922" xlink:href="#DejaVuSans-112"/>
      <use x="750.146484" xlink:href="#DejaVuSans-116"/>
      <use x="789.355469" xlink:href="#DejaVuSans-105"/>
      <use x="817.138672" xlink:href="#DejaVuSans-100"/>
      <use x="880.615234" xlink:href="#DejaVuSans-101"/>
      <use x="942.138672" xlink:href="#DejaVuSans-115"/>
     </g>
    </g>
   </g>
   <g id="patch_3">
    <path clip-path="url(#pb688f0a11c)" d="M 81.374939 293.02 
L 116.464817 293.02 
L 116.464817 291.335477 
L 81.374939 291.335477 
z
" style="fill:#88aa00;stroke:#ffffff;stroke-linejoin:miter;"/>
   </g>
   <g id="patch_4">
    <path clip-path="url(#pb688f0a11c)" d="M 151.554695 293.02 
L 186.644573 293.02 
L 186.644573 291.789002 
L 151.554695 291.789002 
z
" style="fill:#88aa00;stroke:#ffffff;stroke-linejoin:miter;"/>
   </g>
   <g id="patch_5">
    <path clip-path="url(#pb688f0a11c)" d="M 221.734451 293.02 
L 256.824329 293.02 
L 256.824329 289.953304 
L 221.734451 289.953304 
z
" style="fill:#88aa00;stroke:#ffffff;stroke-linejoin:miter;"/>
   </g>
   <g id="patch_6">
    <path clip-path="url(#pb688f0a11c)" d="M 291.914207 293.02 
L 327.004085 293.02 
L 327.004085 290.03969 
L 291.914207 290.03969 
z
" style="fill:#88aa00;stroke:#ffffff;stroke-linejoin:miter;"/>
   </g>
   <g id="patch_7">
    <path clip-path="url(#pb688f0a11c)" d="M 362.093963 293.02 
L 397.183841 293.02 
L 397.183841 286.001154 
L 362.093963 286.001154 
z
" style="fill:#88aa00;stroke:#ffffff;stroke-linejoin:miter;"/>
   </g>
   <g id="patch_8">
    <path clip-path="url(#pb688f0a11c)" d="M 432.27372 293.02 
L 467.363598 293.02 
L 467.363598 290.104479 
L 432.27372 290.104479 
z
" style="fill:#88aa00;stroke:#ffffff;stroke-linejoin:miter;"/>
   </g>
   <g id="patch_9">
    <path clip-path="url(#pb688f0a11c)" d="M 502.453476 293.02 
L 537.543354 293.02 
L 537.543354 284.187052 
L 502.453476 284.187052 
z
" style="fill:#88aa00;stroke:#ffffff;stroke-linejoin:miter;"/>
   </g>
   <g id="patch_10">
    <path clip-path="url(#pb688f0a11c)" d="M 572.633232 293.02 
L 607.72311 293.02 
L 607.72311 288.58193 
L 572.633232 288.58193 
z
" style="fill:#88aa00;stroke:#ffffff;stroke-linejoin:miter;"/>
   </g>
   <g id="patch_11">
    <path clip-path="url(#pb688f0a11c)" d="M 642.812988 293.02 
L 677.902866 293.02 
L 677.902866 70.036667 
L 642.812988 70.036667 
z
" style="fill:#88aa00;stroke:#ffffff;stroke-linejoin:miter;"/>
   </g>
   <g id="patch_12">
    <path clip-path="url(#pb688f0a11c)" d="M 712.992744 293.02 
L 748.082622 293.02 
L 748.082622 264.285925 
L 712.992744 264.285925 
z
" style="fill:#88aa00;stroke:#ffffff;stroke-linejoin:miter;"/>
   </g>
   <g id="patch_13">
    <path clip-path="url(#pb688f0a11c)" d="M 783.1725 293.02 
L 818.262378 293.02 
L 818.262378 235.757016 
L 783.1725 235.757016 
z
" style="fill:#88aa00;stroke:#ffffff;stroke-linejoin:miter;"/>
   </g>
   <g id="patch_14">
    <path clip-path="url(#pb688f0a11c)" d="M 853.352256 293.02 
L 888.442134 293.02 
L 888.442134 287.901642 
L 853.352256 287.901642 
z
" style="fill:#88aa00;stroke:#ffffff;stroke-linejoin:miter;"/>
   </g>
   <g id="patch_15">
    <path clip-path="url(#pb688f0a11c)" d="M 923.532012 293.02 
L 958.62189 293.02 
L 958.62189 280.537253 
L 923.532012 280.537253 
z
" style="fill:#88aa00;stroke:#ffffff;stroke-linejoin:miter;"/>
   </g>
   <g id="patch_16">
    <path clip-path="url(#pb688f0a11c)" d="M 993.711768 293.02 
L 1028.801646 293.02 
L 1028.801646 290.903548 
L 993.711768 290.903548 
z
" style="fill:#88aa00;stroke:#ffffff;stroke-linejoin:miter;"/>
   </g>
   <g id="patch_17">
    <path clip-path="url(#pb688f0a11c)" d="M 1063.891524 293.02 
L 1098.981402 293.02 
L 1098.981402 284.770157 
L 1063.891524 284.770157 
z
" style="fill:#88aa00;stroke:#ffffff;stroke-linejoin:miter;"/>
   </g>
   <g id="patch_18">
    <path clip-path="url(#pb688f0a11c)" d="M 1134.07128 293.02 
L 1169.161159 293.02 
L 1169.161159 288.70071 
L 1134.07128 288.70071 
z
" style="fill:#88aa00;stroke:#ffffff;stroke-linejoin:miter;"/>
   </g>
   <g id="patch_19">
    <path clip-path="url(#pb688f0a11c)" d="M 1204.251037 293.02 
L 1239.340915 293.02 
L 1239.340915 288.117606 
L 1204.251037 288.117606 
z
" style="fill:#88aa00;stroke:#ffffff;stroke-linejoin:miter;"/>
   </g>
   <g id="patch_20">
    <path clip-path="url(#pb688f0a11c)" d="M 1274.430793 293.02 
L 1309.520671 293.02 
L 1309.520671 290.89275 
L 1274.430793 290.89275 
z
" style="fill:#88aa00;stroke:#ffffff;stroke-linejoin:miter;"/>
   </g>
   <g id="patch_21">
    <path clip-path="url(#pb688f0a11c)" d="M 1344.610549 293.02 
L 1379.700427 293.02 
L 1379.700427 290.806364 
L 1344.610549 290.806364 
z
" style="fill:#88aa00;stroke:#ffffff;stroke-linejoin:miter;"/>
   </g>
   <g id="patch_22">
    <path clip-path="url(#pb688f0a11c)" d="M 1414.790305 293.02 
L 1449.880183 293.02 
L 1449.880183 288.970666 
L 1414.790305 288.970666 
z
" style="fill:#88aa00;stroke:#ffffff;stroke-linejoin:miter;"/>
   </g>
   <g id="patch_23">
    <path clip-path="url(#pb688f0a11c)" d="M 1484.970061 293.02 
L 1520.059939 293.02 
L 1520.059939 291.886186 
L 1484.970061 291.886186 
z
" style="fill:#88aa00;stroke:#ffffff;stroke-linejoin:miter;"/>
   </g>
   <g id="patch_24">
    <path clip-path="url(#pb688f0a11c)" d="M 1555.149817 293.02 
L 1590.239695 293.02 
L 1590.239695 279.651798 
L 1555.149817 279.651798 
z
" style="fill:#88aa00;stroke:#ffffff;stroke-linejoin:miter;"/>
   </g>
   <g id="patch_25">
    <path clip-path="url(#pb688f0a11c)" d="M 1625.329573 293.02 
L 1660.419451 293.02 
L 1660.419451 291.389468 
L 1625.329573 291.389468 
z
" style="fill:#88aa00;stroke:#ffffff;stroke-linejoin:miter;"/>
   </g>
   <g id="patch_26">
    <path clip-path="url(#pb688f0a11c)" d="M 1695.509329 293.02 
L 1730.599207 293.02 
L 1730.599207 291.37867 
L 1695.509329 291.37867 
z
" style="fill:#88aa00;stroke:#ffffff;stroke-linejoin:miter;"/>
   </g>
   <g id="patch_27">
    <path clip-path="url(#pb688f0a11c)" d="M 1765.689085 293.02 
L 1800.778963 293.02 
L 1800.778963 292.469291 
L 1765.689085 292.469291 
z
" style="fill:#88aa00;stroke:#ffffff;stroke-linejoin:miter;"/>
   </g>
   <g id="patch_28">
    <path clip-path="url(#pb688f0a11c)" d="M 1835.868841 293.02 
L 1870.95872 293.02 
L 1870.95872 292.382905 
L 1835.868841 292.382905 
z
" style="fill:#88aa00;stroke:#ffffff;stroke-linejoin:miter;"/>
   </g>
   <g id="patch_29">
    <path clip-path="url(#pb688f0a11c)" d="M 1906.048598 293.02 
L 1941.138476 293.02 
L 1941.138476 291.313881 
L 1906.048598 291.313881 
z
" style="fill:#88aa00;stroke:#ffffff;stroke-linejoin:miter;"/>
   </g>
   <g id="patch_30">
    <path clip-path="url(#pb688f0a11c)" d="M 1976.228354 293.02 
L 2011.318232 293.02 
L 2011.318232 291.702617 
L 1976.228354 291.702617 
z
" style="fill:#88aa00;stroke:#ffffff;stroke-linejoin:miter;"/>
   </g>
   <g id="patch_31">
    <path clip-path="url(#pb688f0a11c)" d="M 2046.40811 293.02 
L 2081.497988 293.02 
L 2081.497988 289.596963 
L 2046.40811 289.596963 
z
" style="fill:#88aa00;stroke:#ffffff;stroke-linejoin:miter;"/>
   </g>
   <g id="patch_32">
    <path clip-path="url(#pb688f0a11c)" d="M 2116.587866 293.02 
L 2151.677744 293.02 
L 2151.677744 292.188537 
L 2116.587866 292.188537 
z
" style="fill:#88aa00;stroke:#ffffff;stroke-linejoin:miter;"/>
   </g>
   <g id="patch_33">
    <path clip-path="url(#pb688f0a11c)" d="M 2186.767622 293.02 
L 2221.8575 293.02 
L 2221.8575 291.097916 
L 2186.767622 291.097916 
z
" style="fill:#88aa00;stroke:#ffffff;stroke-linejoin:miter;"/>
   </g>
   <g id="patch_34">
    <path clip-path="url(#pb688f0a11c)" d="M 2256.947378 293.02 
L 2292.037256 293.02 
L 2292.037256 231.189367 
L 2256.947378 231.189367 
z
" style="fill:#88aa00;stroke:#ffffff;stroke-linejoin:miter;"/>
   </g>
   <g id="patch_35">
    <path clip-path="url(#pb688f0a11c)" d="M 2327.127134 293.02 
L 2362.217012 293.02 
L 2362.217012 286.994591 
L 2327.127134 286.994591 
z
" style="fill:#88aa00;stroke:#ffffff;stroke-linejoin:miter;"/>
   </g>
   <g id="patch_36">
    <path clip-path="url(#pb688f0a11c)" d="M 2397.30689 293.02 
L 2432.396768 293.02 
L 2432.396768 279.122685 
L 2397.30689 279.122685 
z
" style="fill:#88aa00;stroke:#ffffff;stroke-linejoin:miter;"/>
   </g>
   <g id="patch_37">
    <path clip-path="url(#pb688f0a11c)" d="M 2467.486646 293.02 
L 2502.576524 293.02 
L 2502.576524 289.380998 
L 2467.486646 289.380998 
z
" style="fill:#88aa00;stroke:#ffffff;stroke-linejoin:miter;"/>
   </g>
   <g id="patch_38">
    <path clip-path="url(#pb688f0a11c)" d="M 2537.666402 293.02 
L 2572.75628 293.02 
L 2572.75628 292.112949 
L 2537.666402 292.112949 
z
" style="fill:#88aa00;stroke:#ffffff;stroke-linejoin:miter;"/>
   </g>
   <g id="patch_39">
    <path clip-path="url(#pb688f0a11c)" d="M 2607.846159 293.02 
L 2642.936037 293.02 
L 2642.936037 292.404501 
L 2607.846159 292.404501 
z
" style="fill:#88aa00;stroke:#ffffff;stroke-linejoin:miter;"/>
   </g>
   <g id="patch_40">
    <path clip-path="url(#pb688f0a11c)" d="M 2678.025915 293.02 
L 2713.115793 293.02 
L 2713.115793 292.393703 
L 2678.025915 292.393703 
z
" style="fill:#88aa00;stroke:#ffffff;stroke-linejoin:miter;"/>
   </g>
   <g id="patch_41">
    <path clip-path="url(#pb688f0a11c)" d="M 2748.205671 293.02 
L 2783.295549 293.02 
L 2783.295549 283.441975 
L 2748.205671 283.441975 
z
" style="fill:#88aa00;stroke:#ffffff;stroke-linejoin:miter;"/>
   </g>
   <g id="patch_42">
    <path clip-path="url(#pb688f0a11c)" d="M 2818.385427 293.02 
L 2853.475305 293.02 
L 2853.475305 291.896985 
L 2818.385427 291.896985 
z
" style="fill:#88aa00;stroke:#ffffff;stroke-linejoin:miter;"/>
   </g>
   <g id="patch_43">
    <path clip-path="url(#pb688f0a11c)" d="M 2888.565183 293.02 
L 2923.655061 293.02 
L 2923.655061 292.296519 
L 2888.565183 292.296519 
z
" style="fill:#88aa00;stroke:#ffffff;stroke-linejoin:miter;"/>
   </g>
   <g id="patch_44">
    <path d="M 63.83 293.02 
L 63.83 25.44 
" style="fill:none;stroke:#262626;stroke-linecap:square;stroke-linejoin:miter;stroke-width:0.8;"/>
   </g>
   <g id="patch_45">
    <path d="M 2941.2 293.02 
L 2941.2 25.44 
" style="fill:none;stroke:#262626;stroke-linecap:square;stroke-linejoin:miter;stroke-width:0.8;"/>
   </g>
   <g id="patch_46">
    <path d="M 63.83 293.02 
L 2941.2 293.02 
" style="fill:none;stroke:#262626;stroke-linecap:square;stroke-linejoin:miter;stroke-width:0.8;"/>
   </g>
   <g id="patch_47">
    <path d="M 63.83 25.44 
L 2941.2 25.44 
" style="fill:none;stroke:#262626;stroke-linecap:square;stroke-linejoin:miter;stroke-width:0.8;"/>
   </g>
   <g id="text_49">
    <!--  0.33% -->
    <g style="fill:#696969;" transform="translate(79.269546 290.903548)scale(0.1 -0.1)">
     <defs>
      <path d="M 72.703125 32.078125 
Q 68.453125 32.078125 66.03125 28.46875 
Q 63.625 24.859375 63.625 18.40625 
Q 63.625 12.0625 66.03125 8.421875 
Q 68.453125 4.78125 72.703125 4.78125 
Q 76.859375 4.78125 79.265625 8.421875 
Q 81.6875 12.0625 81.6875 18.40625 
Q 81.6875 24.8125 79.265625 28.4375 
Q 76.859375 32.078125 72.703125 32.078125 
z
M 72.703125 38.28125 
Q 80.421875 38.28125 84.953125 32.90625 
Q 89.5 27.546875 89.5 18.40625 
Q 89.5 9.28125 84.9375 3.921875 
Q 80.375 -1.421875 72.703125 -1.421875 
Q 64.890625 -1.421875 60.34375 3.921875 
Q 55.8125 9.28125 55.8125 18.40625 
Q 55.8125 27.59375 60.375 32.9375 
Q 64.9375 38.28125 72.703125 38.28125 
z
M 22.3125 68.015625 
Q 18.109375 68.015625 15.6875 64.375 
Q 13.28125 60.75 13.28125 54.390625 
Q 13.28125 47.953125 15.671875 44.328125 
Q 18.0625 40.71875 22.3125 40.71875 
Q 26.5625 40.71875 28.96875 44.328125 
Q 31.390625 47.953125 31.390625 54.390625 
Q 31.390625 60.6875 28.953125 64.34375 
Q 26.515625 68.015625 22.3125 68.015625 
z
M 66.40625 74.21875 
L 74.21875 74.21875 
L 28.609375 -1.421875 
L 20.796875 -1.421875 
z
M 22.3125 74.21875 
Q 30.03125 74.21875 34.609375 68.875 
Q 39.203125 63.53125 39.203125 54.390625 
Q 39.203125 45.171875 34.640625 39.84375 
Q 30.078125 34.515625 22.3125 34.515625 
Q 14.546875 34.515625 10.03125 39.859375 
Q 5.515625 45.21875 5.515625 54.390625 
Q 5.515625 63.484375 10.046875 68.84375 
Q 14.59375 74.21875 22.3125 74.21875 
z
" id="DejaVuSans-37"/>
     </defs>
     <use xlink:href="#DejaVuSans-32"/>
     <use x="31.787109" xlink:href="#DejaVuSans-48"/>
     <use x="95.410156" xlink:href="#DejaVuSans-46"/>
     <use x="127.197266" xlink:href="#DejaVuSans-51"/>
     <use x="190.820312" xlink:href="#DejaVuSans-51"/>
     <use x="254.443359" xlink:href="#DejaVuSans-37"/>
    </g>
   </g>
   <g id="text_50">
    <!--  0.24% -->
    <g style="fill:#696969;" transform="translate(149.449302 291.357073)scale(0.1 -0.1)">
     <use xlink:href="#DejaVuSans-32"/>
     <use x="31.787109" xlink:href="#DejaVuSans-48"/>
     <use x="95.410156" xlink:href="#DejaVuSans-46"/>
     <use x="127.197266" xlink:href="#DejaVuSans-50"/>
     <use x="190.820312" xlink:href="#DejaVuSans-52"/>
     <use x="254.443359" xlink:href="#DejaVuSans-37"/>
    </g>
   </g>
   <g id="text_51">
    <!--  0.60% -->
    <g style="fill:#696969;" transform="translate(219.629059 289.521375)scale(0.1 -0.1)">
     <use xlink:href="#DejaVuSans-32"/>
     <use x="31.787109" xlink:href="#DejaVuSans-48"/>
     <use x="95.410156" xlink:href="#DejaVuSans-46"/>
     <use x="127.197266" xlink:href="#DejaVuSans-54"/>
     <use x="190.820312" xlink:href="#DejaVuSans-48"/>
     <use x="254.443359" xlink:href="#DejaVuSans-37"/>
    </g>
   </g>
   <g id="text_52">
    <!--  0.58% -->
    <g style="fill:#696969;" transform="translate(289.808815 289.607761)scale(0.1 -0.1)">
     <use xlink:href="#DejaVuSans-32"/>
     <use x="31.787109" xlink:href="#DejaVuSans-48"/>
     <use x="95.410156" xlink:href="#DejaVuSans-46"/>
     <use x="127.197266" xlink:href="#DejaVuSans-53"/>
     <use x="190.820312" xlink:href="#DejaVuSans-56"/>
     <use x="254.443359" xlink:href="#DejaVuSans-37"/>
    </g>
   </g>
   <g id="text_53">
    <!--  1.37% -->
    <g style="fill:#696969;" transform="translate(359.988571 285.569225)scale(0.1 -0.1)">
     <use xlink:href="#DejaVuSans-32"/>
     <use x="31.787109" xlink:href="#DejaVuSans-49"/>
     <use x="95.410156" xlink:href="#DejaVuSans-46"/>
     <use x="127.197266" xlink:href="#DejaVuSans-51"/>
     <use x="190.820312" xlink:href="#DejaVuSans-55"/>
     <use x="254.443359" xlink:href="#DejaVuSans-37"/>
    </g>
   </g>
   <g id="text_54">
    <!--  0.57% -->
    <g style="fill:#696969;" transform="translate(430.168327 289.67255)scale(0.1 -0.1)">
     <use xlink:href="#DejaVuSans-32"/>
     <use x="31.787109" xlink:href="#DejaVuSans-48"/>
     <use x="95.410156" xlink:href="#DejaVuSans-46"/>
     <use x="127.197266" xlink:href="#DejaVuSans-53"/>
     <use x="190.820312" xlink:href="#DejaVuSans-55"/>
     <use x="254.443359" xlink:href="#DejaVuSans-37"/>
    </g>
   </g>
   <g id="text_55">
    <!--  1.72% -->
    <g style="fill:#696969;" transform="translate(500.348083 283.755123)scale(0.1 -0.1)">
     <use xlink:href="#DejaVuSans-32"/>
     <use x="31.787109" xlink:href="#DejaVuSans-49"/>
     <use x="95.410156" xlink:href="#DejaVuSans-46"/>
     <use x="127.197266" xlink:href="#DejaVuSans-55"/>
     <use x="190.820312" xlink:href="#DejaVuSans-50"/>
     <use x="254.443359" xlink:href="#DejaVuSans-37"/>
    </g>
   </g>
   <g id="text_56">
    <!--  0.86% -->
    <g style="fill:#696969;" transform="translate(570.527839 288.150001)scale(0.1 -0.1)">
     <use xlink:href="#DejaVuSans-32"/>
     <use x="31.787109" xlink:href="#DejaVuSans-48"/>
     <use x="95.410156" xlink:href="#DejaVuSans-46"/>
     <use x="127.197266" xlink:href="#DejaVuSans-56"/>
     <use x="190.820312" xlink:href="#DejaVuSans-54"/>
     <use x="254.443359" xlink:href="#DejaVuSans-37"/>
    </g>
   </g>
   <g id="text_57">
    <!-- 43.39% -->
    <g style="fill:#696969;" transform="translate(640.707595 69.604738)scale(0.1 -0.1)">
     <use xlink:href="#DejaVuSans-52"/>
     <use x="63.623047" xlink:href="#DejaVuSans-51"/>
     <use x="127.246094" xlink:href="#DejaVuSans-46"/>
     <use x="159.033203" xlink:href="#DejaVuSans-51"/>
     <use x="222.65625" xlink:href="#DejaVuSans-57"/>
     <use x="286.279297" xlink:href="#DejaVuSans-37"/>
    </g>
   </g>
   <g id="text_58">
    <!--  5.59% -->
    <g style="fill:#696969;" transform="translate(710.887351 263.853996)scale(0.1 -0.1)">
     <use xlink:href="#DejaVuSans-32"/>
     <use x="31.787109" xlink:href="#DejaVuSans-53"/>
     <use x="95.410156" xlink:href="#DejaVuSans-46"/>
     <use x="127.197266" xlink:href="#DejaVuSans-53"/>
     <use x="190.820312" xlink:href="#DejaVuSans-57"/>
     <use x="254.443359" xlink:href="#DejaVuSans-37"/>
    </g>
   </g>
   <g id="text_59">
    <!-- 11.14% -->
    <g style="fill:#696969;" transform="translate(781.067107 235.325087)scale(0.1 -0.1)">
     <use xlink:href="#DejaVuSans-49"/>
     <use x="63.623047" xlink:href="#DejaVuSans-49"/>
     <use x="127.246094" xlink:href="#DejaVuSans-46"/>
     <use x="159.033203" xlink:href="#DejaVuSans-49"/>
     <use x="222.65625" xlink:href="#DejaVuSans-52"/>
     <use x="286.279297" xlink:href="#DejaVuSans-37"/>
    </g>
   </g>
   <g id="text_60">
    <!--  1.00% -->
    <g style="fill:#696969;" transform="translate(851.246863 287.469713)scale(0.1 -0.1)">
     <use xlink:href="#DejaVuSans-32"/>
     <use x="31.787109" xlink:href="#DejaVuSans-49"/>
     <use x="95.410156" xlink:href="#DejaVuSans-46"/>
     <use x="127.197266" xlink:href="#DejaVuSans-48"/>
     <use x="190.820312" xlink:href="#DejaVuSans-48"/>
     <use x="254.443359" xlink:href="#DejaVuSans-37"/>
    </g>
   </g>
   <g id="text_61">
    <!--  2.43% -->
    <g style="fill:#696969;" transform="translate(921.42662 280.105324)scale(0.1 -0.1)">
     <use xlink:href="#DejaVuSans-32"/>
     <use x="31.787109" xlink:href="#DejaVuSans-50"/>
     <use x="95.410156" xlink:href="#DejaVuSans-46"/>
     <use x="127.197266" xlink:href="#DejaVuSans-52"/>
     <use x="190.820312" xlink:href="#DejaVuSans-51"/>
     <use x="254.443359" xlink:href="#DejaVuSans-37"/>
    </g>
   </g>
   <g id="text_62">
    <!--  0.41% -->
    <g style="fill:#696969;" transform="translate(991.606376 290.471619)scale(0.1 -0.1)">
     <use xlink:href="#DejaVuSans-32"/>
     <use x="31.787109" xlink:href="#DejaVuSans-48"/>
     <use x="95.410156" xlink:href="#DejaVuSans-46"/>
     <use x="127.197266" xlink:href="#DejaVuSans-52"/>
     <use x="190.820312" xlink:href="#DejaVuSans-49"/>
     <use x="254.443359" xlink:href="#DejaVuSans-37"/>
    </g>
   </g>
   <g id="text_63">
    <!--  1.61% -->
    <g style="fill:#696969;" transform="translate(1061.786132 284.338228)scale(0.1 -0.1)">
     <use xlink:href="#DejaVuSans-32"/>
     <use x="31.787109" xlink:href="#DejaVuSans-49"/>
     <use x="95.410156" xlink:href="#DejaVuSans-46"/>
     <use x="127.197266" xlink:href="#DejaVuSans-54"/>
     <use x="190.820312" xlink:href="#DejaVuSans-49"/>
     <use x="254.443359" xlink:href="#DejaVuSans-37"/>
    </g>
   </g>
   <g id="text_64">
    <!--  0.84% -->
    <g style="fill:#696969;" transform="translate(1131.965888 288.268781)scale(0.1 -0.1)">
     <use xlink:href="#DejaVuSans-32"/>
     <use x="31.787109" xlink:href="#DejaVuSans-48"/>
     <use x="95.410156" xlink:href="#DejaVuSans-46"/>
     <use x="127.197266" xlink:href="#DejaVuSans-56"/>
     <use x="190.820312" xlink:href="#DejaVuSans-52"/>
     <use x="254.443359" xlink:href="#DejaVuSans-37"/>
    </g>
   </g>
   <g id="text_65">
    <!--  0.95% -->
    <g style="fill:#696969;" transform="translate(1202.145644 287.685677)scale(0.1 -0.1)">
     <use xlink:href="#DejaVuSans-32"/>
     <use x="31.787109" xlink:href="#DejaVuSans-48"/>
     <use x="95.410156" xlink:href="#DejaVuSans-46"/>
     <use x="127.197266" xlink:href="#DejaVuSans-57"/>
     <use x="190.820312" xlink:href="#DejaVuSans-53"/>
     <use x="254.443359" xlink:href="#DejaVuSans-37"/>
    </g>
   </g>
   <g id="text_66">
    <!--  0.41% -->
    <g style="fill:#696969;" transform="translate(1272.3254 290.460821)scale(0.1 -0.1)">
     <use xlink:href="#DejaVuSans-32"/>
     <use x="31.787109" xlink:href="#DejaVuSans-48"/>
     <use x="95.410156" xlink:href="#DejaVuSans-46"/>
     <use x="127.197266" xlink:href="#DejaVuSans-52"/>
     <use x="190.820312" xlink:href="#DejaVuSans-49"/>
     <use x="254.443359" xlink:href="#DejaVuSans-37"/>
    </g>
   </g>
   <g id="text_67">
    <!--  0.43% -->
    <g style="fill:#696969;" transform="translate(1342.505156 290.374435)scale(0.1 -0.1)">
     <use xlink:href="#DejaVuSans-32"/>
     <use x="31.787109" xlink:href="#DejaVuSans-48"/>
     <use x="95.410156" xlink:href="#DejaVuSans-46"/>
     <use x="127.197266" xlink:href="#DejaVuSans-52"/>
     <use x="190.820312" xlink:href="#DejaVuSans-51"/>
     <use x="254.443359" xlink:href="#DejaVuSans-37"/>
    </g>
   </g>
   <g id="text_68">
    <!--  0.79% -->
    <g style="fill:#696969;" transform="translate(1412.684912 288.538737)scale(0.1 -0.1)">
     <use xlink:href="#DejaVuSans-32"/>
     <use x="31.787109" xlink:href="#DejaVuSans-48"/>
     <use x="95.410156" xlink:href="#DejaVuSans-46"/>
     <use x="127.197266" xlink:href="#DejaVuSans-55"/>
     <use x="190.820312" xlink:href="#DejaVuSans-57"/>
     <use x="254.443359" xlink:href="#DejaVuSans-37"/>
    </g>
   </g>
   <g id="text_69">
    <!--  0.22% -->
    <g style="fill:#696969;" transform="translate(1482.864668 291.454257)scale(0.1 -0.1)">
     <use xlink:href="#DejaVuSans-32"/>
     <use x="31.787109" xlink:href="#DejaVuSans-48"/>
     <use x="95.410156" xlink:href="#DejaVuSans-46"/>
     <use x="127.197266" xlink:href="#DejaVuSans-50"/>
     <use x="190.820312" xlink:href="#DejaVuSans-50"/>
     <use x="254.443359" xlink:href="#DejaVuSans-37"/>
    </g>
   </g>
   <g id="text_70">
    <!--  2.60% -->
    <g style="fill:#696969;" transform="translate(1553.044424 279.219869)scale(0.1 -0.1)">
     <use xlink:href="#DejaVuSans-32"/>
     <use x="31.787109" xlink:href="#DejaVuSans-50"/>
     <use x="95.410156" xlink:href="#DejaVuSans-46"/>
     <use x="127.197266" xlink:href="#DejaVuSans-54"/>
     <use x="190.820312" xlink:href="#DejaVuSans-48"/>
     <use x="254.443359" xlink:href="#DejaVuSans-37"/>
    </g>
   </g>
   <g id="text_71">
    <!--  0.32% -->
    <g style="fill:#696969;" transform="translate(1623.22418 290.957539)scale(0.1 -0.1)">
     <use xlink:href="#DejaVuSans-32"/>
     <use x="31.787109" xlink:href="#DejaVuSans-48"/>
     <use x="95.410156" xlink:href="#DejaVuSans-46"/>
     <use x="127.197266" xlink:href="#DejaVuSans-51"/>
     <use x="190.820312" xlink:href="#DejaVuSans-50"/>
     <use x="254.443359" xlink:href="#DejaVuSans-37"/>
    </g>
   </g>
   <g id="text_72">
    <!--  0.32% -->
    <g style="fill:#696969;" transform="translate(1693.403937 290.946741)scale(0.1 -0.1)">
     <use xlink:href="#DejaVuSans-32"/>
     <use x="31.787109" xlink:href="#DejaVuSans-48"/>
     <use x="95.410156" xlink:href="#DejaVuSans-46"/>
     <use x="127.197266" xlink:href="#DejaVuSans-51"/>
     <use x="190.820312" xlink:href="#DejaVuSans-50"/>
     <use x="254.443359" xlink:href="#DejaVuSans-37"/>
    </g>
   </g>
   <g id="text_73">
    <!--  0.11% -->
    <g style="fill:#696969;" transform="translate(1763.583693 292.037362)scale(0.1 -0.1)">
     <use xlink:href="#DejaVuSans-32"/>
     <use x="31.787109" xlink:href="#DejaVuSans-48"/>
     <use x="95.410156" xlink:href="#DejaVuSans-46"/>
     <use x="127.197266" xlink:href="#DejaVuSans-49"/>
     <use x="190.820312" xlink:href="#DejaVuSans-49"/>
     <use x="254.443359" xlink:href="#DejaVuSans-37"/>
    </g>
   </g>
   <g id="text_74">
    <!--  0.12% -->
    <g style="fill:#696969;" transform="translate(1833.763449 291.950976)scale(0.1 -0.1)">
     <use xlink:href="#DejaVuSans-32"/>
     <use x="31.787109" xlink:href="#DejaVuSans-48"/>
     <use x="95.410156" xlink:href="#DejaVuSans-46"/>
     <use x="127.197266" xlink:href="#DejaVuSans-49"/>
     <use x="190.820312" xlink:href="#DejaVuSans-50"/>
     <use x="254.443359" xlink:href="#DejaVuSans-37"/>
    </g>
   </g>
   <g id="text_75">
    <!--  0.33% -->
    <g style="fill:#696969;" transform="translate(1903.943205 290.881952)scale(0.1 -0.1)">
     <use xlink:href="#DejaVuSans-32"/>
     <use x="31.787109" xlink:href="#DejaVuSans-48"/>
     <use x="95.410156" xlink:href="#DejaVuSans-46"/>
     <use x="127.197266" xlink:href="#DejaVuSans-51"/>
     <use x="190.820312" xlink:href="#DejaVuSans-51"/>
     <use x="254.443359" xlink:href="#DejaVuSans-37"/>
    </g>
   </g>
   <g id="text_76">
    <!--  0.26% -->
    <g style="fill:#696969;" transform="translate(1974.122961 291.270688)scale(0.1 -0.1)">
     <use xlink:href="#DejaVuSans-32"/>
     <use x="31.787109" xlink:href="#DejaVuSans-48"/>
     <use x="95.410156" xlink:href="#DejaVuSans-46"/>
     <use x="127.197266" xlink:href="#DejaVuSans-50"/>
     <use x="190.820312" xlink:href="#DejaVuSans-54"/>
     <use x="254.443359" xlink:href="#DejaVuSans-37"/>
    </g>
   </g>
   <g id="text_77">
    <!--  0.67% -->
    <g style="fill:#696969;" transform="translate(2044.302717 289.165034)scale(0.1 -0.1)">
     <use xlink:href="#DejaVuSans-32"/>
     <use x="31.787109" xlink:href="#DejaVuSans-48"/>
     <use x="95.410156" xlink:href="#DejaVuSans-46"/>
     <use x="127.197266" xlink:href="#DejaVuSans-54"/>
     <use x="190.820312" xlink:href="#DejaVuSans-55"/>
     <use x="254.443359" xlink:href="#DejaVuSans-37"/>
    </g>
   </g>
   <g id="text_78">
    <!--  0.16% -->
    <g style="fill:#696969;" transform="translate(2114.482473 291.756608)scale(0.1 -0.1)">
     <use xlink:href="#DejaVuSans-32"/>
     <use x="31.787109" xlink:href="#DejaVuSans-48"/>
     <use x="95.410156" xlink:href="#DejaVuSans-46"/>
     <use x="127.197266" xlink:href="#DejaVuSans-49"/>
     <use x="190.820312" xlink:href="#DejaVuSans-54"/>
     <use x="254.443359" xlink:href="#DejaVuSans-37"/>
    </g>
   </g>
   <g id="text_79">
    <!--  0.37% -->
    <g style="fill:#696969;" transform="translate(2184.662229 290.665987)scale(0.1 -0.1)">
     <use xlink:href="#DejaVuSans-32"/>
     <use x="31.787109" xlink:href="#DejaVuSans-48"/>
     <use x="95.410156" xlink:href="#DejaVuSans-46"/>
     <use x="127.197266" xlink:href="#DejaVuSans-51"/>
     <use x="190.820312" xlink:href="#DejaVuSans-55"/>
     <use x="254.443359" xlink:href="#DejaVuSans-37"/>
    </g>
   </g>
   <g id="text_80">
    <!-- 12.03% -->
    <g style="fill:#696969;" transform="translate(2254.841985 230.757438)scale(0.1 -0.1)">
     <use xlink:href="#DejaVuSans-49"/>
     <use x="63.623047" xlink:href="#DejaVuSans-50"/>
     <use x="127.246094" xlink:href="#DejaVuSans-46"/>
     <use x="159.033203" xlink:href="#DejaVuSans-48"/>
     <use x="222.65625" xlink:href="#DejaVuSans-51"/>
     <use x="286.279297" xlink:href="#DejaVuSans-37"/>
    </g>
   </g>
   <g id="text_81">
    <!--  1.17% -->
    <g style="fill:#696969;" transform="translate(2325.021741 286.562662)scale(0.1 -0.1)">
     <use xlink:href="#DejaVuSans-32"/>
     <use x="31.787109" xlink:href="#DejaVuSans-49"/>
     <use x="95.410156" xlink:href="#DejaVuSans-46"/>
     <use x="127.197266" xlink:href="#DejaVuSans-49"/>
     <use x="190.820312" xlink:href="#DejaVuSans-55"/>
     <use x="254.443359" xlink:href="#DejaVuSans-37"/>
    </g>
   </g>
   <g id="text_82">
    <!--  2.70% -->
    <g style="fill:#696969;" transform="translate(2395.201498 278.690756)scale(0.1 -0.1)">
     <use xlink:href="#DejaVuSans-32"/>
     <use x="31.787109" xlink:href="#DejaVuSans-50"/>
     <use x="95.410156" xlink:href="#DejaVuSans-46"/>
     <use x="127.197266" xlink:href="#DejaVuSans-55"/>
     <use x="190.820312" xlink:href="#DejaVuSans-48"/>
     <use x="254.443359" xlink:href="#DejaVuSans-37"/>
    </g>
   </g>
   <g id="text_83">
    <!--  0.71% -->
    <g style="fill:#696969;" transform="translate(2465.381254 288.949069)scale(0.1 -0.1)">
     <use xlink:href="#DejaVuSans-32"/>
     <use x="31.787109" xlink:href="#DejaVuSans-48"/>
     <use x="95.410156" xlink:href="#DejaVuSans-46"/>
     <use x="127.197266" xlink:href="#DejaVuSans-55"/>
     <use x="190.820312" xlink:href="#DejaVuSans-49"/>
     <use x="254.443359" xlink:href="#DejaVuSans-37"/>
    </g>
   </g>
   <g id="text_84">
    <!--  0.18% -->
    <g style="fill:#696969;" transform="translate(2535.56101 291.68102)scale(0.1 -0.1)">
     <use xlink:href="#DejaVuSans-32"/>
     <use x="31.787109" xlink:href="#DejaVuSans-48"/>
     <use x="95.410156" xlink:href="#DejaVuSans-46"/>
     <use x="127.197266" xlink:href="#DejaVuSans-49"/>
     <use x="190.820312" xlink:href="#DejaVuSans-56"/>
     <use x="254.443359" xlink:href="#DejaVuSans-37"/>
    </g>
   </g>
   <g id="text_85">
    <!--  0.12% -->
    <g style="fill:#696969;" transform="translate(2605.740766 291.972572)scale(0.1 -0.1)">
     <use xlink:href="#DejaVuSans-32"/>
     <use x="31.787109" xlink:href="#DejaVuSans-48"/>
     <use x="95.410156" xlink:href="#DejaVuSans-46"/>
     <use x="127.197266" xlink:href="#DejaVuSans-49"/>
     <use x="190.820312" xlink:href="#DejaVuSans-50"/>
     <use x="254.443359" xlink:href="#DejaVuSans-37"/>
    </g>
   </g>
   <g id="text_86">
    <!--  0.12% -->
    <g style="fill:#696969;" transform="translate(2675.920522 291.961774)scale(0.1 -0.1)">
     <use xlink:href="#DejaVuSans-32"/>
     <use x="31.787109" xlink:href="#DejaVuSans-48"/>
     <use x="95.410156" xlink:href="#DejaVuSans-46"/>
     <use x="127.197266" xlink:href="#DejaVuSans-49"/>
     <use x="190.820312" xlink:href="#DejaVuSans-50"/>
     <use x="254.443359" xlink:href="#DejaVuSans-37"/>
    </g>
   </g>
   <g id="text_87">
    <!--  1.86% -->
    <g style="fill:#696969;" transform="translate(2746.100278 283.010046)scale(0.1 -0.1)">
     <use xlink:href="#DejaVuSans-32"/>
     <use x="31.787109" xlink:href="#DejaVuSans-49"/>
     <use x="95.410156" xlink:href="#DejaVuSans-46"/>
     <use x="127.197266" xlink:href="#DejaVuSans-56"/>
     <use x="190.820312" xlink:href="#DejaVuSans-54"/>
     <use x="254.443359" xlink:href="#DejaVuSans-37"/>
    </g>
   </g>
   <g id="text_88">
    <!--  0.22% -->
    <g style="fill:#696969;" transform="translate(2816.280034 291.465056)scale(0.1 -0.1)">
     <use xlink:href="#DejaVuSans-32"/>
     <use x="31.787109" xlink:href="#DejaVuSans-48"/>
     <use x="95.410156" xlink:href="#DejaVuSans-46"/>
     <use x="127.197266" xlink:href="#DejaVuSans-50"/>
     <use x="190.820312" xlink:href="#DejaVuSans-50"/>
     <use x="254.443359" xlink:href="#DejaVuSans-37"/>
    </g>
   </g>
   <g id="text_89">
    <!--  0.14% -->
    <g style="fill:#696969;" transform="translate(2886.45979 291.86459)scale(0.1 -0.1)">
     <use xlink:href="#DejaVuSans-32"/>
     <use x="31.787109" xlink:href="#DejaVuSans-48"/>
     <use x="95.410156" xlink:href="#DejaVuSans-46"/>
     <use x="127.197266" xlink:href="#DejaVuSans-49"/>
     <use x="190.820312" xlink:href="#DejaVuSans-52"/>
     <use x="254.443359" xlink:href="#DejaVuSans-37"/>
    </g>
   </g>
   <g id="text_90">
    <!-- Peptides in mass shifts -->
    <g style="fill:#262626;" transform="translate(1433.925625 19.44)scale(0.12 -0.12)">
     <defs>
      <path d="M 19.671875 64.796875 
L 19.671875 37.40625 
L 32.078125 37.40625 
Q 38.96875 37.40625 42.71875 40.96875 
Q 46.484375 44.53125 46.484375 51.125 
Q 46.484375 57.671875 42.71875 61.234375 
Q 38.96875 64.796875 32.078125 64.796875 
z
M 9.8125 72.90625 
L 32.078125 72.90625 
Q 44.34375 72.90625 50.609375 67.359375 
Q 56.890625 61.8125 56.890625 51.125 
Q 56.890625 40.328125 50.609375 34.8125 
Q 44.34375 29.296875 32.078125 29.296875 
L 19.671875 29.296875 
L 19.671875 0 
L 9.8125 0 
z
" id="DejaVuSans-80"/>
      <path d="M 54.890625 33.015625 
L 54.890625 0 
L 45.90625 0 
L 45.90625 32.71875 
Q 45.90625 40.484375 42.875 44.328125 
Q 39.84375 48.1875 33.796875 48.1875 
Q 26.515625 48.1875 22.3125 43.546875 
Q 18.109375 38.921875 18.109375 30.90625 
L 18.109375 0 
L 9.078125 0 
L 9.078125 54.6875 
L 18.109375 54.6875 
L 18.109375 46.1875 
Q 21.34375 51.125 25.703125 53.5625 
Q 30.078125 56 35.796875 56 
Q 45.21875 56 50.046875 50.171875 
Q 54.890625 44.34375 54.890625 33.015625 
z
" id="DejaVuSans-110"/>
     </defs>
     <use xlink:href="#DejaVuSans-80"/>
     <use x="56.677734" xlink:href="#DejaVuSans-101"/>
     <use x="118.201172" xlink:href="#DejaVuSans-112"/>
     <use x="181.677734" xlink:href="#DejaVuSans-116"/>
     <use x="220.886719" xlink:href="#DejaVuSans-105"/>
     <use x="248.669922" xlink:href="#DejaVuSans-100"/>
     <use x="312.146484" xlink:href="#DejaVuSans-101"/>
     <use x="373.669922" xlink:href="#DejaVuSans-115"/>
     <use x="425.769531" xlink:href="#DejaVuSans-32"/>
     <use x="457.556641" xlink:href="#DejaVuSans-105"/>
     <use x="485.339844" xlink:href="#DejaVuSans-110"/>
     <use x="548.71875" xlink:href="#DejaVuSans-32"/>
     <use x="580.505859" xlink:href="#DejaVuSans-109"/>
     <use x="677.917969" xlink:href="#DejaVuSans-97"/>
     <use x="739.197266" xlink:href="#DejaVuSans-115"/>
     <use x="791.296875" xlink:href="#DejaVuSans-115"/>
     <use x="843.396484" xlink:href="#DejaVuSans-32"/>
     <use x="875.183594" xlink:href="#DejaVuSans-115"/>
     <use x="927.283203" xlink:href="#DejaVuSans-104"/>
     <use x="990.662109" xlink:href="#DejaVuSans-105"/>
     <use x="1018.445312" xlink:href="#DejaVuSans-102"/>
     <use x="1051.900391" xlink:href="#DejaVuSans-116"/>
     <use x="1091.109375" xlink:href="#DejaVuSans-115"/>
    </g>
   </g>
   <g id="legend_1">
    <g id="patch_48">
     <path d="M 2816.446875 48.118125 
L 2934.2 48.118125 
Q 2936.2 48.118125 2936.2 46.118125 
L 2936.2 32.44 
Q 2936.2 30.44 2934.2 30.44 
L 2816.446875 30.44 
Q 2814.446875 30.44 2814.446875 32.44 
L 2814.446875 46.118125 
Q 2814.446875 48.118125 2816.446875 48.118125 
z
" style="fill:#ffffff;opacity:0.8;stroke:#cccccc;stroke-linejoin:miter;"/>
    </g>
    <g id="patch_49">
     <path d="M 2818.446875 42.038437 
L 2838.446875 42.038437 
L 2838.446875 35.038437 
L 2818.446875 35.038437 
z
" style="fill:#88aa00;stroke:#ffffff;stroke-linejoin:miter;"/>
    </g>
    <g id="text_91">
     <!-- # peptides in bin -->
     <g style="fill:#262626;" transform="translate(2846.446875 42.038437)scale(0.1 -0.1)">
      <defs>
       <path d="M 51.125 44 
L 36.921875 44 
L 32.8125 27.6875 
L 47.125 27.6875 
z
M 43.796875 71.78125 
L 38.71875 51.515625 
L 52.984375 51.515625 
L 58.109375 71.78125 
L 65.921875 71.78125 
L 60.890625 51.515625 
L 76.125 51.515625 
L 76.125 44 
L 58.984375 44 
L 54.984375 27.6875 
L 70.515625 27.6875 
L 70.515625 20.21875 
L 53.078125 20.21875 
L 48 0 
L 40.1875 0 
L 45.21875 20.21875 
L 30.90625 20.21875 
L 25.875 0 
L 18.015625 0 
L 23.09375 20.21875 
L 7.71875 20.21875 
L 7.71875 27.6875 
L 24.90625 27.6875 
L 29 44 
L 13.28125 44 
L 13.28125 51.515625 
L 30.90625 51.515625 
L 35.890625 71.78125 
z
" id="DejaVuSans-35"/>
      </defs>
      <use xlink:href="#DejaVuSans-35"/>
      <use x="83.789062" xlink:href="#DejaVuSans-32"/>
      <use x="115.576172" xlink:href="#DejaVuSans-112"/>
      <use x="179.052734" xlink:href="#DejaVuSans-101"/>
      <use x="240.576172" xlink:href="#DejaVuSans-112"/>
      <use x="304.052734" xlink:href="#DejaVuSans-116"/>
      <use x="343.261719" xlink:href="#DejaVuSans-105"/>
      <use x="371.044922" xlink:href="#DejaVuSans-100"/>
      <use x="434.521484" xlink:href="#DejaVuSans-101"/>
      <use x="496.044922" xlink:href="#DejaVuSans-115"/>
      <use x="548.144531" xlink:href="#DejaVuSans-32"/>
      <use x="579.931641" xlink:href="#DejaVuSans-105"/>
      <use x="607.714844" xlink:href="#DejaVuSans-110"/>
      <use x="671.09375" xlink:href="#DejaVuSans-32"/>
      <use x="702.880859" xlink:href="#DejaVuSans-98"/>
      <use x="766.357422" xlink:href="#DejaVuSans-105"/>
      <use x="794.140625" xlink:href="#DejaVuSans-110"/>
     </g>
    </g>
   </g>
  </g>
 </g>
 <defs>
  <clipPath id="pb688f0a11c">
   <rect height="267.58" width="2877.37" x="63.83" y="25.44"/>
  </clipPath>
 </defs>
</svg>
