<?xml version="1.0" encoding="utf-8" standalone="no"?>
<!DOCTYPE svg PUBLIC "-//W3C//DTD SVG 1.1//EN"
  "http://www.w3.org/Graphics/SVG/1.1/DTD/svg11.dtd">
<!-- Created with matplotlib (https://matplotlib.org/) -->
<svg height="252pt" version="1.1" viewBox="0 0 648 252" width="648pt" xmlns="http://www.w3.org/2000/svg" xmlns:xlink="http://www.w3.org/1999/xlink">
 <metadata>
  <rdf:RDF xmlns:cc="http://creativecommons.org/ns#" xmlns:dc="http://purl.org/dc/elements/1.1/" xmlns:rdf="http://www.w3.org/1999/02/22-rdf-syntax-ns#">
   <cc:Work>
    <dc:type rdf:resource="http://purl.org/dc/dcmitype/StillImage"/>
    <dc:date>2020-10-21T21:23:36.711515</dc:date>
    <dc:format>image/svg+xml</dc:format>
    <dc:creator>
     <cc:Agent>
      <dc:title>Matplotlib v3.3.1, https://matplotlib.org/</dc:title>
     </cc:Agent>
    </dc:creator>
   </cc:Work>
  </rdf:RDF>
 </metadata>
 <defs>
  <style type="text/css">*{stroke-linecap:butt;stroke-linejoin:round;}</style>
 </defs>
 <g id="figure_1">
  <g id="patch_1">
   <path d="M 0 252 
L 648 252 
L 648 0 
L 0 0 
z
" style="fill:#ffffff;"/>
  </g>
  <g id="axes_1">
   <g id="patch_2">
    <path d="M 44.66 224.12 
L 546.73 224.12 
L 546.73 10.8 
L 44.66 10.8 
z
" style="fill:#ffffff;"/>
   </g>
   <g id="matplotlib.axis_1">
    <g id="xtick_1">
     <g id="text_1">
      <!-- M -->
      <g style="fill:#262626;" transform="translate(64.254033 238.718437)scale(0.1 -0.1)">
       <defs>
        <path d="M 9.8125 72.90625 
L 24.515625 72.90625 
L 43.109375 23.296875 
L 61.8125 72.90625 
L 76.515625 72.90625 
L 76.515625 0 
L 66.890625 0 
L 66.890625 64.015625 
L 48.09375 14.015625 
L 38.1875 14.015625 
L 19.390625 64.015625 
L 19.390625 0 
L 9.8125 0 
z
" id="DejaVuSans-77"/>
       </defs>
       <use xlink:href="#DejaVuSans-77"/>
      </g>
     </g>
    </g>
    <g id="xtick_2">
     <g id="text_2">
      <!-- D -->
      <g style="fill:#262626;" transform="translate(88.62619 238.718437)scale(0.1 -0.1)">
       <defs>
        <path d="M 19.671875 64.796875 
L 19.671875 8.109375 
L 31.59375 8.109375 
Q 46.6875 8.109375 53.6875 14.9375 
Q 60.6875 21.78125 60.6875 36.53125 
Q 60.6875 51.171875 53.6875 57.984375 
Q 46.6875 64.796875 31.59375 64.796875 
z
M 9.8125 72.90625 
L 30.078125 72.90625 
Q 51.265625 72.90625 61.171875 64.09375 
Q 71.09375 55.28125 71.09375 36.53125 
Q 71.09375 17.671875 61.125 8.828125 
Q 51.171875 0 30.078125 0 
L 9.8125 0 
z
" id="DejaVuSans-68"/>
       </defs>
       <use xlink:href="#DejaVuSans-68"/>
      </g>
     </g>
    </g>
    <g id="xtick_3">
     <g id="text_3">
      <!-- Q -->
      <g style="fill:#262626;" transform="translate(112.448348 238.718437)scale(0.1 -0.1)">
       <defs>
        <path d="M 39.40625 66.21875 
Q 28.65625 66.21875 22.328125 58.203125 
Q 16.015625 50.203125 16.015625 36.375 
Q 16.015625 22.609375 22.328125 14.59375 
Q 28.65625 6.59375 39.40625 6.59375 
Q 50.140625 6.59375 56.421875 14.59375 
Q 62.703125 22.609375 62.703125 36.375 
Q 62.703125 50.203125 56.421875 58.203125 
Q 50.140625 66.21875 39.40625 66.21875 
z
M 53.21875 1.3125 
L 66.21875 -12.890625 
L 54.296875 -12.890625 
L 43.5 -1.21875 
Q 41.890625 -1.3125 41.03125 -1.359375 
Q 40.1875 -1.421875 39.40625 -1.421875 
Q 24.03125 -1.421875 14.8125 8.859375 
Q 5.609375 19.140625 5.609375 36.375 
Q 5.609375 53.65625 14.8125 63.9375 
Q 24.03125 74.21875 39.40625 74.21875 
Q 54.734375 74.21875 63.90625 63.9375 
Q 73.09375 53.65625 73.09375 36.375 
Q 73.09375 23.6875 67.984375 14.640625 
Q 62.890625 5.609375 53.21875 1.3125 
z
" id="DejaVuSans-81"/>
       </defs>
       <use xlink:href="#DejaVuSans-81"/>
      </g>
     </g>
    </g>
    <g id="xtick_4">
     <g id="text_4">
      <!-- C -->
      <g style="fill:#262626;" transform="translate(136.800975 238.718437)scale(0.1 -0.1)">
       <defs>
        <path d="M 64.40625 67.28125 
L 64.40625 56.890625 
Q 59.421875 61.53125 53.78125 63.8125 
Q 48.140625 66.109375 41.796875 66.109375 
Q 29.296875 66.109375 22.65625 58.46875 
Q 16.015625 50.828125 16.015625 36.375 
Q 16.015625 21.96875 22.65625 14.328125 
Q 29.296875 6.6875 41.796875 6.6875 
Q 48.140625 6.6875 53.78125 8.984375 
Q 59.421875 11.28125 64.40625 15.921875 
L 64.40625 5.609375 
Q 59.234375 2.09375 53.4375 0.328125 
Q 47.65625 -1.421875 41.21875 -1.421875 
Q 24.65625 -1.421875 15.125 8.703125 
Q 5.609375 18.84375 5.609375 36.375 
Q 5.609375 53.953125 15.125 64.078125 
Q 24.65625 74.21875 41.21875 74.21875 
Q 47.75 74.21875 53.53125 72.484375 
Q 59.328125 70.75 64.40625 67.28125 
z
" id="DejaVuSans-67"/>
       </defs>
       <use xlink:href="#DejaVuSans-67"/>
      </g>
     </g>
    </g>
    <g id="xtick_5">
     <g id="text_5">
      <!-- L -->
      <g style="fill:#262626;" transform="translate(161.414539 238.718437)scale(0.1 -0.1)">
       <defs>
        <path d="M 9.8125 72.90625 
L 19.671875 72.90625 
L 19.671875 8.296875 
L 55.171875 8.296875 
L 55.171875 0 
L 9.8125 0 
z
" id="DejaVuSans-76"/>
       </defs>
       <use xlink:href="#DejaVuSans-76"/>
      </g>
     </g>
    </g>
    <g id="xtick_6">
     <g id="text_6">
      <!-- H -->
      <g style="fill:#262626;" transform="translate(184.348415 238.718437)scale(0.1 -0.1)">
       <defs>
        <path d="M 9.8125 72.90625 
L 19.671875 72.90625 
L 19.671875 43.015625 
L 55.515625 43.015625 
L 55.515625 72.90625 
L 65.375 72.90625 
L 65.375 0 
L 55.515625 0 
L 55.515625 34.71875 
L 19.671875 34.71875 
L 19.671875 0 
L 9.8125 0 
z
" id="DejaVuSans-72"/>
       </defs>
       <use xlink:href="#DejaVuSans-72"/>
      </g>
     </g>
    </g>
    <g id="xtick_7">
     <g id="text_7">
      <!-- S -->
      <g style="fill:#262626;" transform="translate(208.842448 238.718437)scale(0.1 -0.1)">
       <defs>
        <path d="M 53.515625 70.515625 
L 53.515625 60.890625 
Q 47.90625 63.578125 42.921875 64.890625 
Q 37.9375 66.21875 33.296875 66.21875 
Q 25.25 66.21875 20.875 63.09375 
Q 16.5 59.96875 16.5 54.203125 
Q 16.5 49.359375 19.40625 46.890625 
Q 22.3125 44.4375 30.421875 42.921875 
L 36.375 41.703125 
Q 47.40625 39.59375 52.65625 34.296875 
Q 57.90625 29 57.90625 20.125 
Q 57.90625 9.515625 50.796875 4.046875 
Q 43.703125 -1.421875 29.984375 -1.421875 
Q 24.8125 -1.421875 18.96875 -0.25 
Q 13.140625 0.921875 6.890625 3.21875 
L 6.890625 13.375 
Q 12.890625 10.015625 18.65625 8.296875 
Q 24.421875 6.59375 29.984375 6.59375 
Q 38.421875 6.59375 43.015625 9.90625 
Q 47.609375 13.234375 47.609375 19.390625 
Q 47.609375 24.75 44.3125 27.78125 
Q 41.015625 30.8125 33.5 32.328125 
L 27.484375 33.5 
Q 16.453125 35.6875 11.515625 40.375 
Q 6.59375 45.0625 6.59375 53.421875 
Q 6.59375 63.09375 13.40625 68.65625 
Q 20.21875 74.21875 32.171875 74.21875 
Q 37.3125 74.21875 42.625 73.28125 
Q 47.953125 72.359375 53.515625 70.515625 
z
" id="DejaVuSans-83"/>
       </defs>
       <use xlink:href="#DejaVuSans-83"/>
      </g>
     </g>
    </g>
    <g id="xtick_8">
     <g id="text_8">
      <!-- R -->
      <g style="fill:#262626;" transform="translate(232.450543 238.718437)scale(0.1 -0.1)">
       <defs>
        <path d="M 44.390625 34.1875 
Q 47.5625 33.109375 50.5625 29.59375 
Q 53.5625 26.078125 56.59375 19.921875 
L 66.609375 0 
L 56 0 
L 46.6875 18.703125 
Q 43.0625 26.03125 39.671875 28.421875 
Q 36.28125 30.8125 30.421875 30.8125 
L 19.671875 30.8125 
L 19.671875 0 
L 9.8125 0 
L 9.8125 72.90625 
L 32.078125 72.90625 
Q 44.578125 72.90625 50.734375 67.671875 
Q 56.890625 62.453125 56.890625 51.90625 
Q 56.890625 45.015625 53.6875 40.46875 
Q 50.484375 35.9375 44.390625 34.1875 
z
M 19.671875 64.796875 
L 19.671875 38.921875 
L 32.078125 38.921875 
Q 39.203125 38.921875 42.84375 42.21875 
Q 46.484375 45.515625 46.484375 51.90625 
Q 46.484375 58.296875 42.84375 61.546875 
Q 39.203125 64.796875 32.078125 64.796875 
z
" id="DejaVuSans-82"/>
       </defs>
       <use xlink:href="#DejaVuSans-82"/>
      </g>
     </g>
    </g>
    <g id="xtick_9">
     <g id="text_9">
      <!-- A -->
      <g style="fill:#262626;" transform="translate(256.412545 238.718437)scale(0.1 -0.1)">
       <defs>
        <path d="M 34.1875 63.1875 
L 20.796875 26.90625 
L 47.609375 26.90625 
z
M 28.609375 72.90625 
L 39.796875 72.90625 
L 67.578125 0 
L 57.328125 0 
L 50.6875 18.703125 
L 17.828125 18.703125 
L 11.1875 0 
L 0.78125 0 
z
" id="DejaVuSans-65"/>
       </defs>
       <use xlink:href="#DejaVuSans-65"/>
      </g>
     </g>
    </g>
    <g id="xtick_10">
     <g id="text_10">
      <!-- W -->
      <g style="fill:#262626;" transform="translate(278.797202 238.718437)scale(0.1 -0.1)">
       <defs>
        <path d="M 3.328125 72.90625 
L 13.28125 72.90625 
L 28.609375 11.28125 
L 43.890625 72.90625 
L 54.984375 72.90625 
L 70.3125 11.28125 
L 85.59375 72.90625 
L 95.609375 72.90625 
L 77.296875 0 
L 64.890625 0 
L 49.515625 63.28125 
L 33.984375 0 
L 21.578125 0 
z
" id="DejaVuSans-87"/>
       </defs>
       <use xlink:href="#DejaVuSans-87"/>
      </g>
     </g>
    </g>
    <g id="xtick_11">
     <g id="text_11">
      <!-- Y -->
      <g style="fill:#262626;" transform="translate(304.595141 238.718437)scale(0.1 -0.1)">
       <defs>
        <path d="M -0.203125 72.90625 
L 10.40625 72.90625 
L 30.609375 42.921875 
L 50.6875 72.90625 
L 61.28125 72.90625 
L 35.5 34.71875 
L 35.5 0 
L 25.59375 0 
L 25.59375 34.71875 
z
" id="DejaVuSans-89"/>
       </defs>
       <use xlink:href="#DejaVuSans-89"/>
      </g>
     </g>
    </g>
    <g id="xtick_12">
     <g id="text_12">
      <!-- P -->
      <g style="fill:#262626;" transform="translate(328.542299 238.718437)scale(0.1 -0.1)">
       <defs>
        <path d="M 19.671875 64.796875 
L 19.671875 37.40625 
L 32.078125 37.40625 
Q 38.96875 37.40625 42.71875 40.96875 
Q 46.484375 44.53125 46.484375 51.125 
Q 46.484375 57.671875 42.71875 61.234375 
Q 38.96875 64.796875 32.078125 64.796875 
z
M 9.8125 72.90625 
L 32.078125 72.90625 
Q 44.34375 72.90625 50.609375 67.359375 
Q 56.890625 61.8125 56.890625 51.125 
Q 56.890625 40.328125 50.609375 34.8125 
Q 44.34375 29.296875 32.078125 29.296875 
L 19.671875 29.296875 
L 19.671875 0 
L 9.8125 0 
z
" id="DejaVuSans-80"/>
       </defs>
       <use xlink:href="#DejaVuSans-80"/>
      </g>
     </g>
    </g>
    <g id="xtick_13">
     <g id="text_13">
      <!-- F -->
      <g style="fill:#262626;" transform="translate(352.589457 238.718437)scale(0.1 -0.1)">
       <defs>
        <path d="M 9.8125 72.90625 
L 51.703125 72.90625 
L 51.703125 64.59375 
L 19.671875 64.59375 
L 19.671875 43.109375 
L 48.578125 43.109375 
L 48.578125 34.8125 
L 19.671875 34.8125 
L 19.671875 0 
L 9.8125 0 
z
" id="DejaVuSans-70"/>
       </defs>
       <use xlink:href="#DejaVuSans-70"/>
      </g>
     </g>
    </g>
    <g id="xtick_14">
     <g id="text_14">
      <!-- V -->
      <g style="fill:#262626;" transform="translate(375.953021 238.718437)scale(0.1 -0.1)">
       <defs>
        <path d="M 28.609375 0 
L 0.78125 72.90625 
L 11.078125 72.90625 
L 34.1875 11.53125 
L 57.328125 72.90625 
L 67.578125 72.90625 
L 39.796875 0 
z
" id="DejaVuSans-86"/>
       </defs>
       <use xlink:href="#DejaVuSans-86"/>
      </g>
     </g>
    </g>
    <g id="xtick_15">
     <g id="text_15">
      <!-- N -->
      <g style="fill:#262626;" transform="translate(399.540804 238.718437)scale(0.1 -0.1)">
       <defs>
        <path d="M 9.8125 72.90625 
L 23.09375 72.90625 
L 55.421875 11.921875 
L 55.421875 72.90625 
L 64.984375 72.90625 
L 64.984375 0 
L 51.703125 0 
L 19.390625 60.984375 
L 19.390625 0 
L 9.8125 0 
z
" id="DejaVuSans-78"/>
       </defs>
       <use xlink:href="#DejaVuSans-78"/>
      </g>
     </g>
    </g>
    <g id="xtick_16">
     <g id="text_16">
      <!-- T -->
      <g style="fill:#262626;" transform="translate(424.135618 238.718437)scale(0.1 -0.1)">
       <defs>
        <path d="M -0.296875 72.90625 
L 61.375 72.90625 
L 61.375 64.59375 
L 35.5 64.59375 
L 35.5 0 
L 25.59375 0 
L 25.59375 64.59375 
L -0.296875 64.59375 
z
" id="DejaVuSans-84"/>
       </defs>
       <use xlink:href="#DejaVuSans-84"/>
      </g>
     </g>
    </g>
    <g id="xtick_17">
     <g id="text_17">
      <!-- E -->
      <g style="fill:#262626;" transform="translate(447.938244 238.718437)scale(0.1 -0.1)">
       <defs>
        <path d="M 9.8125 72.90625 
L 55.90625 72.90625 
L 55.90625 64.59375 
L 19.671875 64.59375 
L 19.671875 43.015625 
L 54.390625 43.015625 
L 54.390625 34.71875 
L 19.671875 34.71875 
L 19.671875 8.296875 
L 56.78125 8.296875 
L 56.78125 0 
L 9.8125 0 
z
" id="DejaVuSans-69"/>
       </defs>
       <use xlink:href="#DejaVuSans-69"/>
      </g>
     </g>
    </g>
    <g id="xtick_18">
     <g id="text_18">
      <!-- G -->
      <g style="fill:#262626;" transform="translate(471.131496 238.718437)scale(0.1 -0.1)">
       <defs>
        <path d="M 59.515625 10.40625 
L 59.515625 29.984375 
L 43.40625 29.984375 
L 43.40625 38.09375 
L 69.28125 38.09375 
L 69.28125 6.78125 
Q 63.578125 2.734375 56.6875 0.65625 
Q 49.8125 -1.421875 42 -1.421875 
Q 24.90625 -1.421875 15.25 8.5625 
Q 5.609375 18.5625 5.609375 36.375 
Q 5.609375 54.25 15.25 64.234375 
Q 24.90625 74.21875 42 74.21875 
Q 49.125 74.21875 55.546875 72.453125 
Q 61.96875 70.703125 67.390625 67.28125 
L 67.390625 56.78125 
Q 61.921875 61.421875 55.765625 63.765625 
Q 49.609375 66.109375 42.828125 66.109375 
Q 29.4375 66.109375 22.71875 58.640625 
Q 16.015625 51.171875 16.015625 36.375 
Q 16.015625 21.625 22.71875 14.15625 
Q 29.4375 6.6875 42.828125 6.6875 
Q 48.046875 6.6875 52.140625 7.59375 
Q 56.25 8.5 59.515625 10.40625 
z
" id="DejaVuSans-71"/>
       </defs>
       <use xlink:href="#DejaVuSans-71"/>
      </g>
     </g>
    </g>
    <g id="xtick_19">
     <g id="text_19">
      <!-- I -->
      <g style="fill:#262626;" transform="translate(497.43881 238.718437)scale(0.1 -0.1)">
       <defs>
        <path d="M 9.8125 72.90625 
L 19.671875 72.90625 
L 19.671875 0 
L 9.8125 0 
z
" id="DejaVuSans-73"/>
       </defs>
       <use xlink:href="#DejaVuSans-73"/>
      </g>
     </g>
    </g>
    <g id="xtick_20">
     <g id="text_20">
      <!-- K -->
      <g style="fill:#262626;" transform="translate(519.542999 238.718437)scale(0.1 -0.1)">
       <defs>
        <path d="M 9.8125 72.90625 
L 19.671875 72.90625 
L 19.671875 42.09375 
L 52.390625 72.90625 
L 65.09375 72.90625 
L 28.90625 38.921875 
L 67.671875 0 
L 54.6875 0 
L 19.671875 35.109375 
L 19.671875 0 
L 9.8125 0 
z
" id="DejaVuSans-75"/>
       </defs>
       <use xlink:href="#DejaVuSans-75"/>
      </g>
     </g>
    </g>
   </g>
   <g id="matplotlib.axis_2">
    <g id="ytick_1">
     <g id="line2d_1">
      <defs>
       <path d="M 0 0 
L -3.5 0 
" id="m8951fe9487" style="stroke:#88aa00;stroke-width:0.8;"/>
      </defs>
      <g>
       <use style="fill:#88aa00;stroke:#88aa00;stroke-width:0.8;" x="44.66" xlink:href="#m8951fe9487" y="224.12"/>
      </g>
     </g>
     <g id="text_21">
      <!-- 0 -->
      <g style="fill:#88aa00;" transform="translate(31.2975 227.919219)scale(0.1 -0.1)">
       <defs>
        <path d="M 31.78125 66.40625 
Q 24.171875 66.40625 20.328125 58.90625 
Q 16.5 51.421875 16.5 36.375 
Q 16.5 21.390625 20.328125 13.890625 
Q 24.171875 6.390625 31.78125 6.390625 
Q 39.453125 6.390625 43.28125 13.890625 
Q 47.125 21.390625 47.125 36.375 
Q 47.125 51.421875 43.28125 58.90625 
Q 39.453125 66.40625 31.78125 66.40625 
z
M 31.78125 74.21875 
Q 44.046875 74.21875 50.515625 64.515625 
Q 56.984375 54.828125 56.984375 36.375 
Q 56.984375 17.96875 50.515625 8.265625 
Q 44.046875 -1.421875 31.78125 -1.421875 
Q 19.53125 -1.421875 13.0625 8.265625 
Q 6.59375 17.96875 6.59375 36.375 
Q 6.59375 54.828125 13.0625 64.515625 
Q 19.53125 74.21875 31.78125 74.21875 
z
" id="DejaVuSans-48"/>
       </defs>
       <use xlink:href="#DejaVuSans-48"/>
      </g>
     </g>
    </g>
    <g id="ytick_2">
     <g id="line2d_2">
      <g>
       <use style="fill:#88aa00;stroke:#88aa00;stroke-width:0.8;" x="44.66" xlink:href="#m8951fe9487" y="195.181867"/>
      </g>
     </g>
     <g id="text_22">
      <!-- 2 -->
      <g style="fill:#88aa00;" transform="translate(31.2975 198.981086)scale(0.1 -0.1)">
       <defs>
        <path d="M 19.1875 8.296875 
L 53.609375 8.296875 
L 53.609375 0 
L 7.328125 0 
L 7.328125 8.296875 
Q 12.9375 14.109375 22.625 23.890625 
Q 32.328125 33.6875 34.8125 36.53125 
Q 39.546875 41.84375 41.421875 45.53125 
Q 43.3125 49.21875 43.3125 52.78125 
Q 43.3125 58.59375 39.234375 62.25 
Q 35.15625 65.921875 28.609375 65.921875 
Q 23.96875 65.921875 18.8125 64.3125 
Q 13.671875 62.703125 7.8125 59.421875 
L 7.8125 69.390625 
Q 13.765625 71.78125 18.9375 73 
Q 24.125 74.21875 28.421875 74.21875 
Q 39.75 74.21875 46.484375 68.546875 
Q 53.21875 62.890625 53.21875 53.421875 
Q 53.21875 48.921875 51.53125 44.890625 
Q 49.859375 40.875 45.40625 35.40625 
Q 44.1875 33.984375 37.640625 27.21875 
Q 31.109375 20.453125 19.1875 8.296875 
z
" id="DejaVuSans-50"/>
       </defs>
       <use xlink:href="#DejaVuSans-50"/>
      </g>
     </g>
    </g>
    <g id="ytick_3">
     <g id="line2d_3">
      <g>
       <use style="fill:#88aa00;stroke:#88aa00;stroke-width:0.8;" x="44.66" xlink:href="#m8951fe9487" y="166.243734"/>
      </g>
     </g>
     <g id="text_23">
      <!-- 4 -->
      <g style="fill:#88aa00;" transform="translate(31.2975 170.042953)scale(0.1 -0.1)">
       <defs>
        <path d="M 37.796875 64.3125 
L 12.890625 25.390625 
L 37.796875 25.390625 
z
M 35.203125 72.90625 
L 47.609375 72.90625 
L 47.609375 25.390625 
L 58.015625 25.390625 
L 58.015625 17.1875 
L 47.609375 17.1875 
L 47.609375 0 
L 37.796875 0 
L 37.796875 17.1875 
L 4.890625 17.1875 
L 4.890625 26.703125 
z
" id="DejaVuSans-52"/>
       </defs>
       <use xlink:href="#DejaVuSans-52"/>
      </g>
     </g>
    </g>
    <g id="ytick_4">
     <g id="line2d_4">
      <g>
       <use style="fill:#88aa00;stroke:#88aa00;stroke-width:0.8;" x="44.66" xlink:href="#m8951fe9487" y="137.305601"/>
      </g>
     </g>
     <g id="text_24">
      <!-- 6 -->
      <g style="fill:#88aa00;" transform="translate(31.2975 141.10482)scale(0.1 -0.1)">
       <defs>
        <path d="M 33.015625 40.375 
Q 26.375 40.375 22.484375 35.828125 
Q 18.609375 31.296875 18.609375 23.390625 
Q 18.609375 15.53125 22.484375 10.953125 
Q 26.375 6.390625 33.015625 6.390625 
Q 39.65625 6.390625 43.53125 10.953125 
Q 47.40625 15.53125 47.40625 23.390625 
Q 47.40625 31.296875 43.53125 35.828125 
Q 39.65625 40.375 33.015625 40.375 
z
M 52.59375 71.296875 
L 52.59375 62.3125 
Q 48.875 64.0625 45.09375 64.984375 
Q 41.3125 65.921875 37.59375 65.921875 
Q 27.828125 65.921875 22.671875 59.328125 
Q 17.53125 52.734375 16.796875 39.40625 
Q 19.671875 43.65625 24.015625 45.921875 
Q 28.375 48.1875 33.59375 48.1875 
Q 44.578125 48.1875 50.953125 41.515625 
Q 57.328125 34.859375 57.328125 23.390625 
Q 57.328125 12.15625 50.6875 5.359375 
Q 44.046875 -1.421875 33.015625 -1.421875 
Q 20.359375 -1.421875 13.671875 8.265625 
Q 6.984375 17.96875 6.984375 36.375 
Q 6.984375 53.65625 15.1875 63.9375 
Q 23.390625 74.21875 37.203125 74.21875 
Q 40.921875 74.21875 44.703125 73.484375 
Q 48.484375 72.75 52.59375 71.296875 
z
" id="DejaVuSans-54"/>
       </defs>
       <use xlink:href="#DejaVuSans-54"/>
      </g>
     </g>
    </g>
    <g id="ytick_5">
     <g id="line2d_5">
      <g>
       <use style="fill:#88aa00;stroke:#88aa00;stroke-width:0.8;" x="44.66" xlink:href="#m8951fe9487" y="108.367468"/>
      </g>
     </g>
     <g id="text_25">
      <!-- 8 -->
      <g style="fill:#88aa00;" transform="translate(31.2975 112.166687)scale(0.1 -0.1)">
       <defs>
        <path d="M 31.78125 34.625 
Q 24.75 34.625 20.71875 30.859375 
Q 16.703125 27.09375 16.703125 20.515625 
Q 16.703125 13.921875 20.71875 10.15625 
Q 24.75 6.390625 31.78125 6.390625 
Q 38.8125 6.390625 42.859375 10.171875 
Q 46.921875 13.96875 46.921875 20.515625 
Q 46.921875 27.09375 42.890625 30.859375 
Q 38.875 34.625 31.78125 34.625 
z
M 21.921875 38.8125 
Q 15.578125 40.375 12.03125 44.71875 
Q 8.5 49.078125 8.5 55.328125 
Q 8.5 64.0625 14.71875 69.140625 
Q 20.953125 74.21875 31.78125 74.21875 
Q 42.671875 74.21875 48.875 69.140625 
Q 55.078125 64.0625 55.078125 55.328125 
Q 55.078125 49.078125 51.53125 44.71875 
Q 48 40.375 41.703125 38.8125 
Q 48.828125 37.15625 52.796875 32.3125 
Q 56.78125 27.484375 56.78125 20.515625 
Q 56.78125 9.90625 50.3125 4.234375 
Q 43.84375 -1.421875 31.78125 -1.421875 
Q 19.734375 -1.421875 13.25 4.234375 
Q 6.78125 9.90625 6.78125 20.515625 
Q 6.78125 27.484375 10.78125 32.3125 
Q 14.796875 37.15625 21.921875 38.8125 
z
M 18.3125 54.390625 
Q 18.3125 48.734375 21.84375 45.5625 
Q 25.390625 42.390625 31.78125 42.390625 
Q 38.140625 42.390625 41.71875 45.5625 
Q 45.3125 48.734375 45.3125 54.390625 
Q 45.3125 60.0625 41.71875 63.234375 
Q 38.140625 66.40625 31.78125 66.40625 
Q 25.390625 66.40625 21.84375 63.234375 
Q 18.3125 60.0625 18.3125 54.390625 
z
" id="DejaVuSans-56"/>
       </defs>
       <use xlink:href="#DejaVuSans-56"/>
      </g>
     </g>
    </g>
    <g id="ytick_6">
     <g id="line2d_6">
      <g>
       <use style="fill:#88aa00;stroke:#88aa00;stroke-width:0.8;" x="44.66" xlink:href="#m8951fe9487" y="79.429335"/>
      </g>
     </g>
     <g id="text_26">
      <!-- 10 -->
      <g style="fill:#88aa00;" transform="translate(24.935 83.228554)scale(0.1 -0.1)">
       <defs>
        <path d="M 12.40625 8.296875 
L 28.515625 8.296875 
L 28.515625 63.921875 
L 10.984375 60.40625 
L 10.984375 69.390625 
L 28.421875 72.90625 
L 38.28125 72.90625 
L 38.28125 8.296875 
L 54.390625 8.296875 
L 54.390625 0 
L 12.40625 0 
z
" id="DejaVuSans-49"/>
       </defs>
       <use xlink:href="#DejaVuSans-49"/>
       <use x="63.623047" xlink:href="#DejaVuSans-48"/>
      </g>
     </g>
    </g>
    <g id="ytick_7">
     <g id="line2d_7">
      <g>
       <use style="fill:#88aa00;stroke:#88aa00;stroke-width:0.8;" x="44.66" xlink:href="#m8951fe9487" y="50.491202"/>
      </g>
     </g>
     <g id="text_27">
      <!-- 12 -->
      <g style="fill:#88aa00;" transform="translate(24.935 54.290421)scale(0.1 -0.1)">
       <use xlink:href="#DejaVuSans-49"/>
       <use x="63.623047" xlink:href="#DejaVuSans-50"/>
      </g>
     </g>
    </g>
    <g id="ytick_8">
     <g id="line2d_8">
      <g>
       <use style="fill:#88aa00;stroke:#88aa00;stroke-width:0.8;" x="44.66" xlink:href="#m8951fe9487" y="21.553069"/>
      </g>
     </g>
     <g id="text_28">
      <!-- 14 -->
      <g style="fill:#88aa00;" transform="translate(24.935 25.352288)scale(0.1 -0.1)">
       <use xlink:href="#DejaVuSans-49"/>
       <use x="63.623047" xlink:href="#DejaVuSans-52"/>
      </g>
     </g>
    </g>
    <g id="text_29">
     <!-- Relative AA abundance -->
     <g style="fill:#88aa00;" transform="translate(18.855312 175.588906)rotate(-90)scale(0.1 -0.1)">
      <defs>
       <path d="M 56.203125 29.59375 
L 56.203125 25.203125 
L 14.890625 25.203125 
Q 15.484375 15.921875 20.484375 11.0625 
Q 25.484375 6.203125 34.421875 6.203125 
Q 39.59375 6.203125 44.453125 7.46875 
Q 49.3125 8.734375 54.109375 11.28125 
L 54.109375 2.78125 
Q 49.265625 0.734375 44.1875 -0.34375 
Q 39.109375 -1.421875 33.890625 -1.421875 
Q 20.796875 -1.421875 13.15625 6.1875 
Q 5.515625 13.8125 5.515625 26.8125 
Q 5.515625 40.234375 12.765625 48.109375 
Q 20.015625 56 32.328125 56 
Q 43.359375 56 49.78125 48.890625 
Q 56.203125 41.796875 56.203125 29.59375 
z
M 47.21875 32.234375 
Q 47.125 39.59375 43.09375 43.984375 
Q 39.0625 48.390625 32.421875 48.390625 
Q 24.90625 48.390625 20.390625 44.140625 
Q 15.875 39.890625 15.1875 32.171875 
z
" id="DejaVuSans-101"/>
       <path d="M 9.421875 75.984375 
L 18.40625 75.984375 
L 18.40625 0 
L 9.421875 0 
z
" id="DejaVuSans-108"/>
       <path d="M 34.28125 27.484375 
Q 23.390625 27.484375 19.1875 25 
Q 14.984375 22.515625 14.984375 16.5 
Q 14.984375 11.71875 18.140625 8.90625 
Q 21.296875 6.109375 26.703125 6.109375 
Q 34.1875 6.109375 38.703125 11.40625 
Q 43.21875 16.703125 43.21875 25.484375 
L 43.21875 27.484375 
z
M 52.203125 31.203125 
L 52.203125 0 
L 43.21875 0 
L 43.21875 8.296875 
Q 40.140625 3.328125 35.546875 0.953125 
Q 30.953125 -1.421875 24.3125 -1.421875 
Q 15.921875 -1.421875 10.953125 3.296875 
Q 6 8.015625 6 15.921875 
Q 6 25.140625 12.171875 29.828125 
Q 18.359375 34.515625 30.609375 34.515625 
L 43.21875 34.515625 
L 43.21875 35.40625 
Q 43.21875 41.609375 39.140625 45 
Q 35.0625 48.390625 27.6875 48.390625 
Q 23 48.390625 18.546875 47.265625 
Q 14.109375 46.140625 10.015625 43.890625 
L 10.015625 52.203125 
Q 14.9375 54.109375 19.578125 55.046875 
Q 24.21875 56 28.609375 56 
Q 40.484375 56 46.34375 49.84375 
Q 52.203125 43.703125 52.203125 31.203125 
z
" id="DejaVuSans-97"/>
       <path d="M 18.3125 70.21875 
L 18.3125 54.6875 
L 36.8125 54.6875 
L 36.8125 47.703125 
L 18.3125 47.703125 
L 18.3125 18.015625 
Q 18.3125 11.328125 20.140625 9.421875 
Q 21.96875 7.515625 27.59375 7.515625 
L 36.8125 7.515625 
L 36.8125 0 
L 27.59375 0 
Q 17.1875 0 13.234375 3.875 
Q 9.28125 7.765625 9.28125 18.015625 
L 9.28125 47.703125 
L 2.6875 47.703125 
L 2.6875 54.6875 
L 9.28125 54.6875 
L 9.28125 70.21875 
z
" id="DejaVuSans-116"/>
       <path d="M 9.421875 54.6875 
L 18.40625 54.6875 
L 18.40625 0 
L 9.421875 0 
z
M 9.421875 75.984375 
L 18.40625 75.984375 
L 18.40625 64.59375 
L 9.421875 64.59375 
z
" id="DejaVuSans-105"/>
       <path d="M 2.984375 54.6875 
L 12.5 54.6875 
L 29.59375 8.796875 
L 46.6875 54.6875 
L 56.203125 54.6875 
L 35.6875 0 
L 23.484375 0 
z
" id="DejaVuSans-118"/>
       <path id="DejaVuSans-32"/>
       <path d="M 48.6875 27.296875 
Q 48.6875 37.203125 44.609375 42.84375 
Q 40.53125 48.484375 33.40625 48.484375 
Q 26.265625 48.484375 22.1875 42.84375 
Q 18.109375 37.203125 18.109375 27.296875 
Q 18.109375 17.390625 22.1875 11.75 
Q 26.265625 6.109375 33.40625 6.109375 
Q 40.53125 6.109375 44.609375 11.75 
Q 48.6875 17.390625 48.6875 27.296875 
z
M 18.109375 46.390625 
Q 20.953125 51.265625 25.265625 53.625 
Q 29.59375 56 35.59375 56 
Q 45.5625 56 51.78125 48.09375 
Q 58.015625 40.1875 58.015625 27.296875 
Q 58.015625 14.40625 51.78125 6.484375 
Q 45.5625 -1.421875 35.59375 -1.421875 
Q 29.59375 -1.421875 25.265625 0.953125 
Q 20.953125 3.328125 18.109375 8.203125 
L 18.109375 0 
L 9.078125 0 
L 9.078125 75.984375 
L 18.109375 75.984375 
z
" id="DejaVuSans-98"/>
       <path d="M 8.5 21.578125 
L 8.5 54.6875 
L 17.484375 54.6875 
L 17.484375 21.921875 
Q 17.484375 14.15625 20.5 10.265625 
Q 23.53125 6.390625 29.59375 6.390625 
Q 36.859375 6.390625 41.078125 11.03125 
Q 45.3125 15.671875 45.3125 23.6875 
L 45.3125 54.6875 
L 54.296875 54.6875 
L 54.296875 0 
L 45.3125 0 
L 45.3125 8.40625 
Q 42.046875 3.421875 37.71875 1 
Q 33.40625 -1.421875 27.6875 -1.421875 
Q 18.265625 -1.421875 13.375 4.4375 
Q 8.5 10.296875 8.5 21.578125 
z
M 31.109375 56 
z
" id="DejaVuSans-117"/>
       <path d="M 54.890625 33.015625 
L 54.890625 0 
L 45.90625 0 
L 45.90625 32.71875 
Q 45.90625 40.484375 42.875 44.328125 
Q 39.84375 48.1875 33.796875 48.1875 
Q 26.515625 48.1875 22.3125 43.546875 
Q 18.109375 38.921875 18.109375 30.90625 
L 18.109375 0 
L 9.078125 0 
L 9.078125 54.6875 
L 18.109375 54.6875 
L 18.109375 46.1875 
Q 21.34375 51.125 25.703125 53.5625 
Q 30.078125 56 35.796875 56 
Q 45.21875 56 50.046875 50.171875 
Q 54.890625 44.34375 54.890625 33.015625 
z
" id="DejaVuSans-110"/>
       <path d="M 45.40625 46.390625 
L 45.40625 75.984375 
L 54.390625 75.984375 
L 54.390625 0 
L 45.40625 0 
L 45.40625 8.203125 
Q 42.578125 3.328125 38.25 0.953125 
Q 33.9375 -1.421875 27.875 -1.421875 
Q 17.96875 -1.421875 11.734375 6.484375 
Q 5.515625 14.40625 5.515625 27.296875 
Q 5.515625 40.1875 11.734375 48.09375 
Q 17.96875 56 27.875 56 
Q 33.9375 56 38.25 53.625 
Q 42.578125 51.265625 45.40625 46.390625 
z
M 14.796875 27.296875 
Q 14.796875 17.390625 18.875 11.75 
Q 22.953125 6.109375 30.078125 6.109375 
Q 37.203125 6.109375 41.296875 11.75 
Q 45.40625 17.390625 45.40625 27.296875 
Q 45.40625 37.203125 41.296875 42.84375 
Q 37.203125 48.484375 30.078125 48.484375 
Q 22.953125 48.484375 18.875 42.84375 
Q 14.796875 37.203125 14.796875 27.296875 
z
" id="DejaVuSans-100"/>
       <path d="M 48.78125 52.59375 
L 48.78125 44.1875 
Q 44.96875 46.296875 41.140625 47.34375 
Q 37.3125 48.390625 33.40625 48.390625 
Q 24.65625 48.390625 19.8125 42.84375 
Q 14.984375 37.3125 14.984375 27.296875 
Q 14.984375 17.28125 19.8125 11.734375 
Q 24.65625 6.203125 33.40625 6.203125 
Q 37.3125 6.203125 41.140625 7.25 
Q 44.96875 8.296875 48.78125 10.40625 
L 48.78125 2.09375 
Q 45.015625 0.34375 40.984375 -0.53125 
Q 36.96875 -1.421875 32.421875 -1.421875 
Q 20.0625 -1.421875 12.78125 6.34375 
Q 5.515625 14.109375 5.515625 27.296875 
Q 5.515625 40.671875 12.859375 48.328125 
Q 20.21875 56 33.015625 56 
Q 37.15625 56 41.109375 55.140625 
Q 45.0625 54.296875 48.78125 52.59375 
z
" id="DejaVuSans-99"/>
      </defs>
      <use xlink:href="#DejaVuSans-82"/>
      <use x="64.982422" xlink:href="#DejaVuSans-101"/>
      <use x="126.505859" xlink:href="#DejaVuSans-108"/>
      <use x="154.289062" xlink:href="#DejaVuSans-97"/>
      <use x="215.568359" xlink:href="#DejaVuSans-116"/>
      <use x="254.777344" xlink:href="#DejaVuSans-105"/>
      <use x="282.560547" xlink:href="#DejaVuSans-118"/>
      <use x="341.740234" xlink:href="#DejaVuSans-101"/>
      <use x="403.263672" xlink:href="#DejaVuSans-32"/>
      <use x="435.050781" xlink:href="#DejaVuSans-65"/>
      <use x="506.208984" xlink:href="#DejaVuSans-65"/>
      <use x="574.617188" xlink:href="#DejaVuSans-32"/>
      <use x="606.404297" xlink:href="#DejaVuSans-97"/>
      <use x="667.683594" xlink:href="#DejaVuSans-98"/>
      <use x="731.160156" xlink:href="#DejaVuSans-117"/>
      <use x="794.539062" xlink:href="#DejaVuSans-110"/>
      <use x="857.917969" xlink:href="#DejaVuSans-100"/>
      <use x="921.394531" xlink:href="#DejaVuSans-97"/>
      <use x="982.673828" xlink:href="#DejaVuSans-110"/>
      <use x="1046.052734" xlink:href="#DejaVuSans-99"/>
      <use x="1101.033203" xlink:href="#DejaVuSans-101"/>
     </g>
    </g>
   </g>
   <g id="patch_3">
    <path clip-path="url(#p57d85f0660)" d="M 63.786476 224.12 
L 68.568095 224.12 
L 68.568095 215.329341 
L 63.786476 215.329341 
z
" style="fill:#88aa00;"/>
   </g>
   <g id="patch_4">
    <path clip-path="url(#p57d85f0660)" d="M 87.694571 224.12 
L 92.47619 224.12 
L 92.47619 210.351497 
L 87.694571 210.351497 
z
" style="fill:#88aa00;"/>
   </g>
   <g id="patch_5">
    <path clip-path="url(#p57d85f0660)" d="M 111.602667 224.12 
L 116.384286 224.12 
L 116.384286 209.733662 
L 111.602667 209.733662 
z
" style="fill:#88aa00;"/>
   </g>
   <g id="patch_6">
    <path clip-path="url(#p57d85f0660)" d="M 135.510762 224.12 
L 140.292381 224.12 
L 140.292381 71.748571 
L 135.510762 71.748571 
z
" style="fill:#88aa00;"/>
   </g>
   <g id="patch_7">
    <path clip-path="url(#p57d85f0660)" d="M 159.418857 224.12 
L 164.200476 224.12 
L 164.200476 213.440692 
L 159.418857 213.440692 
z
" style="fill:#88aa00;"/>
   </g>
   <g id="patch_8">
    <path clip-path="url(#p57d85f0660)" d="M 183.326952 224.12 
L 188.108571 224.12 
L 188.108571 211.215817 
L 183.326952 211.215817 
z
" style="fill:#88aa00;"/>
   </g>
   <g id="patch_9">
    <path clip-path="url(#p57d85f0660)" d="M 207.235048 224.12 
L 212.016667 224.12 
L 212.016667 209.175879 
L 207.235048 209.175879 
z
" style="fill:#88aa00;"/>
   </g>
   <g id="patch_10">
    <path clip-path="url(#p57d85f0660)" d="M 231.143143 224.12 
L 235.924762 224.12 
L 235.924762 216.040771 
L 231.143143 216.040771 
z
" style="fill:#88aa00;"/>
   </g>
   <g id="patch_11">
    <path clip-path="url(#p57d85f0660)" d="M 255.051238 224.12 
L 259.832857 224.12 
L 259.832857 206.388111 
L 255.051238 206.388111 
z
" style="fill:#88aa00;"/>
   </g>
   <g id="patch_12">
    <path clip-path="url(#p57d85f0660)" d="M 278.959333 224.12 
L 283.740952 224.12 
L 283.740952 220.201878 
L 278.959333 220.201878 
z
" style="fill:#88aa00;"/>
   </g>
   <g id="patch_13">
    <path clip-path="url(#p57d85f0660)" d="M 302.867429 224.12 
L 307.649048 224.12 
L 307.649048 210.228894 
L 302.867429 210.228894 
z
" style="fill:#88aa00;"/>
   </g>
   <g id="patch_14">
    <path clip-path="url(#p57d85f0660)" d="M 326.775524 224.12 
L 331.557143 224.12 
L 331.557143 209.572604 
L 326.775524 209.572604 
z
" style="fill:#88aa00;"/>
   </g>
   <g id="patch_15">
    <path clip-path="url(#p57d85f0660)" d="M 350.683619 224.12 
L 355.465238 224.12 
L 355.465238 212.032843 
L 350.683619 212.032843 
z
" style="fill:#88aa00;"/>
   </g>
   <g id="patch_16">
    <path clip-path="url(#p57d85f0660)" d="M 374.591714 224.12 
L 379.373333 224.12 
L 379.373333 209.531246 
L 374.591714 209.531246 
z
" style="fill:#88aa00;"/>
   </g>
   <g id="patch_17">
    <path clip-path="url(#p57d85f0660)" d="M 398.49981 224.12 
L 403.281429 224.12 
L 403.281429 210.962368 
L 398.49981 210.962368 
z
" style="fill:#88aa00;"/>
   </g>
   <g id="patch_18">
    <path clip-path="url(#p57d85f0660)" d="M 422.407905 224.12 
L 427.189524 224.12 
L 427.189524 211.131882 
L 422.407905 211.131882 
z
" style="fill:#88aa00;"/>
   </g>
   <g id="patch_19">
    <path clip-path="url(#p57d85f0660)" d="M 446.316 224.12 
L 451.097619 224.12 
L 451.097619 205.556275 
L 446.316 205.556275 
z
" style="fill:#88aa00;"/>
   </g>
   <g id="patch_20">
    <path clip-path="url(#p57d85f0660)" d="M 470.224095 224.12 
L 475.005714 224.12 
L 475.005714 209.82836 
L 470.224095 209.82836 
z
" style="fill:#88aa00;"/>
   </g>
   <g id="patch_21">
    <path clip-path="url(#p57d85f0660)" d="M 494.13219 224.12 
L 498.91381 224.12 
L 498.91381 210.537176 
L 494.13219 210.537176 
z
" style="fill:#88aa00;"/>
   </g>
   <g id="patch_22">
    <path clip-path="url(#p57d85f0660)" d="M 518.040286 224.12 
L 522.821905 224.12 
L 522.821905 200.104938 
L 518.040286 200.104938 
z
" style="fill:#88aa00;"/>
   </g>
   <g id="LineCollection_1">
    <path clip-path="url(#p57d85f0660)" d="M 66.177286 219.085644 
L 66.177286 211.573037 
" style="fill:none;stroke:#000000;stroke-width:1.5;"/>
    <path clip-path="url(#p57d85f0660)" d="M 90.085381 211.930195 
L 90.085381 208.7728 
" style="fill:none;stroke:#000000;stroke-width:1.5;"/>
    <path clip-path="url(#p57d85f0660)" d="M 113.993476 211.580766 
L 113.993476 207.886559 
" style="fill:none;stroke:#000000;stroke-width:1.5;"/>
    <path clip-path="url(#p57d85f0660)" d="M 137.901571 144.304701 
L 137.901571 -0.807558 
" style="fill:none;stroke:#000000;stroke-width:1.5;"/>
    <path clip-path="url(#p57d85f0660)" d="M 161.809667 214.603725 
L 161.809667 212.27766 
" style="fill:none;stroke:#000000;stroke-width:1.5;"/>
    <path clip-path="url(#p57d85f0660)" d="M 185.717762 212.637623 
L 185.717762 209.794011 
" style="fill:none;stroke:#000000;stroke-width:1.5;"/>
    <path clip-path="url(#p57d85f0660)" d="M 209.625857 210.704601 
L 209.625857 207.647157 
" style="fill:none;stroke:#000000;stroke-width:1.5;"/>
    <path clip-path="url(#p57d85f0660)" d="M 233.533952 217.009488 
L 233.533952 215.072053 
" style="fill:none;stroke:#000000;stroke-width:1.5;"/>
    <path clip-path="url(#p57d85f0660)" d="M 257.442048 208.294356 
L 257.442048 204.481865 
" style="fill:none;stroke:#000000;stroke-width:1.5;"/>
    <path clip-path="url(#p57d85f0660)" d="M 281.350143 222.285577 
L 281.350143 218.118178 
" style="fill:none;stroke:#000000;stroke-width:1.5;"/>
    <path clip-path="url(#p57d85f0660)" d="M 305.258238 212.097817 
L 305.258238 208.359972 
" style="fill:none;stroke:#000000;stroke-width:1.5;"/>
    <path clip-path="url(#p57d85f0660)" d="M 329.166333 210.694959 
L 329.166333 208.45025 
" style="fill:none;stroke:#000000;stroke-width:1.5;"/>
    <path clip-path="url(#p57d85f0660)" d="M 353.074429 213.964926 
L 353.074429 210.100761 
" style="fill:none;stroke:#000000;stroke-width:1.5;"/>
    <path clip-path="url(#p57d85f0660)" d="M 376.982524 210.553881 
L 376.982524 208.508611 
" style="fill:none;stroke:#000000;stroke-width:1.5;"/>
    <path clip-path="url(#p57d85f0660)" d="M 400.890619 212.570488 
L 400.890619 209.354248 
" style="fill:none;stroke:#000000;stroke-width:1.5;"/>
    <path clip-path="url(#p57d85f0660)" d="M 424.798714 212.690398 
L 424.798714 209.573366 
" style="fill:none;stroke:#000000;stroke-width:1.5;"/>
    <path clip-path="url(#p57d85f0660)" d="M 448.70681 207.507435 
L 448.70681 203.605115 
" style="fill:none;stroke:#000000;stroke-width:1.5;"/>
    <path clip-path="url(#p57d85f0660)" d="M 472.614905 211.155871 
L 472.614905 208.500849 
" style="fill:none;stroke:#000000;stroke-width:1.5;"/>
    <path clip-path="url(#p57d85f0660)" d="M 496.523 212.359108 
L 496.523 208.715243 
" style="fill:none;stroke:#000000;stroke-width:1.5;"/>
    <path clip-path="url(#p57d85f0660)" d="M 520.431095 201.171692 
L 520.431095 199.038184 
" style="fill:none;stroke:#000000;stroke-width:1.5;"/>
   </g>
   <g id="LineCollection_2">
    <path clip-path="url(#p57d85f0660)" d="M 44.66 209.650934 
L 546.73 209.650934 
" style="fill:none;stroke:#006688;stroke-dasharray:5.55,2.4;stroke-dashoffset:0;stroke-width:1.5;"/>
   </g>
   <g id="patch_23">
    <path d="M 44.66 224.12 
L 44.66 10.8 
" style="fill:none;stroke:#88aa00;stroke-linecap:square;stroke-linejoin:miter;stroke-width:0.8;"/>
   </g>
   <g id="patch_24">
    <path d="M 546.73 224.12 
L 546.73 10.8 
" style="fill:none;stroke:#ff6600;stroke-linecap:square;stroke-linejoin:miter;stroke-width:0.8;"/>
   </g>
   <g id="patch_25">
    <path d="M 44.66 224.12 
L 546.73 224.12 
" style="fill:none;stroke:#262626;stroke-linecap:square;stroke-linejoin:miter;stroke-width:0.8;"/>
   </g>
   <g id="patch_26">
    <path d="M 44.66 10.8 
L 546.73 10.8 
" style="fill:none;stroke:#262626;stroke-linecap:square;stroke-linejoin:miter;stroke-width:0.8;"/>
   </g>
  </g>
  <g id="axes_2">
   <g id="matplotlib.axis_3">
    <g id="ytick_9">
     <g id="line2d_9">
      <defs>
       <path d="M 0 0 
L 3.5 0 
" id="m117417a9cd" style="stroke:#ff6600;stroke-width:0.8;"/>
      </defs>
      <g>
       <use style="fill:#ff6600;stroke:#ff6600;stroke-width:0.8;" x="546.73" xlink:href="#m117417a9cd" y="224.12"/>
      </g>
     </g>
     <g id="text_30">
      <!-- 0 -->
      <g style="fill:#ff6600;" transform="translate(553.73 227.919219)scale(0.1 -0.1)">
       <use xlink:href="#DejaVuSans-48"/>
      </g>
     </g>
    </g>
    <g id="ytick_10">
     <g id="line2d_10">
      <g>
       <use style="fill:#ff6600;stroke:#ff6600;stroke-width:0.8;" x="546.73" xlink:href="#m117417a9cd" y="189.9888"/>
      </g>
     </g>
     <g id="text_31">
      <!-- 20 -->
      <g style="fill:#ff6600;" transform="translate(553.73 193.788019)scale(0.1 -0.1)">
       <use xlink:href="#DejaVuSans-50"/>
       <use x="63.623047" xlink:href="#DejaVuSans-48"/>
      </g>
     </g>
    </g>
    <g id="ytick_11">
     <g id="line2d_11">
      <g>
       <use style="fill:#ff6600;stroke:#ff6600;stroke-width:0.8;" x="546.73" xlink:href="#m117417a9cd" y="155.8576"/>
      </g>
     </g>
     <g id="text_32">
      <!-- 40 -->
      <g style="fill:#ff6600;" transform="translate(553.73 159.656819)scale(0.1 -0.1)">
       <use xlink:href="#DejaVuSans-52"/>
       <use x="63.623047" xlink:href="#DejaVuSans-48"/>
      </g>
     </g>
    </g>
    <g id="ytick_12">
     <g id="line2d_12">
      <g>
       <use style="fill:#ff6600;stroke:#ff6600;stroke-width:0.8;" x="546.73" xlink:href="#m117417a9cd" y="121.7264"/>
      </g>
     </g>
     <g id="text_33">
      <!-- 60 -->
      <g style="fill:#ff6600;" transform="translate(553.73 125.525619)scale(0.1 -0.1)">
       <use xlink:href="#DejaVuSans-54"/>
       <use x="63.623047" xlink:href="#DejaVuSans-48"/>
      </g>
     </g>
    </g>
    <g id="ytick_13">
     <g id="line2d_13">
      <g>
       <use style="fill:#ff6600;stroke:#ff6600;stroke-width:0.8;" x="546.73" xlink:href="#m117417a9cd" y="87.5952"/>
      </g>
     </g>
     <g id="text_34">
      <!-- 80 -->
      <g style="fill:#ff6600;" transform="translate(553.73 91.394419)scale(0.1 -0.1)">
       <use xlink:href="#DejaVuSans-56"/>
       <use x="63.623047" xlink:href="#DejaVuSans-48"/>
      </g>
     </g>
    </g>
    <g id="ytick_14">
     <g id="line2d_14">
      <g>
       <use style="fill:#ff6600;stroke:#ff6600;stroke-width:0.8;" x="546.73" xlink:href="#m117417a9cd" y="53.464"/>
      </g>
     </g>
     <g id="text_35">
      <!-- 100 -->
      <g style="fill:#ff6600;" transform="translate(553.73 57.263219)scale(0.1 -0.1)">
       <use xlink:href="#DejaVuSans-49"/>
       <use x="63.623047" xlink:href="#DejaVuSans-48"/>
       <use x="127.246094" xlink:href="#DejaVuSans-48"/>
      </g>
     </g>
    </g>
    <g id="text_36">
     <!-- Peptides with AA, % -->
     <g style="fill:#ff6600;" transform="translate(584.415938 167.44125)rotate(-90)scale(0.1 -0.1)">
      <defs>
       <path d="M 18.109375 8.203125 
L 18.109375 -20.796875 
L 9.078125 -20.796875 
L 9.078125 54.6875 
L 18.109375 54.6875 
L 18.109375 46.390625 
Q 20.953125 51.265625 25.265625 53.625 
Q 29.59375 56 35.59375 56 
Q 45.5625 56 51.78125 48.09375 
Q 58.015625 40.1875 58.015625 27.296875 
Q 58.015625 14.40625 51.78125 6.484375 
Q 45.5625 -1.421875 35.59375 -1.421875 
Q 29.59375 -1.421875 25.265625 0.953125 
Q 20.953125 3.328125 18.109375 8.203125 
z
M 48.6875 27.296875 
Q 48.6875 37.203125 44.609375 42.84375 
Q 40.53125 48.484375 33.40625 48.484375 
Q 26.265625 48.484375 22.1875 42.84375 
Q 18.109375 37.203125 18.109375 27.296875 
Q 18.109375 17.390625 22.1875 11.75 
Q 26.265625 6.109375 33.40625 6.109375 
Q 40.53125 6.109375 44.609375 11.75 
Q 48.6875 17.390625 48.6875 27.296875 
z
" id="DejaVuSans-112"/>
       <path d="M 44.28125 53.078125 
L 44.28125 44.578125 
Q 40.484375 46.53125 36.375 47.5 
Q 32.28125 48.484375 27.875 48.484375 
Q 21.1875 48.484375 17.84375 46.4375 
Q 14.5 44.390625 14.5 40.28125 
Q 14.5 37.15625 16.890625 35.375 
Q 19.28125 33.59375 26.515625 31.984375 
L 29.59375 31.296875 
Q 39.15625 29.25 43.1875 25.515625 
Q 47.21875 21.78125 47.21875 15.09375 
Q 47.21875 7.46875 41.1875 3.015625 
Q 35.15625 -1.421875 24.609375 -1.421875 
Q 20.21875 -1.421875 15.453125 -0.5625 
Q 10.6875 0.296875 5.421875 2 
L 5.421875 11.28125 
Q 10.40625 8.6875 15.234375 7.390625 
Q 20.0625 6.109375 24.8125 6.109375 
Q 31.15625 6.109375 34.5625 8.28125 
Q 37.984375 10.453125 37.984375 14.40625 
Q 37.984375 18.0625 35.515625 20.015625 
Q 33.0625 21.96875 24.703125 23.78125 
L 21.578125 24.515625 
Q 13.234375 26.265625 9.515625 29.90625 
Q 5.8125 33.546875 5.8125 39.890625 
Q 5.8125 47.609375 11.28125 51.796875 
Q 16.75 56 26.8125 56 
Q 31.78125 56 36.171875 55.265625 
Q 40.578125 54.546875 44.28125 53.078125 
z
" id="DejaVuSans-115"/>
       <path d="M 4.203125 54.6875 
L 13.1875 54.6875 
L 24.421875 12.015625 
L 35.59375 54.6875 
L 46.1875 54.6875 
L 57.421875 12.015625 
L 68.609375 54.6875 
L 77.59375 54.6875 
L 63.28125 0 
L 52.6875 0 
L 40.921875 44.828125 
L 29.109375 0 
L 18.5 0 
z
" id="DejaVuSans-119"/>
       <path d="M 54.890625 33.015625 
L 54.890625 0 
L 45.90625 0 
L 45.90625 32.71875 
Q 45.90625 40.484375 42.875 44.328125 
Q 39.84375 48.1875 33.796875 48.1875 
Q 26.515625 48.1875 22.3125 43.546875 
Q 18.109375 38.921875 18.109375 30.90625 
L 18.109375 0 
L 9.078125 0 
L 9.078125 75.984375 
L 18.109375 75.984375 
L 18.109375 46.1875 
Q 21.34375 51.125 25.703125 53.5625 
Q 30.078125 56 35.796875 56 
Q 45.21875 56 50.046875 50.171875 
Q 54.890625 44.34375 54.890625 33.015625 
z
" id="DejaVuSans-104"/>
       <path d="M 11.71875 12.40625 
L 22.015625 12.40625 
L 22.015625 4 
L 14.015625 -11.625 
L 7.71875 -11.625 
L 11.71875 4 
z
" id="DejaVuSans-44"/>
       <path d="M 72.703125 32.078125 
Q 68.453125 32.078125 66.03125 28.46875 
Q 63.625 24.859375 63.625 18.40625 
Q 63.625 12.0625 66.03125 8.421875 
Q 68.453125 4.78125 72.703125 4.78125 
Q 76.859375 4.78125 79.265625 8.421875 
Q 81.6875 12.0625 81.6875 18.40625 
Q 81.6875 24.8125 79.265625 28.4375 
Q 76.859375 32.078125 72.703125 32.078125 
z
M 72.703125 38.28125 
Q 80.421875 38.28125 84.953125 32.90625 
Q 89.5 27.546875 89.5 18.40625 
Q 89.5 9.28125 84.9375 3.921875 
Q 80.375 -1.421875 72.703125 -1.421875 
Q 64.890625 -1.421875 60.34375 3.921875 
Q 55.8125 9.28125 55.8125 18.40625 
Q 55.8125 27.59375 60.375 32.9375 
Q 64.9375 38.28125 72.703125 38.28125 
z
M 22.3125 68.015625 
Q 18.109375 68.015625 15.6875 64.375 
Q 13.28125 60.75 13.28125 54.390625 
Q 13.28125 47.953125 15.671875 44.328125 
Q 18.0625 40.71875 22.3125 40.71875 
Q 26.5625 40.71875 28.96875 44.328125 
Q 31.390625 47.953125 31.390625 54.390625 
Q 31.390625 60.6875 28.953125 64.34375 
Q 26.515625 68.015625 22.3125 68.015625 
z
M 66.40625 74.21875 
L 74.21875 74.21875 
L 28.609375 -1.421875 
L 20.796875 -1.421875 
z
M 22.3125 74.21875 
Q 30.03125 74.21875 34.609375 68.875 
Q 39.203125 63.53125 39.203125 54.390625 
Q 39.203125 45.171875 34.640625 39.84375 
Q 30.078125 34.515625 22.3125 34.515625 
Q 14.546875 34.515625 10.03125 39.859375 
Q 5.515625 45.21875 5.515625 54.390625 
Q 5.515625 63.484375 10.046875 68.84375 
Q 14.59375 74.21875 22.3125 74.21875 
z
" id="DejaVuSans-37"/>
      </defs>
      <use xlink:href="#DejaVuSans-80"/>
      <use x="56.677734" xlink:href="#DejaVuSans-101"/>
      <use x="118.201172" xlink:href="#DejaVuSans-112"/>
      <use x="181.677734" xlink:href="#DejaVuSans-116"/>
      <use x="220.886719" xlink:href="#DejaVuSans-105"/>
      <use x="248.669922" xlink:href="#DejaVuSans-100"/>
      <use x="312.146484" xlink:href="#DejaVuSans-101"/>
      <use x="373.669922" xlink:href="#DejaVuSans-115"/>
      <use x="425.769531" xlink:href="#DejaVuSans-32"/>
      <use x="457.556641" xlink:href="#DejaVuSans-119"/>
      <use x="539.34375" xlink:href="#DejaVuSans-105"/>
      <use x="567.126953" xlink:href="#DejaVuSans-116"/>
      <use x="606.335938" xlink:href="#DejaVuSans-104"/>
      <use x="669.714844" xlink:href="#DejaVuSans-32"/>
      <use x="701.501953" xlink:href="#DejaVuSans-65"/>
      <use x="772.660156" xlink:href="#DejaVuSans-65"/>
      <use x="841.068359" xlink:href="#DejaVuSans-44"/>
      <use x="872.855469" xlink:href="#DejaVuSans-32"/>
      <use x="904.642578" xlink:href="#DejaVuSans-37"/>
     </g>
    </g>
   </g>
   <g id="patch_27">
    <path clip-path="url(#p57d85f0660)" d="M 68.568095 224.12 
L 73.349714 224.12 
L 73.349714 217.29376 
L 68.568095 217.29376 
z
" style="fill:#ff6600;"/>
   </g>
   <g id="patch_28">
    <path clip-path="url(#p57d85f0660)" d="M 92.47619 224.12 
L 97.25781 224.12 
L 97.25781 145.61824 
L 92.47619 145.61824 
z
" style="fill:#ff6600;"/>
   </g>
   <g id="patch_29">
    <path clip-path="url(#p57d85f0660)" d="M 116.384286 224.12 
L 121.165905 224.12 
L 121.165905 160.97728 
L 116.384286 160.97728 
z
" style="fill:#ff6600;"/>
   </g>
   <g id="patch_30">
    <path clip-path="url(#p57d85f0660)" d="M 140.292381 224.12 
L 145.074 224.12 
L 145.074 222.41344 
L 140.292381 222.41344 
z
" style="fill:#ff6600;"/>
   </g>
   <g id="patch_31">
    <path clip-path="url(#p57d85f0660)" d="M 164.200476 224.12 
L 168.982095 224.12 
L 168.982095 130.2592 
L 164.200476 130.2592 
z
" style="fill:#ff6600;"/>
   </g>
   <g id="patch_32">
    <path clip-path="url(#p57d85f0660)" d="M 188.108571 224.12 
L 192.89019 224.12 
L 192.89019 152.44448 
L 188.108571 152.44448 
z
" style="fill:#ff6600;"/>
   </g>
   <g id="patch_33">
    <path clip-path="url(#p57d85f0660)" d="M 212.016667 224.12 
L 216.798286 224.12 
L 216.798286 140.49856 
L 212.016667 140.49856 
z
" style="fill:#ff6600;"/>
   </g>
   <g id="patch_34">
    <path clip-path="url(#p57d85f0660)" d="M 235.924762 224.12 
L 240.706381 224.12 
L 240.706381 167.80352 
L 235.924762 167.80352 
z
" style="fill:#ff6600;"/>
   </g>
   <g id="patch_35">
    <path clip-path="url(#p57d85f0660)" d="M 259.832857 224.12 
L 264.614476 224.12 
L 264.614476 123.43296 
L 259.832857 123.43296 
z
" style="fill:#ff6600;"/>
   </g>
   <g id="patch_36">
    <path clip-path="url(#p57d85f0660)" d="M 283.740952 224.12 
L 288.522571 224.12 
L 288.522571 220.70688 
L 283.740952 220.70688 
z
" style="fill:#ff6600;"/>
   </g>
   <g id="patch_37">
    <path clip-path="url(#p57d85f0660)" d="M 307.649048 224.12 
L 312.430667 224.12 
L 312.430667 172.9232 
L 307.649048 172.9232 
z
" style="fill:#ff6600;"/>
   </g>
   <g id="patch_38">
    <path clip-path="url(#p57d85f0660)" d="M 331.557143 224.12 
L 336.338762 224.12 
L 336.338762 116.60672 
L 331.557143 116.60672 
z
" style="fill:#ff6600;"/>
   </g>
   <g id="patch_39">
    <path clip-path="url(#p57d85f0660)" d="M 355.465238 224.12 
L 360.246857 224.12 
L 360.246857 162.68384 
L 355.465238 162.68384 
z
" style="fill:#ff6600;"/>
   </g>
   <g id="patch_40">
    <path clip-path="url(#p57d85f0660)" d="M 379.373333 224.12 
L 384.154952 224.12 
L 384.154952 113.1936 
L 379.373333 113.1936 
z
" style="fill:#ff6600;"/>
   </g>
   <g id="patch_41">
    <path clip-path="url(#p57d85f0660)" d="M 403.281429 224.12 
L 408.063048 224.12 
L 408.063048 160.97728 
L 403.281429 160.97728 
z
" style="fill:#ff6600;"/>
   </g>
   <g id="patch_42">
    <path clip-path="url(#p57d85f0660)" d="M 427.189524 224.12 
L 431.971143 224.12 
L 431.971143 143.91168 
L 427.189524 143.91168 
z
" style="fill:#ff6600;"/>
   </g>
   <g id="patch_43">
    <path clip-path="url(#p57d85f0660)" d="M 451.097619 224.12 
L 455.879238 224.12 
L 455.879238 113.1936 
L 451.097619 113.1936 
z
" style="fill:#ff6600;"/>
   </g>
   <g id="patch_44">
    <path clip-path="url(#p57d85f0660)" d="M 475.005714 224.12 
L 479.787333 224.12 
L 479.787333 121.7264 
L 475.005714 121.7264 
z
" style="fill:#ff6600;"/>
   </g>
   <g id="patch_45">
    <path clip-path="url(#p57d85f0660)" d="M 498.91381 224.12 
L 503.695429 224.12 
L 503.695429 145.61824 
L 498.91381 145.61824 
z
" style="fill:#ff6600;"/>
   </g>
   <g id="patch_46">
    <path clip-path="url(#p57d85f0660)" d="M 522.821905 224.12 
L 527.603524 224.12 
L 527.603524 61.9968 
L 522.821905 61.9968 
z
" style="fill:#ff6600;"/>
   </g>
   <g id="patch_47">
    <path d="M 44.66 224.12 
L 44.66 10.8 
" style="fill:none;stroke:#88aa00;stroke-linecap:square;stroke-linejoin:miter;stroke-width:0.8;"/>
   </g>
   <g id="patch_48">
    <path d="M 546.73 224.12 
L 546.73 10.8 
" style="fill:none;stroke:#ff6600;stroke-linecap:square;stroke-linejoin:miter;stroke-width:0.8;"/>
   </g>
   <g id="patch_49">
    <path d="M 44.66 224.12 
L 546.73 224.12 
" style="fill:none;stroke:#262626;stroke-linecap:square;stroke-linejoin:miter;stroke-width:0.8;"/>
   </g>
   <g id="patch_50">
    <path d="M 44.66 10.8 
L 546.73 10.8 
" style="fill:none;stroke:#262626;stroke-linecap:square;stroke-linejoin:miter;stroke-width:0.8;"/>
   </g>
   <g id="legend_1">
    <g id="patch_51">
     <path d="M 408.350313 55.87375 
L 539.73 55.87375 
Q 541.73 55.87375 541.73 53.87375 
L 541.73 17.8 
Q 541.73 15.8 539.73 15.8 
L 408.350313 15.8 
Q 406.350313 15.8 406.350313 17.8 
L 406.350313 53.87375 
Q 406.350313 55.87375 408.350313 55.87375 
z
" style="fill:#ffffff;opacity:0.8;stroke:#696969;stroke-linejoin:miter;"/>
    </g>
    <g id="line2d_15">
     <path d="M 410.350313 36.136094 
L 410.350313 36.136094 
" style="fill:none;stroke:#1f77b4;stroke-linecap:round;stroke-opacity:0;stroke-width:1.5;"/>
    </g>
    <g id="line2d_16"/>
    <g id="text_37">
     <!-- -16.0284 Da mass shift, -->
     <g style="fill:#262626;" transform="translate(418.350313 27.398438)scale(0.1 -0.1)">
      <defs>
       <path d="M 4.890625 31.390625 
L 31.203125 31.390625 
L 31.203125 23.390625 
L 4.890625 23.390625 
z
" id="DejaVuSans-45"/>
       <path d="M 10.6875 12.40625 
L 21 12.40625 
L 21 0 
L 10.6875 0 
z
" id="DejaVuSans-46"/>
       <path d="M 52 44.1875 
Q 55.375 50.25 60.0625 53.125 
Q 64.75 56 71.09375 56 
Q 79.640625 56 84.28125 50.015625 
Q 88.921875 44.046875 88.921875 33.015625 
L 88.921875 0 
L 79.890625 0 
L 79.890625 32.71875 
Q 79.890625 40.578125 77.09375 44.375 
Q 74.3125 48.1875 68.609375 48.1875 
Q 61.625 48.1875 57.5625 43.546875 
Q 53.515625 38.921875 53.515625 30.90625 
L 53.515625 0 
L 44.484375 0 
L 44.484375 32.71875 
Q 44.484375 40.625 41.703125 44.40625 
Q 38.921875 48.1875 33.109375 48.1875 
Q 26.21875 48.1875 22.15625 43.53125 
Q 18.109375 38.875 18.109375 30.90625 
L 18.109375 0 
L 9.078125 0 
L 9.078125 54.6875 
L 18.109375 54.6875 
L 18.109375 46.1875 
Q 21.1875 51.21875 25.484375 53.609375 
Q 29.78125 56 35.6875 56 
Q 41.65625 56 45.828125 52.96875 
Q 50 49.953125 52 44.1875 
z
" id="DejaVuSans-109"/>
       <path d="M 37.109375 75.984375 
L 37.109375 68.5 
L 28.515625 68.5 
Q 23.6875 68.5 21.796875 66.546875 
Q 19.921875 64.59375 19.921875 59.515625 
L 19.921875 54.6875 
L 34.71875 54.6875 
L 34.71875 47.703125 
L 19.921875 47.703125 
L 19.921875 0 
L 10.890625 0 
L 10.890625 47.703125 
L 2.296875 47.703125 
L 2.296875 54.6875 
L 10.890625 54.6875 
L 10.890625 58.5 
Q 10.890625 67.625 15.140625 71.796875 
Q 19.390625 75.984375 28.609375 75.984375 
z
" id="DejaVuSans-102"/>
      </defs>
      <use xlink:href="#DejaVuSans-45"/>
      <use x="36.083984" xlink:href="#DejaVuSans-49"/>
      <use x="99.707031" xlink:href="#DejaVuSans-54"/>
      <use x="163.330078" xlink:href="#DejaVuSans-46"/>
      <use x="195.117188" xlink:href="#DejaVuSans-48"/>
      <use x="258.740234" xlink:href="#DejaVuSans-50"/>
      <use x="322.363281" xlink:href="#DejaVuSans-56"/>
      <use x="385.986328" xlink:href="#DejaVuSans-52"/>
      <use x="449.609375" xlink:href="#DejaVuSans-32"/>
      <use x="481.396484" xlink:href="#DejaVuSans-68"/>
      <use x="558.398438" xlink:href="#DejaVuSans-97"/>
      <use x="619.677734" xlink:href="#DejaVuSans-32"/>
      <use x="651.464844" xlink:href="#DejaVuSans-109"/>
      <use x="748.876953" xlink:href="#DejaVuSans-97"/>
      <use x="810.15625" xlink:href="#DejaVuSans-115"/>
      <use x="862.255859" xlink:href="#DejaVuSans-115"/>
      <use x="914.355469" xlink:href="#DejaVuSans-32"/>
      <use x="946.142578" xlink:href="#DejaVuSans-115"/>
      <use x="998.242188" xlink:href="#DejaVuSans-104"/>
      <use x="1061.621094" xlink:href="#DejaVuSans-105"/>
      <use x="1089.404297" xlink:href="#DejaVuSans-102"/>
      <use x="1122.859375" xlink:href="#DejaVuSans-116"/>
      <use x="1162.068359" xlink:href="#DejaVuSans-44"/>
     </g>
     <!-- 124 peptides -->
     <g style="fill:#262626;" transform="translate(418.350313 38.59625)scale(0.1 -0.1)">
      <use xlink:href="#DejaVuSans-49"/>
      <use x="63.623047" xlink:href="#DejaVuSans-50"/>
      <use x="127.246094" xlink:href="#DejaVuSans-52"/>
      <use x="190.869141" xlink:href="#DejaVuSans-32"/>
      <use x="222.65625" xlink:href="#DejaVuSans-112"/>
      <use x="286.132812" xlink:href="#DejaVuSans-101"/>
      <use x="347.65625" xlink:href="#DejaVuSans-112"/>
      <use x="411.132812" xlink:href="#DejaVuSans-116"/>
      <use x="450.341797" xlink:href="#DejaVuSans-105"/>
      <use x="478.125" xlink:href="#DejaVuSans-100"/>
      <use x="541.601562" xlink:href="#DejaVuSans-101"/>
      <use x="603.125" xlink:href="#DejaVuSans-115"/>
     </g>
     <!-- Not localized: 5 -->
     <g style="fill:#262626;" transform="translate(418.350313 49.794062)scale(0.1 -0.1)">
      <defs>
       <path d="M 30.609375 48.390625 
Q 23.390625 48.390625 19.1875 42.75 
Q 14.984375 37.109375 14.984375 27.296875 
Q 14.984375 17.484375 19.15625 11.84375 
Q 23.34375 6.203125 30.609375 6.203125 
Q 37.796875 6.203125 41.984375 11.859375 
Q 46.1875 17.53125 46.1875 27.296875 
Q 46.1875 37.015625 41.984375 42.703125 
Q 37.796875 48.390625 30.609375 48.390625 
z
M 30.609375 56 
Q 42.328125 56 49.015625 48.375 
Q 55.71875 40.765625 55.71875 27.296875 
Q 55.71875 13.875 49.015625 6.21875 
Q 42.328125 -1.421875 30.609375 -1.421875 
Q 18.84375 -1.421875 12.171875 6.21875 
Q 5.515625 13.875 5.515625 27.296875 
Q 5.515625 40.765625 12.171875 48.375 
Q 18.84375 56 30.609375 56 
z
" id="DejaVuSans-111"/>
       <path d="M 5.515625 54.6875 
L 48.1875 54.6875 
L 48.1875 46.484375 
L 14.40625 7.171875 
L 48.1875 7.171875 
L 48.1875 0 
L 4.296875 0 
L 4.296875 8.203125 
L 38.09375 47.515625 
L 5.515625 47.515625 
z
" id="DejaVuSans-122"/>
       <path d="M 11.71875 12.40625 
L 22.015625 12.40625 
L 22.015625 0 
L 11.71875 0 
z
M 11.71875 51.703125 
L 22.015625 51.703125 
L 22.015625 39.3125 
L 11.71875 39.3125 
z
" id="DejaVuSans-58"/>
       <path d="M 10.796875 72.90625 
L 49.515625 72.90625 
L 49.515625 64.59375 
L 19.828125 64.59375 
L 19.828125 46.734375 
Q 21.96875 47.46875 24.109375 47.828125 
Q 26.265625 48.1875 28.421875 48.1875 
Q 40.625 48.1875 47.75 41.5 
Q 54.890625 34.8125 54.890625 23.390625 
Q 54.890625 11.625 47.5625 5.09375 
Q 40.234375 -1.421875 26.90625 -1.421875 
Q 22.3125 -1.421875 17.546875 -0.640625 
Q 12.796875 0.140625 7.71875 1.703125 
L 7.71875 11.625 
Q 12.109375 9.234375 16.796875 8.0625 
Q 21.484375 6.890625 26.703125 6.890625 
Q 35.15625 6.890625 40.078125 11.328125 
Q 45.015625 15.765625 45.015625 23.390625 
Q 45.015625 31 40.078125 35.4375 
Q 35.15625 39.890625 26.703125 39.890625 
Q 22.75 39.890625 18.8125 39.015625 
Q 14.890625 38.140625 10.796875 36.28125 
z
" id="DejaVuSans-53"/>
      </defs>
      <use xlink:href="#DejaVuSans-78"/>
      <use x="74.804688" xlink:href="#DejaVuSans-111"/>
      <use x="135.986328" xlink:href="#DejaVuSans-116"/>
      <use x="175.195312" xlink:href="#DejaVuSans-32"/>
      <use x="206.982422" xlink:href="#DejaVuSans-108"/>
      <use x="234.765625" xlink:href="#DejaVuSans-111"/>
      <use x="295.947266" xlink:href="#DejaVuSans-99"/>
      <use x="350.927734" xlink:href="#DejaVuSans-97"/>
      <use x="412.207031" xlink:href="#DejaVuSans-108"/>
      <use x="439.990234" xlink:href="#DejaVuSans-105"/>
      <use x="467.773438" xlink:href="#DejaVuSans-122"/>
      <use x="520.263672" xlink:href="#DejaVuSans-101"/>
      <use x="581.787109" xlink:href="#DejaVuSans-100"/>
      <use x="645.263672" xlink:href="#DejaVuSans-58"/>
      <use x="678.955078" xlink:href="#DejaVuSans-32"/>
      <use x="710.742188" xlink:href="#DejaVuSans-53"/>
     </g>
    </g>
   </g>
  </g>
  <g id="axes_3">
   <g id="matplotlib.axis_4">
    <g id="ytick_15">
     <g id="line2d_17">
      <defs>
       <path d="M 0 0 
L 3.5 0 
" id="mfeda29f6b1" style="stroke:#006688;stroke-width:0.8;"/>
      </defs>
      <g>
       <use style="fill:#006688;stroke:#006688;stroke-width:0.8;" x="596.937" xlink:href="#mfeda29f6b1" y="224.12"/>
      </g>
     </g>
     <g id="text_38">
      <!-- 0 -->
      <g style="fill:#006688;" transform="translate(603.937 227.919219)scale(0.1 -0.1)">
       <use xlink:href="#DejaVuSans-48"/>
      </g>
     </g>
    </g>
    <g id="ytick_16">
     <g id="line2d_18">
      <g>
       <use style="fill:#006688;stroke:#006688;stroke-width:0.8;" x="596.937" xlink:href="#mfeda29f6b1" y="192.041805"/>
      </g>
     </g>
     <g id="text_39">
      <!-- 20 -->
      <g style="fill:#006688;" transform="translate(603.937 195.841023)scale(0.1 -0.1)">
       <use xlink:href="#DejaVuSans-50"/>
       <use x="63.623047" xlink:href="#DejaVuSans-48"/>
      </g>
     </g>
    </g>
    <g id="ytick_17">
     <g id="line2d_19">
      <g>
       <use style="fill:#006688;stroke:#006688;stroke-width:0.8;" x="596.937" xlink:href="#mfeda29f6b1" y="159.963609"/>
      </g>
     </g>
     <g id="text_40">
      <!-- 40 -->
      <g style="fill:#006688;" transform="translate(603.937 163.762828)scale(0.1 -0.1)">
       <use xlink:href="#DejaVuSans-52"/>
       <use x="63.623047" xlink:href="#DejaVuSans-48"/>
      </g>
     </g>
    </g>
    <g id="ytick_18">
     <g id="line2d_20">
      <g>
       <use style="fill:#006688;stroke:#006688;stroke-width:0.8;" x="596.937" xlink:href="#mfeda29f6b1" y="127.885414"/>
      </g>
     </g>
     <g id="text_41">
      <!-- 60 -->
      <g style="fill:#006688;" transform="translate(603.937 131.684632)scale(0.1 -0.1)">
       <use xlink:href="#DejaVuSans-54"/>
       <use x="63.623047" xlink:href="#DejaVuSans-48"/>
      </g>
     </g>
    </g>
    <g id="ytick_19">
     <g id="line2d_21">
      <g>
       <use style="fill:#006688;stroke:#006688;stroke-width:0.8;" x="596.937" xlink:href="#mfeda29f6b1" y="95.807218"/>
      </g>
     </g>
     <g id="text_42">
      <!-- 80 -->
      <g style="fill:#006688;" transform="translate(603.937 99.606437)scale(0.1 -0.1)">
       <use xlink:href="#DejaVuSans-56"/>
       <use x="63.623047" xlink:href="#DejaVuSans-48"/>
      </g>
     </g>
    </g>
    <g id="ytick_20">
     <g id="line2d_22">
      <g>
       <use style="fill:#006688;stroke:#006688;stroke-width:0.8;" x="596.937" xlink:href="#mfeda29f6b1" y="63.729023"/>
      </g>
     </g>
     <g id="text_43">
      <!-- 100 -->
      <g style="fill:#006688;" transform="translate(603.937 67.528241)scale(0.1 -0.1)">
       <use xlink:href="#DejaVuSans-49"/>
       <use x="63.623047" xlink:href="#DejaVuSans-48"/>
       <use x="127.246094" xlink:href="#DejaVuSans-48"/>
      </g>
     </g>
    </g>
    <g id="ytick_21">
     <g id="line2d_23">
      <g>
       <use style="fill:#006688;stroke:#006688;stroke-width:0.8;" x="596.937" xlink:href="#mfeda29f6b1" y="31.650827"/>
      </g>
     </g>
     <g id="text_44">
      <!-- 120 -->
      <g style="fill:#006688;" transform="translate(603.937 35.450046)scale(0.1 -0.1)">
       <use xlink:href="#DejaVuSans-49"/>
       <use x="63.623047" xlink:href="#DejaVuSans-50"/>
       <use x="127.246094" xlink:href="#DejaVuSans-48"/>
      </g>
     </g>
    </g>
    <g id="text_45">
     <!-- Localization count -->
     <g style="fill:#006688;" transform="translate(634.622938 162.770156)rotate(-90)scale(0.1 -0.1)">
      <use xlink:href="#DejaVuSans-76"/>
      <use x="53.962891" xlink:href="#DejaVuSans-111"/>
      <use x="115.144531" xlink:href="#DejaVuSans-99"/>
      <use x="170.125" xlink:href="#DejaVuSans-97"/>
      <use x="231.404297" xlink:href="#DejaVuSans-108"/>
      <use x="259.1875" xlink:href="#DejaVuSans-105"/>
      <use x="286.970703" xlink:href="#DejaVuSans-122"/>
      <use x="339.460938" xlink:href="#DejaVuSans-97"/>
      <use x="400.740234" xlink:href="#DejaVuSans-116"/>
      <use x="439.949219" xlink:href="#DejaVuSans-105"/>
      <use x="467.732422" xlink:href="#DejaVuSans-111"/>
      <use x="528.914062" xlink:href="#DejaVuSans-110"/>
      <use x="592.292969" xlink:href="#DejaVuSans-32"/>
      <use x="624.080078" xlink:href="#DejaVuSans-99"/>
      <use x="679.060547" xlink:href="#DejaVuSans-111"/>
      <use x="740.242188" xlink:href="#DejaVuSans-117"/>
      <use x="803.621094" xlink:href="#DejaVuSans-110"/>
      <use x="867" xlink:href="#DejaVuSans-116"/>
     </g>
    </g>
   </g>
   <g id="PathCollection_1">
    <defs>
     <path d="M 0 3 
C 0.795609 3 1.55874 2.683901 2.12132 2.12132 
C 2.683901 1.55874 3 0.795609 3 0 
C 3 -0.795609 2.683901 -1.55874 2.12132 -2.12132 
C 1.55874 -2.683901 0.795609 -3 0 -3 
C -0.795609 -3 -1.55874 -2.683901 -2.12132 -2.12132 
C -2.683901 -1.55874 -3 -0.795609 -3 0 
C -3 0.795609 -2.683901 1.55874 -2.12132 2.12132 
C -1.55874 2.683901 -0.795609 3 0 3 
z
" id="mfa9b92602f" style="stroke:#006688;"/>
    </defs>
    <g clip-path="url(#p57d85f0660)">
     <use style="fill:#006688;stroke:#006688;" x="164.200476" xlink:href="#mfa9b92602f" y="206.476992"/>
     <use style="fill:#006688;stroke:#006688;" x="355.465238" xlink:href="#mfa9b92602f" y="214.496541"/>
     <use style="fill:#006688;stroke:#006688;" x="498.91381" xlink:href="#mfa9b92602f" y="214.496541"/>
     <use style="fill:#006688;stroke:#006688;" x="522.821905" xlink:href="#mfa9b92602f" y="71.748571"/>
    </g>
   </g>
   <g id="patch_52">
    <path d="M 596.937 224.12 
L 596.937 10.8 
" style="fill:none;stroke:#006688;stroke-linecap:square;stroke-linejoin:miter;stroke-width:0.8;"/>
   </g>
   <g id="legend_2">
    <g id="patch_53">
     <path d="M 51.66 48.15625 
L 349.89125 48.15625 
Q 351.89125 48.15625 351.89125 46.15625 
L 351.89125 17.8 
Q 351.89125 15.8 349.89125 15.8 
L 51.66 15.8 
Q 49.66 15.8 49.66 17.8 
L 49.66 46.15625 
Q 49.66 48.15625 51.66 48.15625 
z
" style="fill:#ffffff;opacity:0.8;stroke:#cccccc;stroke-linejoin:miter;"/>
    </g>
    <g id="text_46">
     <!-- -16.0284 at C-term: 65 -->
     <g style="fill:#262626;" transform="translate(81.66 27.398438)scale(0.1 -0.1)">
      <defs>
       <path d="M 41.109375 46.296875 
Q 39.59375 47.171875 37.8125 47.578125 
Q 36.03125 48 33.890625 48 
Q 26.265625 48 22.1875 43.046875 
Q 18.109375 38.09375 18.109375 28.8125 
L 18.109375 0 
L 9.078125 0 
L 9.078125 54.6875 
L 18.109375 54.6875 
L 18.109375 46.1875 
Q 20.953125 51.171875 25.484375 53.578125 
Q 30.03125 56 36.53125 56 
Q 37.453125 56 38.578125 55.875 
Q 39.703125 55.765625 41.0625 55.515625 
z
" id="DejaVuSans-114"/>
      </defs>
      <use xlink:href="#DejaVuSans-45"/>
      <use x="36.083984" xlink:href="#DejaVuSans-49"/>
      <use x="99.707031" xlink:href="#DejaVuSans-54"/>
      <use x="163.330078" xlink:href="#DejaVuSans-46"/>
      <use x="195.117188" xlink:href="#DejaVuSans-48"/>
      <use x="258.740234" xlink:href="#DejaVuSans-50"/>
      <use x="322.363281" xlink:href="#DejaVuSans-56"/>
      <use x="385.986328" xlink:href="#DejaVuSans-52"/>
      <use x="449.609375" xlink:href="#DejaVuSans-32"/>
      <use x="481.396484" xlink:href="#DejaVuSans-97"/>
      <use x="542.675781" xlink:href="#DejaVuSans-116"/>
      <use x="581.884766" xlink:href="#DejaVuSans-32"/>
      <use x="613.671875" xlink:href="#DejaVuSans-67"/>
      <use x="683.496094" xlink:href="#DejaVuSans-45"/>
      <use x="719.580078" xlink:href="#DejaVuSans-116"/>
      <use x="758.789062" xlink:href="#DejaVuSans-101"/>
      <use x="820.3125" xlink:href="#DejaVuSans-114"/>
      <use x="859.675781" xlink:href="#DejaVuSans-109"/>
      <use x="957.087891" xlink:href="#DejaVuSans-58"/>
      <use x="990.779297" xlink:href="#DejaVuSans-32"/>
      <use x="1022.566406" xlink:href="#DejaVuSans-54"/>
      <use x="1086.189453" xlink:href="#DejaVuSans-53"/>
     </g>
    </g>
    <g id="text_47">
     <!-- -16.0284 at N-term: 2 -->
     <g style="fill:#262626;" transform="translate(81.66 42.076562)scale(0.1 -0.1)">
      <use xlink:href="#DejaVuSans-45"/>
      <use x="36.083984" xlink:href="#DejaVuSans-49"/>
      <use x="99.707031" xlink:href="#DejaVuSans-54"/>
      <use x="163.330078" xlink:href="#DejaVuSans-46"/>
      <use x="195.117188" xlink:href="#DejaVuSans-48"/>
      <use x="258.740234" xlink:href="#DejaVuSans-50"/>
      <use x="322.363281" xlink:href="#DejaVuSans-56"/>
      <use x="385.986328" xlink:href="#DejaVuSans-52"/>
      <use x="449.609375" xlink:href="#DejaVuSans-32"/>
      <use x="481.396484" xlink:href="#DejaVuSans-97"/>
      <use x="542.675781" xlink:href="#DejaVuSans-116"/>
      <use x="581.884766" xlink:href="#DejaVuSans-32"/>
      <use x="613.671875" xlink:href="#DejaVuSans-78"/>
      <use x="688.476562" xlink:href="#DejaVuSans-45"/>
      <use x="724.560547" xlink:href="#DejaVuSans-116"/>
      <use x="763.769531" xlink:href="#DejaVuSans-101"/>
      <use x="825.292969" xlink:href="#DejaVuSans-114"/>
      <use x="864.65625" xlink:href="#DejaVuSans-109"/>
      <use x="962.068359" xlink:href="#DejaVuSans-58"/>
      <use x="995.759766" xlink:href="#DejaVuSans-32"/>
      <use x="1027.546875" xlink:href="#DejaVuSans-50"/>
     </g>
    </g>
    <g id="PathCollection_2">
     <g>
      <use style="fill:#006688;stroke:#006688;" x="226.638125" xlink:href="#mfa9b92602f" y="24.773438"/>
     </g>
    </g>
    <g id="text_48">
     <!-- Location of -16.0284 -->
     <g style="fill:#262626;" transform="translate(244.638125 27.398438)scale(0.1 -0.1)">
      <use xlink:href="#DejaVuSans-76"/>
      <use x="53.962891" xlink:href="#DejaVuSans-111"/>
      <use x="115.144531" xlink:href="#DejaVuSans-99"/>
      <use x="170.125" xlink:href="#DejaVuSans-97"/>
      <use x="231.404297" xlink:href="#DejaVuSans-116"/>
      <use x="270.613281" xlink:href="#DejaVuSans-105"/>
      <use x="298.396484" xlink:href="#DejaVuSans-111"/>
      <use x="359.578125" xlink:href="#DejaVuSans-110"/>
      <use x="422.957031" xlink:href="#DejaVuSans-32"/>
      <use x="454.744141" xlink:href="#DejaVuSans-111"/>
      <use x="515.925781" xlink:href="#DejaVuSans-102"/>
      <use x="551.130859" xlink:href="#DejaVuSans-32"/>
      <use x="582.917969" xlink:href="#DejaVuSans-45"/>
      <use x="619.001953" xlink:href="#DejaVuSans-49"/>
      <use x="682.625" xlink:href="#DejaVuSans-54"/>
      <use x="746.248047" xlink:href="#DejaVuSans-46"/>
      <use x="778.035156" xlink:href="#DejaVuSans-48"/>
      <use x="841.658203" xlink:href="#DejaVuSans-50"/>
      <use x="905.28125" xlink:href="#DejaVuSans-56"/>
      <use x="968.904297" xlink:href="#DejaVuSans-52"/>
     </g>
    </g>
   </g>
  </g>
 </g>
 <defs>
  <clipPath id="p57d85f0660">
   <rect height="213.32" width="502.07" x="44.66" y="10.8"/>
  </clipPath>
 </defs>
</svg>
