<?xml version="1.0" encoding="utf-8" standalone="no"?>
<!DOCTYPE svg PUBLIC "-//W3C//DTD SVG 1.1//EN"
  "http://www.w3.org/Graphics/SVG/1.1/DTD/svg11.dtd">
<!-- Created with matplotlib (https://matplotlib.org/) -->
<svg height="252pt" version="1.1" viewBox="0 0 648 252" width="648pt" xmlns="http://www.w3.org/2000/svg" xmlns:xlink="http://www.w3.org/1999/xlink">
 <defs>
  <style type="text/css">
*{stroke-linecap:butt;stroke-linejoin:round;}
  </style>
 </defs>
 <g id="figure_1">
  <g id="patch_1">
   <path d="M 0 252 
L 648 252 
L 648 0 
L 0 0 
z
" style="fill:#ffffff;"/>
  </g>
  <g id="axes_1">
   <g id="patch_2">
    <path d="M 47.72 224.12 
L 553.21 224.12 
L 553.21 13.22 
L 47.72 13.22 
z
" style="fill:#ffffff;"/>
   </g>
   <g id="matplotlib.axis_1">
    <g id="xtick_1">
     <g id="text_1">
      <!-- M -->
      <defs>
       <path d="M 9.8125 72.90625 
L 24.515625 72.90625 
L 43.109375 23.296875 
L 61.8125 72.90625 
L 76.515625 72.90625 
L 76.515625 0 
L 66.890625 0 
L 66.890625 64.015625 
L 48.09375 14.015625 
L 38.1875 14.015625 
L 19.390625 64.015625 
L 19.390625 0 
L 9.8125 0 
z
" id="DejaVuSans-77"/>
      </defs>
      <g style="fill:#262626;" transform="translate(67.47689 238.718437)scale(0.1 -0.1)">
       <use xlink:href="#DejaVuSans-77"/>
      </g>
     </g>
    </g>
    <g id="xtick_2">
     <g id="text_2">
      <!-- D -->
      <defs>
       <path d="M 19.671875 64.796875 
L 19.671875 8.109375 
L 31.59375 8.109375 
Q 46.6875 8.109375 53.6875 14.9375 
Q 60.6875 21.78125 60.6875 36.53125 
Q 60.6875 51.171875 53.6875 57.984375 
Q 46.6875 64.796875 31.59375 64.796875 
z
M 9.8125 72.90625 
L 30.078125 72.90625 
Q 51.265625 72.90625 61.171875 64.09375 
Q 71.09375 55.28125 71.09375 36.53125 
Q 71.09375 17.671875 61.125 8.828125 
Q 51.171875 0 30.078125 0 
L 9.8125 0 
z
" id="DejaVuSans-68"/>
      </defs>
      <g style="fill:#262626;" transform="translate(92.011905 238.718437)scale(0.1 -0.1)">
       <use xlink:href="#DejaVuSans-68"/>
      </g>
     </g>
    </g>
    <g id="xtick_3">
     <g id="text_3">
      <!-- Q -->
      <defs>
       <path d="M 39.40625 66.21875 
Q 28.65625 66.21875 22.328125 58.203125 
Q 16.015625 50.203125 16.015625 36.375 
Q 16.015625 22.609375 22.328125 14.59375 
Q 28.65625 6.59375 39.40625 6.59375 
Q 50.140625 6.59375 56.421875 14.59375 
Q 62.703125 22.609375 62.703125 36.375 
Q 62.703125 50.203125 56.421875 58.203125 
Q 50.140625 66.21875 39.40625 66.21875 
z
M 53.21875 1.3125 
L 66.21875 -12.890625 
L 54.296875 -12.890625 
L 43.5 -1.21875 
Q 41.890625 -1.3125 41.03125 -1.359375 
Q 40.1875 -1.421875 39.40625 -1.421875 
Q 24.03125 -1.421875 14.8125 8.859375 
Q 5.609375 19.140625 5.609375 36.375 
Q 5.609375 53.65625 14.8125 63.9375 
Q 24.03125 74.21875 39.40625 74.21875 
Q 54.734375 74.21875 63.90625 63.9375 
Q 73.09375 53.65625 73.09375 36.375 
Q 73.09375 23.6875 67.984375 14.640625 
Q 62.890625 5.609375 53.21875 1.3125 
z
" id="DejaVuSans-81"/>
      </defs>
      <g style="fill:#262626;" transform="translate(115.99692 238.718437)scale(0.1 -0.1)">
       <use xlink:href="#DejaVuSans-81"/>
      </g>
     </g>
    </g>
    <g id="xtick_4">
     <g id="text_4">
      <!-- C -->
      <defs>
       <path d="M 64.40625 67.28125 
L 64.40625 56.890625 
Q 59.421875 61.53125 53.78125 63.8125 
Q 48.140625 66.109375 41.796875 66.109375 
Q 29.296875 66.109375 22.65625 58.46875 
Q 16.015625 50.828125 16.015625 36.375 
Q 16.015625 21.96875 22.65625 14.328125 
Q 29.296875 6.6875 41.796875 6.6875 
Q 48.140625 6.6875 53.78125 8.984375 
Q 59.421875 11.28125 64.40625 15.921875 
L 64.40625 5.609375 
Q 59.234375 2.09375 53.4375 0.328125 
Q 47.65625 -1.421875 41.21875 -1.421875 
Q 24.65625 -1.421875 15.125 8.703125 
Q 5.609375 18.84375 5.609375 36.375 
Q 5.609375 53.953125 15.125 64.078125 
Q 24.65625 74.21875 41.21875 74.21875 
Q 47.75 74.21875 53.53125 72.484375 
Q 59.328125 70.75 64.40625 67.28125 
z
" id="DejaVuSans-67"/>
      </defs>
      <g style="fill:#262626;" transform="translate(140.512403 238.718437)scale(0.1 -0.1)">
       <use xlink:href="#DejaVuSans-67"/>
      </g>
     </g>
    </g>
    <g id="xtick_5">
     <g id="text_5">
      <!-- L -->
      <defs>
       <path d="M 9.8125 72.90625 
L 19.671875 72.90625 
L 19.671875 8.296875 
L 55.171875 8.296875 
L 55.171875 0 
L 9.8125 0 
z
" id="DejaVuSans-76"/>
      </defs>
      <g style="fill:#262626;" transform="translate(165.288824 238.718437)scale(0.1 -0.1)">
       <use xlink:href="#DejaVuSans-76"/>
      </g>
     </g>
    </g>
    <g id="xtick_6">
     <g id="text_6">
      <!-- H -->
      <defs>
       <path d="M 9.8125 72.90625 
L 19.671875 72.90625 
L 19.671875 43.015625 
L 55.515625 43.015625 
L 55.515625 72.90625 
L 65.375 72.90625 
L 65.375 0 
L 55.515625 0 
L 55.515625 34.71875 
L 19.671875 34.71875 
L 19.671875 0 
L 9.8125 0 
z
" id="DejaVuSans-72"/>
      </defs>
      <g style="fill:#262626;" transform="translate(188.385558 238.718437)scale(0.1 -0.1)">
       <use xlink:href="#DejaVuSans-72"/>
      </g>
     </g>
    </g>
    <g id="xtick_7">
     <g id="text_7">
      <!-- S -->
      <defs>
       <path d="M 53.515625 70.515625 
L 53.515625 60.890625 
Q 47.90625 63.578125 42.921875 64.890625 
Q 37.9375 66.21875 33.296875 66.21875 
Q 25.25 66.21875 20.875 63.09375 
Q 16.5 59.96875 16.5 54.203125 
Q 16.5 49.359375 19.40625 46.890625 
Q 22.3125 44.4375 30.421875 42.921875 
L 36.375 41.703125 
Q 47.40625 39.59375 52.65625 34.296875 
Q 57.90625 29 57.90625 20.125 
Q 57.90625 9.515625 50.796875 4.046875 
Q 43.703125 -1.421875 29.984375 -1.421875 
Q 24.8125 -1.421875 18.96875 -0.25 
Q 13.140625 0.921875 6.890625 3.21875 
L 6.890625 13.375 
Q 12.890625 10.015625 18.65625 8.296875 
Q 24.421875 6.59375 29.984375 6.59375 
Q 38.421875 6.59375 43.015625 9.90625 
Q 47.609375 13.234375 47.609375 19.390625 
Q 47.609375 24.75 44.3125 27.78125 
Q 41.015625 30.8125 33.5 32.328125 
L 27.484375 33.5 
Q 16.453125 35.6875 11.515625 40.375 
Q 6.59375 45.0625 6.59375 53.421875 
Q 6.59375 63.09375 13.40625 68.65625 
Q 20.21875 74.21875 32.171875 74.21875 
Q 37.3125 74.21875 42.625 73.28125 
Q 47.953125 72.359375 53.515625 70.515625 
z
" id="DejaVuSans-83"/>
      </defs>
      <g style="fill:#262626;" transform="translate(213.042448 238.718437)scale(0.1 -0.1)">
       <use xlink:href="#DejaVuSans-83"/>
      </g>
     </g>
    </g>
    <g id="xtick_8">
     <g id="text_8">
      <!-- R -->
      <defs>
       <path d="M 44.390625 34.1875 
Q 47.5625 33.109375 50.5625 29.59375 
Q 53.5625 26.078125 56.59375 19.921875 
L 66.609375 0 
L 56 0 
L 46.6875 18.703125 
Q 43.0625 26.03125 39.671875 28.421875 
Q 36.28125 30.8125 30.421875 30.8125 
L 19.671875 30.8125 
L 19.671875 0 
L 9.8125 0 
L 9.8125 72.90625 
L 32.078125 72.90625 
Q 44.578125 72.90625 50.734375 67.671875 
Q 56.890625 62.453125 56.890625 51.90625 
Q 56.890625 45.015625 53.6875 40.46875 
Q 50.484375 35.9375 44.390625 34.1875 
z
M 19.671875 64.796875 
L 19.671875 38.921875 
L 32.078125 38.921875 
Q 39.203125 38.921875 42.84375 42.21875 
Q 46.484375 45.515625 46.484375 51.90625 
Q 46.484375 58.296875 42.84375 61.546875 
Q 39.203125 64.796875 32.078125 64.796875 
z
" id="DejaVuSans-82"/>
      </defs>
      <g style="fill:#262626;" transform="translate(236.8134 238.718437)scale(0.1 -0.1)">
       <use xlink:href="#DejaVuSans-82"/>
      </g>
     </g>
    </g>
    <g id="xtick_9">
     <g id="text_9">
      <!-- A -->
      <defs>
       <path d="M 34.1875 63.1875 
L 20.796875 26.90625 
L 47.609375 26.90625 
z
M 28.609375 72.90625 
L 39.796875 72.90625 
L 67.578125 0 
L 57.328125 0 
L 50.6875 18.703125 
L 17.828125 18.703125 
L 11.1875 0 
L 0.78125 0 
z
" id="DejaVuSans-65"/>
      </defs>
      <g style="fill:#262626;" transform="translate(260.938259 238.718437)scale(0.1 -0.1)">
       <use xlink:href="#DejaVuSans-65"/>
      </g>
     </g>
    </g>
    <g id="xtick_10">
     <g id="text_10">
      <!-- W -->
      <defs>
       <path d="M 3.328125 72.90625 
L 13.28125 72.90625 
L 28.609375 11.28125 
L 43.890625 72.90625 
L 54.984375 72.90625 
L 70.3125 11.28125 
L 85.59375 72.90625 
L 95.609375 72.90625 
L 77.296875 0 
L 64.890625 0 
L 49.515625 63.28125 
L 33.984375 0 
L 21.578125 0 
z
" id="DejaVuSans-87"/>
      </defs>
      <g style="fill:#262626;" transform="translate(283.485774 238.718437)scale(0.1 -0.1)">
       <use xlink:href="#DejaVuSans-87"/>
      </g>
     </g>
    </g>
    <g id="xtick_11">
     <g id="text_11">
      <!-- Y -->
      <defs>
       <path d="M -0.203125 72.90625 
L 10.40625 72.90625 
L 30.609375 42.921875 
L 50.6875 72.90625 
L 61.28125 72.90625 
L 35.5 34.71875 
L 35.5 0 
L 25.59375 0 
L 25.59375 34.71875 
z
" id="DejaVuSans-89"/>
      </defs>
      <g style="fill:#262626;" transform="translate(309.44657 238.718437)scale(0.1 -0.1)">
       <use xlink:href="#DejaVuSans-89"/>
      </g>
     </g>
    </g>
    <g id="xtick_12">
     <g id="text_12">
      <!-- P -->
      <defs>
       <path d="M 19.671875 64.796875 
L 19.671875 37.40625 
L 32.078125 37.40625 
Q 38.96875 37.40625 42.71875 40.96875 
Q 46.484375 44.53125 46.484375 51.125 
Q 46.484375 57.671875 42.71875 61.234375 
Q 38.96875 64.796875 32.078125 64.796875 
z
M 9.8125 72.90625 
L 32.078125 72.90625 
Q 44.34375 72.90625 50.609375 67.359375 
Q 56.890625 61.8125 56.890625 51.125 
Q 56.890625 40.328125 50.609375 34.8125 
Q 44.34375 29.296875 32.078125 29.296875 
L 19.671875 29.296875 
L 19.671875 0 
L 9.8125 0 
z
" id="DejaVuSans-80"/>
      </defs>
      <g style="fill:#262626;" transform="translate(333.556585 238.718437)scale(0.1 -0.1)">
       <use xlink:href="#DejaVuSans-80"/>
      </g>
     </g>
    </g>
    <g id="xtick_13">
     <g id="text_13">
      <!-- F -->
      <defs>
       <path d="M 9.8125 72.90625 
L 51.703125 72.90625 
L 51.703125 64.59375 
L 19.671875 64.59375 
L 19.671875 43.109375 
L 48.578125 43.109375 
L 48.578125 34.8125 
L 19.671875 34.8125 
L 19.671875 0 
L 9.8125 0 
z
" id="DejaVuSans-70"/>
      </defs>
      <g style="fill:#262626;" transform="translate(357.7666 238.718437)scale(0.1 -0.1)">
       <use xlink:href="#DejaVuSans-70"/>
      </g>
     </g>
    </g>
    <g id="xtick_14">
     <g id="text_14">
      <!-- V -->
      <defs>
       <path d="M 28.609375 0 
L 0.78125 72.90625 
L 11.078125 72.90625 
L 34.1875 11.53125 
L 57.328125 72.90625 
L 67.578125 72.90625 
L 39.796875 0 
z
" id="DejaVuSans-86"/>
      </defs>
      <g style="fill:#262626;" transform="translate(381.293021 238.718437)scale(0.1 -0.1)">
       <use xlink:href="#DejaVuSans-86"/>
      </g>
     </g>
    </g>
    <g id="xtick_15">
     <g id="text_15">
      <!-- N -->
      <defs>
       <path d="M 9.8125 72.90625 
L 23.09375 72.90625 
L 55.421875 11.921875 
L 55.421875 72.90625 
L 64.984375 72.90625 
L 64.984375 0 
L 51.703125 0 
L 19.390625 60.984375 
L 19.390625 0 
L 9.8125 0 
z
" id="DejaVuSans-78"/>
      </defs>
      <g style="fill:#262626;" transform="translate(405.043661 238.718437)scale(0.1 -0.1)">
       <use xlink:href="#DejaVuSans-78"/>
      </g>
     </g>
    </g>
    <g id="xtick_16">
     <g id="text_16">
      <!-- T -->
      <defs>
       <path d="M -0.296875 72.90625 
L 61.375 72.90625 
L 61.375 64.59375 
L 35.5 64.59375 
L 35.5 0 
L 25.59375 0 
L 25.59375 64.59375 
L -0.296875 64.59375 
z
" id="DejaVuSans-84"/>
      </defs>
      <g style="fill:#262626;" transform="translate(429.801332 238.718437)scale(0.1 -0.1)">
       <use xlink:href="#DejaVuSans-84"/>
      </g>
     </g>
    </g>
    <g id="xtick_17">
     <g id="text_17">
      <!-- E -->
      <defs>
       <path d="M 9.8125 72.90625 
L 55.90625 72.90625 
L 55.90625 64.59375 
L 19.671875 64.59375 
L 19.671875 43.015625 
L 54.390625 43.015625 
L 54.390625 34.71875 
L 19.671875 34.71875 
L 19.671875 8.296875 
L 56.78125 8.296875 
L 56.78125 0 
L 9.8125 0 
z
" id="DejaVuSans-69"/>
      </defs>
      <g style="fill:#262626;" transform="translate(453.766815 238.718437)scale(0.1 -0.1)">
       <use xlink:href="#DejaVuSans-69"/>
      </g>
     </g>
    </g>
    <g id="xtick_18">
     <g id="text_18">
      <!-- G -->
      <defs>
       <path d="M 59.515625 10.40625 
L 59.515625 29.984375 
L 43.40625 29.984375 
L 43.40625 38.09375 
L 69.28125 38.09375 
L 69.28125 6.78125 
Q 63.578125 2.734375 56.6875 0.65625 
Q 49.8125 -1.421875 42 -1.421875 
Q 24.90625 -1.421875 15.25 8.5625 
Q 5.609375 18.5625 5.609375 36.375 
Q 5.609375 54.25 15.25 64.234375 
Q 24.90625 74.21875 42 74.21875 
Q 49.125 74.21875 55.546875 72.453125 
Q 61.96875 70.703125 67.390625 67.28125 
L 67.390625 56.78125 
Q 61.921875 61.421875 55.765625 63.765625 
Q 49.609375 66.109375 42.828125 66.109375 
Q 29.4375 66.109375 22.71875 58.640625 
Q 16.015625 51.171875 16.015625 36.375 
Q 16.015625 21.625 22.71875 14.15625 
Q 29.4375 6.6875 42.828125 6.6875 
Q 48.046875 6.6875 52.140625 7.59375 
Q 56.25 8.5 59.515625 10.40625 
z
" id="DejaVuSans-71"/>
      </defs>
      <g style="fill:#262626;" transform="translate(477.122924 238.718437)scale(0.1 -0.1)">
       <use xlink:href="#DejaVuSans-71"/>
      </g>
     </g>
    </g>
    <g id="xtick_19">
     <g id="text_19">
      <!-- I -->
      <defs>
       <path d="M 9.8125 72.90625 
L 19.671875 72.90625 
L 19.671875 0 
L 9.8125 0 
z
" id="DejaVuSans-73"/>
      </defs>
      <g style="fill:#262626;" transform="translate(503.593095 238.718437)scale(0.1 -0.1)">
       <use xlink:href="#DejaVuSans-73"/>
      </g>
     </g>
    </g>
    <g id="xtick_20">
     <g id="text_20">
      <!-- K -->
      <defs>
       <path d="M 9.8125 72.90625 
L 19.671875 72.90625 
L 19.671875 42.09375 
L 52.390625 72.90625 
L 65.09375 72.90625 
L 28.90625 38.921875 
L 67.671875 0 
L 54.6875 0 
L 19.671875 35.109375 
L 19.671875 0 
L 9.8125 0 
z
" id="DejaVuSans-75"/>
      </defs>
      <g style="fill:#262626;" transform="translate(525.860141 238.718437)scale(0.1 -0.1)">
       <use xlink:href="#DejaVuSans-75"/>
      </g>
     </g>
    </g>
   </g>
   <g id="matplotlib.axis_2">
    <g id="ytick_1">
     <g id="line2d_1">
      <defs>
       <path d="M 0 0 
L -3.5 0 
" id="m5fb4ba54be" style="stroke:#88aa00;stroke-width:0.8;"/>
      </defs>
      <g>
       <use style="fill:#88aa00;stroke:#88aa00;stroke-width:0.8;" x="47.72" xlink:href="#m5fb4ba54be" y="224.12"/>
      </g>
     </g>
     <g id="text_21">
      <!-- 0.0 -->
      <defs>
       <path d="M 31.78125 66.40625 
Q 24.171875 66.40625 20.328125 58.90625 
Q 16.5 51.421875 16.5 36.375 
Q 16.5 21.390625 20.328125 13.890625 
Q 24.171875 6.390625 31.78125 6.390625 
Q 39.453125 6.390625 43.28125 13.890625 
Q 47.125 21.390625 47.125 36.375 
Q 47.125 51.421875 43.28125 58.90625 
Q 39.453125 66.40625 31.78125 66.40625 
z
M 31.78125 74.21875 
Q 44.046875 74.21875 50.515625 64.515625 
Q 56.984375 54.828125 56.984375 36.375 
Q 56.984375 17.96875 50.515625 8.265625 
Q 44.046875 -1.421875 31.78125 -1.421875 
Q 19.53125 -1.421875 13.0625 8.265625 
Q 6.59375 17.96875 6.59375 36.375 
Q 6.59375 54.828125 13.0625 64.515625 
Q 19.53125 74.21875 31.78125 74.21875 
z
" id="DejaVuSans-48"/>
       <path d="M 10.6875 12.40625 
L 21 12.40625 
L 21 0 
L 10.6875 0 
z
" id="DejaVuSans-46"/>
      </defs>
      <g style="fill:#88aa00;" transform="translate(24.816875 227.919219)scale(0.1 -0.1)">
       <use xlink:href="#DejaVuSans-48"/>
       <use x="63.623047" xlink:href="#DejaVuSans-46"/>
       <use x="95.410156" xlink:href="#DejaVuSans-48"/>
      </g>
     </g>
    </g>
    <g id="ytick_2">
     <g id="line2d_2">
      <g>
       <use style="fill:#88aa00;stroke:#88aa00;stroke-width:0.8;" x="47.72" xlink:href="#m5fb4ba54be" y="178.876827"/>
      </g>
     </g>
     <g id="text_22">
      <!-- 0.5 -->
      <defs>
       <path d="M 10.796875 72.90625 
L 49.515625 72.90625 
L 49.515625 64.59375 
L 19.828125 64.59375 
L 19.828125 46.734375 
Q 21.96875 47.46875 24.109375 47.828125 
Q 26.265625 48.1875 28.421875 48.1875 
Q 40.625 48.1875 47.75 41.5 
Q 54.890625 34.8125 54.890625 23.390625 
Q 54.890625 11.625 47.5625 5.09375 
Q 40.234375 -1.421875 26.90625 -1.421875 
Q 22.3125 -1.421875 17.546875 -0.640625 
Q 12.796875 0.140625 7.71875 1.703125 
L 7.71875 11.625 
Q 12.109375 9.234375 16.796875 8.0625 
Q 21.484375 6.890625 26.703125 6.890625 
Q 35.15625 6.890625 40.078125 11.328125 
Q 45.015625 15.765625 45.015625 23.390625 
Q 45.015625 31 40.078125 35.4375 
Q 35.15625 39.890625 26.703125 39.890625 
Q 22.75 39.890625 18.8125 39.015625 
Q 14.890625 38.140625 10.796875 36.28125 
z
" id="DejaVuSans-53"/>
      </defs>
      <g style="fill:#88aa00;" transform="translate(24.816875 182.676046)scale(0.1 -0.1)">
       <use xlink:href="#DejaVuSans-48"/>
       <use x="63.623047" xlink:href="#DejaVuSans-46"/>
       <use x="95.410156" xlink:href="#DejaVuSans-53"/>
      </g>
     </g>
    </g>
    <g id="ytick_3">
     <g id="line2d_3">
      <g>
       <use style="fill:#88aa00;stroke:#88aa00;stroke-width:0.8;" x="47.72" xlink:href="#m5fb4ba54be" y="133.633655"/>
      </g>
     </g>
     <g id="text_23">
      <!-- 1.0 -->
      <defs>
       <path d="M 12.40625 8.296875 
L 28.515625 8.296875 
L 28.515625 63.921875 
L 10.984375 60.40625 
L 10.984375 69.390625 
L 28.421875 72.90625 
L 38.28125 72.90625 
L 38.28125 8.296875 
L 54.390625 8.296875 
L 54.390625 0 
L 12.40625 0 
z
" id="DejaVuSans-49"/>
      </defs>
      <g style="fill:#88aa00;" transform="translate(24.816875 137.432873)scale(0.1 -0.1)">
       <use xlink:href="#DejaVuSans-49"/>
       <use x="63.623047" xlink:href="#DejaVuSans-46"/>
       <use x="95.410156" xlink:href="#DejaVuSans-48"/>
      </g>
     </g>
    </g>
    <g id="ytick_4">
     <g id="line2d_4">
      <g>
       <use style="fill:#88aa00;stroke:#88aa00;stroke-width:0.8;" x="47.72" xlink:href="#m5fb4ba54be" y="88.390482"/>
      </g>
     </g>
     <g id="text_24">
      <!-- 1.5 -->
      <g style="fill:#88aa00;" transform="translate(24.816875 92.189701)scale(0.1 -0.1)">
       <use xlink:href="#DejaVuSans-49"/>
       <use x="63.623047" xlink:href="#DejaVuSans-46"/>
       <use x="95.410156" xlink:href="#DejaVuSans-53"/>
      </g>
     </g>
    </g>
    <g id="ytick_5">
     <g id="line2d_5">
      <g>
       <use style="fill:#88aa00;stroke:#88aa00;stroke-width:0.8;" x="47.72" xlink:href="#m5fb4ba54be" y="43.147309"/>
      </g>
     </g>
     <g id="text_25">
      <!-- 2.0 -->
      <defs>
       <path d="M 19.1875 8.296875 
L 53.609375 8.296875 
L 53.609375 0 
L 7.328125 0 
L 7.328125 8.296875 
Q 12.9375 14.109375 22.625 23.890625 
Q 32.328125 33.6875 34.8125 36.53125 
Q 39.546875 41.84375 41.421875 45.53125 
Q 43.3125 49.21875 43.3125 52.78125 
Q 43.3125 58.59375 39.234375 62.25 
Q 35.15625 65.921875 28.609375 65.921875 
Q 23.96875 65.921875 18.8125 64.3125 
Q 13.671875 62.703125 7.8125 59.421875 
L 7.8125 69.390625 
Q 13.765625 71.78125 18.9375 73 
Q 24.125 74.21875 28.421875 74.21875 
Q 39.75 74.21875 46.484375 68.546875 
Q 53.21875 62.890625 53.21875 53.421875 
Q 53.21875 48.921875 51.53125 44.890625 
Q 49.859375 40.875 45.40625 35.40625 
Q 44.1875 33.984375 37.640625 27.21875 
Q 31.109375 20.453125 19.1875 8.296875 
z
" id="DejaVuSans-50"/>
      </defs>
      <g style="fill:#88aa00;" transform="translate(24.816875 46.946528)scale(0.1 -0.1)">
       <use xlink:href="#DejaVuSans-50"/>
       <use x="63.623047" xlink:href="#DejaVuSans-46"/>
       <use x="95.410156" xlink:href="#DejaVuSans-48"/>
      </g>
     </g>
    </g>
    <g id="text_26">
     <!-- Relative AA abundance -->
     <defs>
      <path d="M 56.203125 29.59375 
L 56.203125 25.203125 
L 14.890625 25.203125 
Q 15.484375 15.921875 20.484375 11.0625 
Q 25.484375 6.203125 34.421875 6.203125 
Q 39.59375 6.203125 44.453125 7.46875 
Q 49.3125 8.734375 54.109375 11.28125 
L 54.109375 2.78125 
Q 49.265625 0.734375 44.1875 -0.34375 
Q 39.109375 -1.421875 33.890625 -1.421875 
Q 20.796875 -1.421875 13.15625 6.1875 
Q 5.515625 13.8125 5.515625 26.8125 
Q 5.515625 40.234375 12.765625 48.109375 
Q 20.015625 56 32.328125 56 
Q 43.359375 56 49.78125 48.890625 
Q 56.203125 41.796875 56.203125 29.59375 
z
M 47.21875 32.234375 
Q 47.125 39.59375 43.09375 43.984375 
Q 39.0625 48.390625 32.421875 48.390625 
Q 24.90625 48.390625 20.390625 44.140625 
Q 15.875 39.890625 15.1875 32.171875 
z
" id="DejaVuSans-101"/>
      <path d="M 9.421875 75.984375 
L 18.40625 75.984375 
L 18.40625 0 
L 9.421875 0 
z
" id="DejaVuSans-108"/>
      <path d="M 34.28125 27.484375 
Q 23.390625 27.484375 19.1875 25 
Q 14.984375 22.515625 14.984375 16.5 
Q 14.984375 11.71875 18.140625 8.90625 
Q 21.296875 6.109375 26.703125 6.109375 
Q 34.1875 6.109375 38.703125 11.40625 
Q 43.21875 16.703125 43.21875 25.484375 
L 43.21875 27.484375 
z
M 52.203125 31.203125 
L 52.203125 0 
L 43.21875 0 
L 43.21875 8.296875 
Q 40.140625 3.328125 35.546875 0.953125 
Q 30.953125 -1.421875 24.3125 -1.421875 
Q 15.921875 -1.421875 10.953125 3.296875 
Q 6 8.015625 6 15.921875 
Q 6 25.140625 12.171875 29.828125 
Q 18.359375 34.515625 30.609375 34.515625 
L 43.21875 34.515625 
L 43.21875 35.40625 
Q 43.21875 41.609375 39.140625 45 
Q 35.0625 48.390625 27.6875 48.390625 
Q 23 48.390625 18.546875 47.265625 
Q 14.109375 46.140625 10.015625 43.890625 
L 10.015625 52.203125 
Q 14.9375 54.109375 19.578125 55.046875 
Q 24.21875 56 28.609375 56 
Q 40.484375 56 46.34375 49.84375 
Q 52.203125 43.703125 52.203125 31.203125 
z
" id="DejaVuSans-97"/>
      <path d="M 18.3125 70.21875 
L 18.3125 54.6875 
L 36.8125 54.6875 
L 36.8125 47.703125 
L 18.3125 47.703125 
L 18.3125 18.015625 
Q 18.3125 11.328125 20.140625 9.421875 
Q 21.96875 7.515625 27.59375 7.515625 
L 36.8125 7.515625 
L 36.8125 0 
L 27.59375 0 
Q 17.1875 0 13.234375 3.875 
Q 9.28125 7.765625 9.28125 18.015625 
L 9.28125 47.703125 
L 2.6875 47.703125 
L 2.6875 54.6875 
L 9.28125 54.6875 
L 9.28125 70.21875 
z
" id="DejaVuSans-116"/>
      <path d="M 9.421875 54.6875 
L 18.40625 54.6875 
L 18.40625 0 
L 9.421875 0 
z
M 9.421875 75.984375 
L 18.40625 75.984375 
L 18.40625 64.59375 
L 9.421875 64.59375 
z
" id="DejaVuSans-105"/>
      <path d="M 2.984375 54.6875 
L 12.5 54.6875 
L 29.59375 8.796875 
L 46.6875 54.6875 
L 56.203125 54.6875 
L 35.6875 0 
L 23.484375 0 
z
" id="DejaVuSans-118"/>
      <path id="DejaVuSans-32"/>
      <path d="M 48.6875 27.296875 
Q 48.6875 37.203125 44.609375 42.84375 
Q 40.53125 48.484375 33.40625 48.484375 
Q 26.265625 48.484375 22.1875 42.84375 
Q 18.109375 37.203125 18.109375 27.296875 
Q 18.109375 17.390625 22.1875 11.75 
Q 26.265625 6.109375 33.40625 6.109375 
Q 40.53125 6.109375 44.609375 11.75 
Q 48.6875 17.390625 48.6875 27.296875 
z
M 18.109375 46.390625 
Q 20.953125 51.265625 25.265625 53.625 
Q 29.59375 56 35.59375 56 
Q 45.5625 56 51.78125 48.09375 
Q 58.015625 40.1875 58.015625 27.296875 
Q 58.015625 14.40625 51.78125 6.484375 
Q 45.5625 -1.421875 35.59375 -1.421875 
Q 29.59375 -1.421875 25.265625 0.953125 
Q 20.953125 3.328125 18.109375 8.203125 
L 18.109375 0 
L 9.078125 0 
L 9.078125 75.984375 
L 18.109375 75.984375 
z
" id="DejaVuSans-98"/>
      <path d="M 8.5 21.578125 
L 8.5 54.6875 
L 17.484375 54.6875 
L 17.484375 21.921875 
Q 17.484375 14.15625 20.5 10.265625 
Q 23.53125 6.390625 29.59375 6.390625 
Q 36.859375 6.390625 41.078125 11.03125 
Q 45.3125 15.671875 45.3125 23.6875 
L 45.3125 54.6875 
L 54.296875 54.6875 
L 54.296875 0 
L 45.3125 0 
L 45.3125 8.40625 
Q 42.046875 3.421875 37.71875 1 
Q 33.40625 -1.421875 27.6875 -1.421875 
Q 18.265625 -1.421875 13.375 4.4375 
Q 8.5 10.296875 8.5 21.578125 
z
M 31.109375 56 
z
" id="DejaVuSans-117"/>
      <path d="M 54.890625 33.015625 
L 54.890625 0 
L 45.90625 0 
L 45.90625 32.71875 
Q 45.90625 40.484375 42.875 44.328125 
Q 39.84375 48.1875 33.796875 48.1875 
Q 26.515625 48.1875 22.3125 43.546875 
Q 18.109375 38.921875 18.109375 30.90625 
L 18.109375 0 
L 9.078125 0 
L 9.078125 54.6875 
L 18.109375 54.6875 
L 18.109375 46.1875 
Q 21.34375 51.125 25.703125 53.5625 
Q 30.078125 56 35.796875 56 
Q 45.21875 56 50.046875 50.171875 
Q 54.890625 44.34375 54.890625 33.015625 
z
" id="DejaVuSans-110"/>
      <path d="M 45.40625 46.390625 
L 45.40625 75.984375 
L 54.390625 75.984375 
L 54.390625 0 
L 45.40625 0 
L 45.40625 8.203125 
Q 42.578125 3.328125 38.25 0.953125 
Q 33.9375 -1.421875 27.875 -1.421875 
Q 17.96875 -1.421875 11.734375 6.484375 
Q 5.515625 14.40625 5.515625 27.296875 
Q 5.515625 40.1875 11.734375 48.09375 
Q 17.96875 56 27.875 56 
Q 33.9375 56 38.25 53.625 
Q 42.578125 51.265625 45.40625 46.390625 
z
M 14.796875 27.296875 
Q 14.796875 17.390625 18.875 11.75 
Q 22.953125 6.109375 30.078125 6.109375 
Q 37.203125 6.109375 41.296875 11.75 
Q 45.40625 17.390625 45.40625 27.296875 
Q 45.40625 37.203125 41.296875 42.84375 
Q 37.203125 48.484375 30.078125 48.484375 
Q 22.953125 48.484375 18.875 42.84375 
Q 14.796875 37.203125 14.796875 27.296875 
z
" id="DejaVuSans-100"/>
      <path d="M 48.78125 52.59375 
L 48.78125 44.1875 
Q 44.96875 46.296875 41.140625 47.34375 
Q 37.3125 48.390625 33.40625 48.390625 
Q 24.65625 48.390625 19.8125 42.84375 
Q 14.984375 37.3125 14.984375 27.296875 
Q 14.984375 17.28125 19.8125 11.734375 
Q 24.65625 6.203125 33.40625 6.203125 
Q 37.3125 6.203125 41.140625 7.25 
Q 44.96875 8.296875 48.78125 10.40625 
L 48.78125 2.09375 
Q 45.015625 0.34375 40.984375 -0.53125 
Q 36.96875 -1.421875 32.421875 -1.421875 
Q 20.0625 -1.421875 12.78125 6.34375 
Q 5.515625 14.109375 5.515625 27.296875 
Q 5.515625 40.671875 12.859375 48.328125 
Q 20.21875 56 33.015625 56 
Q 37.15625 56 41.109375 55.140625 
Q 45.0625 54.296875 48.78125 52.59375 
z
" id="DejaVuSans-99"/>
     </defs>
     <g style="fill:#88aa00;" transform="translate(18.737188 176.884844)rotate(-90)scale(0.1 -0.1)">
      <use xlink:href="#DejaVuSans-82"/>
      <use x="69.419922" xlink:href="#DejaVuSans-101"/>
      <use x="130.943359" xlink:href="#DejaVuSans-108"/>
      <use x="158.726562" xlink:href="#DejaVuSans-97"/>
      <use x="220.005859" xlink:href="#DejaVuSans-116"/>
      <use x="259.214844" xlink:href="#DejaVuSans-105"/>
      <use x="286.998047" xlink:href="#DejaVuSans-118"/>
      <use x="346.177734" xlink:href="#DejaVuSans-101"/>
      <use x="407.701172" xlink:href="#DejaVuSans-32"/>
      <use x="439.488281" xlink:href="#DejaVuSans-65"/>
      <use x="507.927734" xlink:href="#DejaVuSans-65"/>
      <use x="576.335938" xlink:href="#DejaVuSans-32"/>
      <use x="608.123047" xlink:href="#DejaVuSans-97"/>
      <use x="669.402344" xlink:href="#DejaVuSans-98"/>
      <use x="732.878906" xlink:href="#DejaVuSans-117"/>
      <use x="796.257812" xlink:href="#DejaVuSans-110"/>
      <use x="859.636719" xlink:href="#DejaVuSans-100"/>
      <use x="923.113281" xlink:href="#DejaVuSans-97"/>
      <use x="984.392578" xlink:href="#DejaVuSans-110"/>
      <use x="1047.771484" xlink:href="#DejaVuSans-99"/>
      <use x="1102.751953" xlink:href="#DejaVuSans-101"/>
     </g>
    </g>
   </g>
   <g id="patch_3">
    <path clip-path="url(#pe623e4e09c)" d="M 66.976762 224.12 
L 71.790952 224.12 
L 71.790952 114.381327 
L 66.976762 114.381327 
z
" style="fill:#88aa00;"/>
   </g>
   <g id="patch_4">
    <path clip-path="url(#pe623e4e09c)" d="M 91.047714 224.12 
L 95.861905 224.12 
L 95.861905 108.55964 
L 91.047714 108.55964 
z
" style="fill:#88aa00;"/>
   </g>
   <g id="patch_5">
    <path clip-path="url(#pe623e4e09c)" d="M 115.118667 224.12 
L 119.932857 224.12 
L 119.932857 140.668962 
L 115.118667 140.668962 
z
" style="fill:#88aa00;"/>
   </g>
   <g id="patch_6">
    <path clip-path="url(#pe623e4e09c)" d="M 139.189619 224.12 
L 144.00381 224.12 
L 144.00381 148.104669 
L 139.189619 148.104669 
z
" style="fill:#88aa00;"/>
   </g>
   <g id="patch_7">
    <path clip-path="url(#pe623e4e09c)" d="M 163.260571 224.12 
L 168.074762 224.12 
L 168.074762 139.335526 
L 163.260571 139.335526 
z
" style="fill:#88aa00;"/>
   </g>
   <g id="patch_8">
    <path clip-path="url(#pe623e4e09c)" d="M 187.331524 224.12 
L 192.145714 224.12 
L 192.145714 148.364781 
L 187.331524 148.364781 
z
" style="fill:#88aa00;"/>
   </g>
   <g id="patch_9">
    <path clip-path="url(#pe623e4e09c)" d="M 211.402476 224.12 
L 216.216667 224.12 
L 216.216667 155.937603 
L 211.402476 155.937603 
z
" style="fill:#88aa00;"/>
   </g>
   <g id="patch_10">
    <path clip-path="url(#pe623e4e09c)" d="M 235.473429 224.12 
L 240.287619 224.12 
L 240.287619 157.257969 
L 235.473429 157.257969 
z
" style="fill:#88aa00;"/>
   </g>
   <g id="patch_11">
    <path clip-path="url(#pe623e4e09c)" d="M 259.544381 224.12 
L 264.358571 224.12 
L 264.358571 132.98313 
L 259.544381 132.98313 
z
" style="fill:#88aa00;"/>
   </g>
   <g id="patch_12">
    <path clip-path="url(#pe623e4e09c)" d="M 283.615333 224.12 
L 288.429524 224.12 
L 288.429524 184.786806 
L 283.615333 184.786806 
z
" style="fill:#88aa00;"/>
   </g>
   <g id="patch_13">
    <path clip-path="url(#pe623e4e09c)" d="M 307.686286 224.12 
L 312.500476 224.12 
L 312.500476 151.564074 
L 307.686286 151.564074 
z
" style="fill:#88aa00;"/>
   </g>
   <g id="patch_14">
    <path clip-path="url(#pe623e4e09c)" d="M 331.757238 224.12 
L 336.571429 224.12 
L 336.571429 162.545251 
L 331.757238 162.545251 
z
" style="fill:#88aa00;"/>
   </g>
   <g id="patch_15">
    <path clip-path="url(#pe623e4e09c)" d="M 355.82819 224.12 
L 360.642381 224.12 
L 360.642381 123.564109 
L 355.82819 123.564109 
z
" style="fill:#88aa00;"/>
   </g>
   <g id="patch_16">
    <path clip-path="url(#pe623e4e09c)" d="M 379.899143 224.12 
L 384.713333 224.12 
L 384.713333 128.982876 
L 379.899143 128.982876 
z
" style="fill:#88aa00;"/>
   </g>
   <g id="patch_17">
    <path clip-path="url(#pe623e4e09c)" d="M 403.970095 224.12 
L 408.784286 224.12 
L 408.784286 146.363448 
L 403.970095 146.363448 
z
" style="fill:#88aa00;"/>
   </g>
   <g id="patch_18">
    <path clip-path="url(#pe623e4e09c)" d="M 428.041048 224.12 
L 432.855238 224.12 
L 432.855238 123.080396 
L 428.041048 123.080396 
z
" style="fill:#88aa00;"/>
   </g>
   <g id="patch_19">
    <path clip-path="url(#pe623e4e09c)" d="M 452.112 224.12 
L 456.92619 224.12 
L 456.92619 73.477143 
L 452.112 73.477143 
z
" style="fill:#88aa00;"/>
   </g>
   <g id="patch_20">
    <path clip-path="url(#pe623e4e09c)" d="M 476.182952 224.12 
L 480.997143 224.12 
L 480.997143 132.596778 
L 476.182952 132.596778 
z
" style="fill:#88aa00;"/>
   </g>
   <g id="patch_21">
    <path clip-path="url(#pe623e4e09c)" d="M 500.253905 224.12 
L 505.068095 224.12 
L 505.068095 148.406664 
L 500.253905 148.406664 
z
" style="fill:#88aa00;"/>
   </g>
   <g id="patch_22">
    <path clip-path="url(#pe623e4e09c)" d="M 524.324857 224.12 
L 529.139048 224.12 
L 529.139048 112.546925 
L 524.324857 112.546925 
z
" style="fill:#88aa00;"/>
   </g>
   <g id="LineCollection_1">
    <path clip-path="url(#pe623e4e09c)" d="M 69.383857 166.795034 
L 69.383857 61.967619 
" style="fill:none;stroke:#000000;stroke-width:1.5;"/>
    <path clip-path="url(#pe623e4e09c)" d="M 93.45481 119.540087 
L 93.45481 97.579194 
" style="fill:none;stroke:#000000;stroke-width:1.5;"/>
    <path clip-path="url(#pe623e4e09c)" d="M 117.525762 152.901747 
L 117.525762 128.436178 
" style="fill:none;stroke:#000000;stroke-width:1.5;"/>
    <path clip-path="url(#pe623e4e09c)" d="M 141.596714 172.930931 
L 141.596714 123.278407 
" style="fill:none;stroke:#000000;stroke-width:1.5;"/>
    <path clip-path="url(#pe623e4e09c)" d="M 165.667667 146.478491 
L 165.667667 132.192562 
" style="fill:none;stroke:#000000;stroke-width:1.5;"/>
    <path clip-path="url(#pe623e4e09c)" d="M 189.738619 164.616565 
L 189.738619 132.112998 
" style="fill:none;stroke:#000000;stroke-width:1.5;"/>
    <path clip-path="url(#pe623e4e09c)" d="M 213.809571 164.121552 
L 213.809571 147.753654 
" style="fill:none;stroke:#000000;stroke-width:1.5;"/>
    <path clip-path="url(#pe623e4e09c)" d="M 237.880524 167.427226 
L 237.880524 147.088713 
" style="fill:none;stroke:#000000;stroke-width:1.5;"/>
    <path clip-path="url(#pe623e4e09c)" d="M 261.951476 142.54652 
L 261.951476 123.419739 
" style="fill:none;stroke:#000000;stroke-width:1.5;"/>
    <path clip-path="url(#pe623e4e09c)" d="M 286.022429 201.396855 
L 286.022429 168.176757 
" style="fill:none;stroke:#000000;stroke-width:1.5;"/>
    <path clip-path="url(#pe623e4e09c)" d="M 310.093381 166.58575 
L 310.093381 136.542398 
" style="fill:none;stroke:#000000;stroke-width:1.5;"/>
    <path clip-path="url(#pe623e4e09c)" d="M 334.164333 173.297601 
L 334.164333 151.792901 
" style="fill:none;stroke:#000000;stroke-width:1.5;"/>
    <path clip-path="url(#pe623e4e09c)" d="M 358.235286 136.092006 
L 358.235286 111.036212 
" style="fill:none;stroke:#000000;stroke-width:1.5;"/>
    <path clip-path="url(#pe623e4e09c)" d="M 382.306238 140.417638 
L 382.306238 117.548113 
" style="fill:none;stroke:#000000;stroke-width:1.5;"/>
    <path clip-path="url(#pe623e4e09c)" d="M 406.37719 160.049383 
L 406.37719 132.677512 
" style="fill:none;stroke:#000000;stroke-width:1.5;"/>
    <path clip-path="url(#pe623e4e09c)" d="M 430.448143 133.490707 
L 430.448143 112.670085 
" style="fill:none;stroke:#000000;stroke-width:1.5;"/>
    <path clip-path="url(#pe623e4e09c)" d="M 454.519095 86.501844 
L 454.519095 60.452441 
" style="fill:none;stroke:#000000;stroke-width:1.5;"/>
    <path clip-path="url(#pe623e4e09c)" d="M 478.590048 147.126628 
L 478.590048 118.066928 
" style="fill:none;stroke:#000000;stroke-width:1.5;"/>
    <path clip-path="url(#pe623e4e09c)" d="M 502.661 162.168199 
L 502.661 134.64513 
" style="fill:none;stroke:#000000;stroke-width:1.5;"/>
    <path clip-path="url(#pe623e4e09c)" d="M 526.731952 124.371714 
L 526.731952 100.722135 
" style="fill:none;stroke:#000000;stroke-width:1.5;"/>
   </g>
   <g id="LineCollection_2">
    <path clip-path="url(#pe623e4e09c)" d="M 47.72 133.633655 
L 553.21 133.633655 
" style="fill:none;stroke:#006688;stroke-dasharray:5.55,2.4;stroke-dashoffset:0;stroke-width:1.5;"/>
   </g>
   <g id="patch_23">
    <path d="M 47.72 224.12 
L 47.72 13.22 
" style="fill:none;stroke:#88aa00;stroke-linecap:square;stroke-linejoin:miter;stroke-width:0.8;"/>
   </g>
   <g id="patch_24">
    <path d="M 553.21 224.12 
L 553.21 13.22 
" style="fill:none;stroke:#ff6600;stroke-linecap:square;stroke-linejoin:miter;stroke-width:0.8;"/>
   </g>
   <g id="patch_25">
    <path d="M 47.72 224.12 
L 553.21 224.12 
" style="fill:none;stroke:#262626;stroke-linecap:square;stroke-linejoin:miter;stroke-width:0.8;"/>
   </g>
   <g id="patch_26">
    <path d="M 47.72 13.22 
L 553.21 13.22 
" style="fill:none;stroke:#262626;stroke-linecap:square;stroke-linejoin:miter;stroke-width:0.8;"/>
   </g>
  </g>
  <g id="axes_2">
   <g id="matplotlib.axis_3">
    <g id="ytick_6">
     <g id="line2d_6">
      <defs>
       <path d="M 0 0 
L 3.5 0 
" id="mbf39c304fc" style="stroke:#ff6600;stroke-width:0.8;"/>
      </defs>
      <g>
       <use style="fill:#ff6600;stroke:#ff6600;stroke-width:0.8;" x="553.21" xlink:href="#mbf39c304fc" y="224.12"/>
      </g>
     </g>
     <g id="text_27">
      <!-- 0 -->
      <g style="fill:#ff6600;" transform="translate(560.21 227.919219)scale(0.1 -0.1)">
       <use xlink:href="#DejaVuSans-48"/>
      </g>
     </g>
    </g>
    <g id="ytick_7">
     <g id="line2d_7">
      <g>
       <use style="fill:#ff6600;stroke:#ff6600;stroke-width:0.8;" x="553.21" xlink:href="#mbf39c304fc" y="190.376"/>
      </g>
     </g>
     <g id="text_28">
      <!-- 20 -->
      <g style="fill:#ff6600;" transform="translate(560.21 194.175219)scale(0.1 -0.1)">
       <use xlink:href="#DejaVuSans-50"/>
       <use x="63.623047" xlink:href="#DejaVuSans-48"/>
      </g>
     </g>
    </g>
    <g id="ytick_8">
     <g id="line2d_8">
      <g>
       <use style="fill:#ff6600;stroke:#ff6600;stroke-width:0.8;" x="553.21" xlink:href="#mbf39c304fc" y="156.632"/>
      </g>
     </g>
     <g id="text_29">
      <!-- 40 -->
      <defs>
       <path d="M 37.796875 64.3125 
L 12.890625 25.390625 
L 37.796875 25.390625 
z
M 35.203125 72.90625 
L 47.609375 72.90625 
L 47.609375 25.390625 
L 58.015625 25.390625 
L 58.015625 17.1875 
L 47.609375 17.1875 
L 47.609375 0 
L 37.796875 0 
L 37.796875 17.1875 
L 4.890625 17.1875 
L 4.890625 26.703125 
z
" id="DejaVuSans-52"/>
      </defs>
      <g style="fill:#ff6600;" transform="translate(560.21 160.431219)scale(0.1 -0.1)">
       <use xlink:href="#DejaVuSans-52"/>
       <use x="63.623047" xlink:href="#DejaVuSans-48"/>
      </g>
     </g>
    </g>
    <g id="ytick_9">
     <g id="line2d_9">
      <g>
       <use style="fill:#ff6600;stroke:#ff6600;stroke-width:0.8;" x="553.21" xlink:href="#mbf39c304fc" y="122.888"/>
      </g>
     </g>
     <g id="text_30">
      <!-- 60 -->
      <defs>
       <path d="M 33.015625 40.375 
Q 26.375 40.375 22.484375 35.828125 
Q 18.609375 31.296875 18.609375 23.390625 
Q 18.609375 15.53125 22.484375 10.953125 
Q 26.375 6.390625 33.015625 6.390625 
Q 39.65625 6.390625 43.53125 10.953125 
Q 47.40625 15.53125 47.40625 23.390625 
Q 47.40625 31.296875 43.53125 35.828125 
Q 39.65625 40.375 33.015625 40.375 
z
M 52.59375 71.296875 
L 52.59375 62.3125 
Q 48.875 64.0625 45.09375 64.984375 
Q 41.3125 65.921875 37.59375 65.921875 
Q 27.828125 65.921875 22.671875 59.328125 
Q 17.53125 52.734375 16.796875 39.40625 
Q 19.671875 43.65625 24.015625 45.921875 
Q 28.375 48.1875 33.59375 48.1875 
Q 44.578125 48.1875 50.953125 41.515625 
Q 57.328125 34.859375 57.328125 23.390625 
Q 57.328125 12.15625 50.6875 5.359375 
Q 44.046875 -1.421875 33.015625 -1.421875 
Q 20.359375 -1.421875 13.671875 8.265625 
Q 6.984375 17.96875 6.984375 36.375 
Q 6.984375 53.65625 15.1875 63.9375 
Q 23.390625 74.21875 37.203125 74.21875 
Q 40.921875 74.21875 44.703125 73.484375 
Q 48.484375 72.75 52.59375 71.296875 
z
" id="DejaVuSans-54"/>
      </defs>
      <g style="fill:#ff6600;" transform="translate(560.21 126.687219)scale(0.1 -0.1)">
       <use xlink:href="#DejaVuSans-54"/>
       <use x="63.623047" xlink:href="#DejaVuSans-48"/>
      </g>
     </g>
    </g>
    <g id="ytick_10">
     <g id="line2d_10">
      <g>
       <use style="fill:#ff6600;stroke:#ff6600;stroke-width:0.8;" x="553.21" xlink:href="#mbf39c304fc" y="89.144"/>
      </g>
     </g>
     <g id="text_31">
      <!-- 80 -->
      <defs>
       <path d="M 31.78125 34.625 
Q 24.75 34.625 20.71875 30.859375 
Q 16.703125 27.09375 16.703125 20.515625 
Q 16.703125 13.921875 20.71875 10.15625 
Q 24.75 6.390625 31.78125 6.390625 
Q 38.8125 6.390625 42.859375 10.171875 
Q 46.921875 13.96875 46.921875 20.515625 
Q 46.921875 27.09375 42.890625 30.859375 
Q 38.875 34.625 31.78125 34.625 
z
M 21.921875 38.8125 
Q 15.578125 40.375 12.03125 44.71875 
Q 8.5 49.078125 8.5 55.328125 
Q 8.5 64.0625 14.71875 69.140625 
Q 20.953125 74.21875 31.78125 74.21875 
Q 42.671875 74.21875 48.875 69.140625 
Q 55.078125 64.0625 55.078125 55.328125 
Q 55.078125 49.078125 51.53125 44.71875 
Q 48 40.375 41.703125 38.8125 
Q 48.828125 37.15625 52.796875 32.3125 
Q 56.78125 27.484375 56.78125 20.515625 
Q 56.78125 9.90625 50.3125 4.234375 
Q 43.84375 -1.421875 31.78125 -1.421875 
Q 19.734375 -1.421875 13.25 4.234375 
Q 6.78125 9.90625 6.78125 20.515625 
Q 6.78125 27.484375 10.78125 32.3125 
Q 14.796875 37.15625 21.921875 38.8125 
z
M 18.3125 54.390625 
Q 18.3125 48.734375 21.84375 45.5625 
Q 25.390625 42.390625 31.78125 42.390625 
Q 38.140625 42.390625 41.71875 45.5625 
Q 45.3125 48.734375 45.3125 54.390625 
Q 45.3125 60.0625 41.71875 63.234375 
Q 38.140625 66.40625 31.78125 66.40625 
Q 25.390625 66.40625 21.84375 63.234375 
Q 18.3125 60.0625 18.3125 54.390625 
z
" id="DejaVuSans-56"/>
      </defs>
      <g style="fill:#ff6600;" transform="translate(560.21 92.943219)scale(0.1 -0.1)">
       <use xlink:href="#DejaVuSans-56"/>
       <use x="63.623047" xlink:href="#DejaVuSans-48"/>
      </g>
     </g>
    </g>
    <g id="ytick_11">
     <g id="line2d_11">
      <g>
       <use style="fill:#ff6600;stroke:#ff6600;stroke-width:0.8;" x="553.21" xlink:href="#mbf39c304fc" y="55.4"/>
      </g>
     </g>
     <g id="text_32">
      <!-- 100 -->
      <g style="fill:#ff6600;" transform="translate(560.21 59.199219)scale(0.1 -0.1)">
       <use xlink:href="#DejaVuSans-49"/>
       <use x="63.623047" xlink:href="#DejaVuSans-48"/>
       <use x="127.246094" xlink:href="#DejaVuSans-48"/>
      </g>
     </g>
    </g>
    <g id="text_33">
     <!-- Peptides with AA, % -->
     <defs>
      <path d="M 18.109375 8.203125 
L 18.109375 -20.796875 
L 9.078125 -20.796875 
L 9.078125 54.6875 
L 18.109375 54.6875 
L 18.109375 46.390625 
Q 20.953125 51.265625 25.265625 53.625 
Q 29.59375 56 35.59375 56 
Q 45.5625 56 51.78125 48.09375 
Q 58.015625 40.1875 58.015625 27.296875 
Q 58.015625 14.40625 51.78125 6.484375 
Q 45.5625 -1.421875 35.59375 -1.421875 
Q 29.59375 -1.421875 25.265625 0.953125 
Q 20.953125 3.328125 18.109375 8.203125 
z
M 48.6875 27.296875 
Q 48.6875 37.203125 44.609375 42.84375 
Q 40.53125 48.484375 33.40625 48.484375 
Q 26.265625 48.484375 22.1875 42.84375 
Q 18.109375 37.203125 18.109375 27.296875 
Q 18.109375 17.390625 22.1875 11.75 
Q 26.265625 6.109375 33.40625 6.109375 
Q 40.53125 6.109375 44.609375 11.75 
Q 48.6875 17.390625 48.6875 27.296875 
z
" id="DejaVuSans-112"/>
      <path d="M 44.28125 53.078125 
L 44.28125 44.578125 
Q 40.484375 46.53125 36.375 47.5 
Q 32.28125 48.484375 27.875 48.484375 
Q 21.1875 48.484375 17.84375 46.4375 
Q 14.5 44.390625 14.5 40.28125 
Q 14.5 37.15625 16.890625 35.375 
Q 19.28125 33.59375 26.515625 31.984375 
L 29.59375 31.296875 
Q 39.15625 29.25 43.1875 25.515625 
Q 47.21875 21.78125 47.21875 15.09375 
Q 47.21875 7.46875 41.1875 3.015625 
Q 35.15625 -1.421875 24.609375 -1.421875 
Q 20.21875 -1.421875 15.453125 -0.5625 
Q 10.6875 0.296875 5.421875 2 
L 5.421875 11.28125 
Q 10.40625 8.6875 15.234375 7.390625 
Q 20.0625 6.109375 24.8125 6.109375 
Q 31.15625 6.109375 34.5625 8.28125 
Q 37.984375 10.453125 37.984375 14.40625 
Q 37.984375 18.0625 35.515625 20.015625 
Q 33.0625 21.96875 24.703125 23.78125 
L 21.578125 24.515625 
Q 13.234375 26.265625 9.515625 29.90625 
Q 5.8125 33.546875 5.8125 39.890625 
Q 5.8125 47.609375 11.28125 51.796875 
Q 16.75 56 26.8125 56 
Q 31.78125 56 36.171875 55.265625 
Q 40.578125 54.546875 44.28125 53.078125 
z
" id="DejaVuSans-115"/>
      <path d="M 4.203125 54.6875 
L 13.1875 54.6875 
L 24.421875 12.015625 
L 35.59375 54.6875 
L 46.1875 54.6875 
L 57.421875 12.015625 
L 68.609375 54.6875 
L 77.59375 54.6875 
L 63.28125 0 
L 52.6875 0 
L 40.921875 44.828125 
L 29.109375 0 
L 18.5 0 
z
" id="DejaVuSans-119"/>
      <path d="M 54.890625 33.015625 
L 54.890625 0 
L 45.90625 0 
L 45.90625 32.71875 
Q 45.90625 40.484375 42.875 44.328125 
Q 39.84375 48.1875 33.796875 48.1875 
Q 26.515625 48.1875 22.3125 43.546875 
Q 18.109375 38.921875 18.109375 30.90625 
L 18.109375 0 
L 9.078125 0 
L 9.078125 75.984375 
L 18.109375 75.984375 
L 18.109375 46.1875 
Q 21.34375 51.125 25.703125 53.5625 
Q 30.078125 56 35.796875 56 
Q 45.21875 56 50.046875 50.171875 
Q 54.890625 44.34375 54.890625 33.015625 
z
" id="DejaVuSans-104"/>
      <path d="M 11.71875 12.40625 
L 22.015625 12.40625 
L 22.015625 4 
L 14.015625 -11.625 
L 7.71875 -11.625 
L 11.71875 4 
z
" id="DejaVuSans-44"/>
      <path d="M 72.703125 32.078125 
Q 68.453125 32.078125 66.03125 28.46875 
Q 63.625 24.859375 63.625 18.40625 
Q 63.625 12.0625 66.03125 8.421875 
Q 68.453125 4.78125 72.703125 4.78125 
Q 76.859375 4.78125 79.265625 8.421875 
Q 81.6875 12.0625 81.6875 18.40625 
Q 81.6875 24.8125 79.265625 28.4375 
Q 76.859375 32.078125 72.703125 32.078125 
z
M 72.703125 38.28125 
Q 80.421875 38.28125 84.953125 32.90625 
Q 89.5 27.546875 89.5 18.40625 
Q 89.5 9.28125 84.9375 3.921875 
Q 80.375 -1.421875 72.703125 -1.421875 
Q 64.890625 -1.421875 60.34375 3.921875 
Q 55.8125 9.28125 55.8125 18.40625 
Q 55.8125 27.59375 60.375 32.9375 
Q 64.9375 38.28125 72.703125 38.28125 
z
M 22.3125 68.015625 
Q 18.109375 68.015625 15.6875 64.375 
Q 13.28125 60.75 13.28125 54.390625 
Q 13.28125 47.953125 15.671875 44.328125 
Q 18.0625 40.71875 22.3125 40.71875 
Q 26.5625 40.71875 28.96875 44.328125 
Q 31.390625 47.953125 31.390625 54.390625 
Q 31.390625 60.6875 28.953125 64.34375 
Q 26.515625 68.015625 22.3125 68.015625 
z
M 66.40625 74.21875 
L 74.21875 74.21875 
L 28.609375 -1.421875 
L 20.796875 -1.421875 
z
M 22.3125 74.21875 
Q 30.03125 74.21875 34.609375 68.875 
Q 39.203125 63.53125 39.203125 54.390625 
Q 39.203125 45.171875 34.640625 39.84375 
Q 30.078125 34.515625 22.3125 34.515625 
Q 14.546875 34.515625 10.03125 39.859375 
Q 5.515625 45.21875 5.515625 54.390625 
Q 5.515625 63.484375 10.046875 68.84375 
Q 14.59375 74.21875 22.3125 74.21875 
z
" id="DejaVuSans-37"/>
     </defs>
     <g style="fill:#ff6600;" transform="translate(590.895937 168.694219)rotate(-90)scale(0.1 -0.1)">
      <use xlink:href="#DejaVuSans-80"/>
      <use x="60.255859" xlink:href="#DejaVuSans-101"/>
      <use x="121.779297" xlink:href="#DejaVuSans-112"/>
      <use x="185.255859" xlink:href="#DejaVuSans-116"/>
      <use x="224.464844" xlink:href="#DejaVuSans-105"/>
      <use x="252.248047" xlink:href="#DejaVuSans-100"/>
      <use x="315.724609" xlink:href="#DejaVuSans-101"/>
      <use x="377.248047" xlink:href="#DejaVuSans-115"/>
      <use x="429.347656" xlink:href="#DejaVuSans-32"/>
      <use x="461.134766" xlink:href="#DejaVuSans-119"/>
      <use x="542.921875" xlink:href="#DejaVuSans-105"/>
      <use x="570.705078" xlink:href="#DejaVuSans-116"/>
      <use x="609.914062" xlink:href="#DejaVuSans-104"/>
      <use x="673.292969" xlink:href="#DejaVuSans-32"/>
      <use x="705.080078" xlink:href="#DejaVuSans-65"/>
      <use x="773.519531" xlink:href="#DejaVuSans-65"/>
      <use x="841.927734" xlink:href="#DejaVuSans-44"/>
      <use x="873.714844" xlink:href="#DejaVuSans-32"/>
      <use x="905.501953" xlink:href="#DejaVuSans-37"/>
     </g>
    </g>
   </g>
   <g id="patch_27">
    <path clip-path="url(#pe623e4e09c)" d="M 71.790952 224.12 
L 76.605143 224.12 
L 76.605143 215.684 
L 71.790952 215.684 
z
" style="fill:#ff6600;"/>
   </g>
   <g id="patch_28">
    <path clip-path="url(#pe623e4e09c)" d="M 95.861905 224.12 
L 100.676095 224.12 
L 100.676095 107.7032 
L 95.861905 107.7032 
z
" style="fill:#ff6600;"/>
   </g>
   <g id="patch_29">
    <path clip-path="url(#pe623e4e09c)" d="M 119.932857 224.12 
L 124.747048 224.12 
L 124.747048 139.76 
L 119.932857 139.76 
z
" style="fill:#ff6600;"/>
   </g>
   <g id="patch_30">
    <path clip-path="url(#pe623e4e09c)" d="M 144.00381 224.12 
L 148.818 224.12 
L 148.818 195.4376 
L 144.00381 195.4376 
z
" style="fill:#ff6600;"/>
   </g>
   <g id="patch_31">
    <path clip-path="url(#pe623e4e09c)" d="M 168.074762 224.12 
L 172.888952 224.12 
L 172.888952 79.0208 
L 168.074762 79.0208 
z
" style="fill:#ff6600;"/>
   </g>
   <g id="patch_32">
    <path clip-path="url(#pe623e4e09c)" d="M 192.145714 224.12 
L 196.959905 224.12 
L 196.959905 180.2528 
L 192.145714 180.2528 
z
" style="fill:#ff6600;"/>
   </g>
   <g id="patch_33">
    <path clip-path="url(#pe623e4e09c)" d="M 216.216667 224.12 
L 221.030857 224.12 
L 221.030857 124.5752 
L 216.216667 124.5752 
z
" style="fill:#ff6600;"/>
   </g>
   <g id="patch_34">
    <path clip-path="url(#pe623e4e09c)" d="M 240.287619 224.12 
L 245.10181 224.12 
L 245.10181 138.0728 
L 240.287619 138.0728 
z
" style="fill:#ff6600;"/>
   </g>
   <g id="patch_35">
    <path clip-path="url(#pe623e4e09c)" d="M 264.358571 224.12 
L 269.172762 224.12 
L 269.172762 92.5184 
L 264.358571 92.5184 
z
" style="fill:#ff6600;"/>
   </g>
   <g id="patch_36">
    <path clip-path="url(#pe623e4e09c)" d="M 288.429524 224.12 
L 293.243714 224.12 
L 293.243714 212.3096 
L 288.429524 212.3096 
z
" style="fill:#ff6600;"/>
   </g>
   <g id="patch_37">
    <path clip-path="url(#pe623e4e09c)" d="M 312.500476 224.12 
L 317.314667 224.12 
L 317.314667 170.1296 
L 312.500476 170.1296 
z
" style="fill:#ff6600;"/>
   </g>
   <g id="patch_38">
    <path clip-path="url(#pe623e4e09c)" d="M 336.571429 224.12 
L 341.385619 224.12 
L 341.385619 146.5088 
L 336.571429 146.5088 
z
" style="fill:#ff6600;"/>
   </g>
   <g id="patch_39">
    <path clip-path="url(#pe623e4e09c)" d="M 360.642381 224.12 
L 365.456571 224.12 
L 365.456571 131.324 
L 360.642381 131.324 
z
" style="fill:#ff6600;"/>
   </g>
   <g id="patch_40">
    <path clip-path="url(#pe623e4e09c)" d="M 384.713333 224.12 
L 389.527524 224.12 
L 389.527524 97.58 
L 384.713333 97.58 
z
" style="fill:#ff6600;"/>
   </g>
   <g id="patch_41">
    <path clip-path="url(#pe623e4e09c)" d="M 408.784286 224.12 
L 413.598476 224.12 
L 413.598476 153.2576 
L 408.784286 153.2576 
z
" style="fill:#ff6600;"/>
   </g>
   <g id="patch_42">
    <path clip-path="url(#pe623e4e09c)" d="M 432.855238 224.12 
L 437.669429 224.12 
L 437.669429 107.7032 
L 432.855238 107.7032 
z
" style="fill:#ff6600;"/>
   </g>
   <g id="patch_43">
    <path clip-path="url(#pe623e4e09c)" d="M 456.92619 224.12 
L 461.740381 224.12 
L 461.740381 82.3952 
L 456.92619 82.3952 
z
" style="fill:#ff6600;"/>
   </g>
   <g id="patch_44">
    <path clip-path="url(#pe623e4e09c)" d="M 480.997143 224.12 
L 485.811333 224.12 
L 485.811333 127.9496 
L 480.997143 127.9496 
z
" style="fill:#ff6600;"/>
   </g>
   <g id="patch_45">
    <path clip-path="url(#pe623e4e09c)" d="M 505.068095 224.12 
L 509.882286 224.12 
L 509.882286 156.632 
L 505.068095 156.632 
z
" style="fill:#ff6600;"/>
   </g>
   <g id="patch_46">
    <path clip-path="url(#pe623e4e09c)" d="M 529.139048 224.12 
L 533.953238 224.12 
L 533.953238 111.0776 
L 529.139048 111.0776 
z
" style="fill:#ff6600;"/>
   </g>
   <g id="patch_47">
    <path d="M 47.72 224.12 
L 47.72 13.22 
" style="fill:none;stroke:#88aa00;stroke-linecap:square;stroke-linejoin:miter;stroke-width:0.8;"/>
   </g>
   <g id="patch_48">
    <path d="M 553.21 224.12 
L 553.21 13.22 
" style="fill:none;stroke:#ff6600;stroke-linecap:square;stroke-linejoin:miter;stroke-width:0.8;"/>
   </g>
   <g id="patch_49">
    <path d="M 47.72 224.12 
L 553.21 224.12 
" style="fill:none;stroke:#262626;stroke-linecap:square;stroke-linejoin:miter;stroke-width:0.8;"/>
   </g>
   <g id="patch_50">
    <path d="M 47.72 13.22 
L 553.21 13.22 
" style="fill:none;stroke:#262626;stroke-linecap:square;stroke-linejoin:miter;stroke-width:0.8;"/>
   </g>
   <g id="legend_1">
    <g id="patch_51">
     <path d="M 403.5225 58.29375 
L 546.21 58.29375 
Q 548.21 58.29375 548.21 56.29375 
L 548.21 20.22 
Q 548.21 18.22 546.21 18.22 
L 403.5225 18.22 
Q 401.5225 18.22 401.5225 20.22 
L 401.5225 56.29375 
Q 401.5225 58.29375 403.5225 58.29375 
z
" style="fill:#ffffff;opacity:0.8;stroke:#696969;stroke-linejoin:miter;"/>
    </g>
    <g id="line2d_12">
     <path d="M 405.5225 38.556094 
L 405.5225 38.556094 
" style="fill:none;stroke:#1f77b4;stroke-linecap:round;stroke-opacity:0;stroke-width:1.5;"/>
    </g>
    <g id="line2d_13"/>
    <g id="text_34">
     <!-- +257.1394 Da mass shift, -->
     <defs>
      <path d="M 46 62.703125 
L 46 35.5 
L 73.1875 35.5 
L 73.1875 27.203125 
L 46 27.203125 
L 46 0 
L 37.796875 0 
L 37.796875 27.203125 
L 10.59375 27.203125 
L 10.59375 35.5 
L 37.796875 35.5 
L 37.796875 62.703125 
z
" id="DejaVuSans-43"/>
      <path d="M 8.203125 72.90625 
L 55.078125 72.90625 
L 55.078125 68.703125 
L 28.609375 0 
L 18.3125 0 
L 43.21875 64.59375 
L 8.203125 64.59375 
z
" id="DejaVuSans-55"/>
      <path d="M 40.578125 39.3125 
Q 47.65625 37.796875 51.625 33 
Q 55.609375 28.21875 55.609375 21.1875 
Q 55.609375 10.40625 48.1875 4.484375 
Q 40.765625 -1.421875 27.09375 -1.421875 
Q 22.515625 -1.421875 17.65625 -0.515625 
Q 12.796875 0.390625 7.625 2.203125 
L 7.625 11.71875 
Q 11.71875 9.328125 16.59375 8.109375 
Q 21.484375 6.890625 26.8125 6.890625 
Q 36.078125 6.890625 40.9375 10.546875 
Q 45.796875 14.203125 45.796875 21.1875 
Q 45.796875 27.640625 41.28125 31.265625 
Q 36.765625 34.90625 28.71875 34.90625 
L 20.21875 34.90625 
L 20.21875 43.015625 
L 29.109375 43.015625 
Q 36.375 43.015625 40.234375 45.921875 
Q 44.09375 48.828125 44.09375 54.296875 
Q 44.09375 59.90625 40.109375 62.90625 
Q 36.140625 65.921875 28.71875 65.921875 
Q 24.65625 65.921875 20.015625 65.03125 
Q 15.375 64.15625 9.8125 62.3125 
L 9.8125 71.09375 
Q 15.4375 72.65625 20.34375 73.4375 
Q 25.25 74.21875 29.59375 74.21875 
Q 40.828125 74.21875 47.359375 69.109375 
Q 53.90625 64.015625 53.90625 55.328125 
Q 53.90625 49.265625 50.4375 45.09375 
Q 46.96875 40.921875 40.578125 39.3125 
z
" id="DejaVuSans-51"/>
      <path d="M 10.984375 1.515625 
L 10.984375 10.5 
Q 14.703125 8.734375 18.5 7.8125 
Q 22.3125 6.890625 25.984375 6.890625 
Q 35.75 6.890625 40.890625 13.453125 
Q 46.046875 20.015625 46.78125 33.40625 
Q 43.953125 29.203125 39.59375 26.953125 
Q 35.25 24.703125 29.984375 24.703125 
Q 19.046875 24.703125 12.671875 31.3125 
Q 6.296875 37.9375 6.296875 49.421875 
Q 6.296875 60.640625 12.9375 67.421875 
Q 19.578125 74.21875 30.609375 74.21875 
Q 43.265625 74.21875 49.921875 64.515625 
Q 56.59375 54.828125 56.59375 36.375 
Q 56.59375 19.140625 48.40625 8.859375 
Q 40.234375 -1.421875 26.421875 -1.421875 
Q 22.703125 -1.421875 18.890625 -0.6875 
Q 15.09375 0.046875 10.984375 1.515625 
z
M 30.609375 32.421875 
Q 37.25 32.421875 41.125 36.953125 
Q 45.015625 41.5 45.015625 49.421875 
Q 45.015625 57.28125 41.125 61.84375 
Q 37.25 66.40625 30.609375 66.40625 
Q 23.96875 66.40625 20.09375 61.84375 
Q 16.21875 57.28125 16.21875 49.421875 
Q 16.21875 41.5 20.09375 36.953125 
Q 23.96875 32.421875 30.609375 32.421875 
z
" id="DejaVuSans-57"/>
      <path d="M 52 44.1875 
Q 55.375 50.25 60.0625 53.125 
Q 64.75 56 71.09375 56 
Q 79.640625 56 84.28125 50.015625 
Q 88.921875 44.046875 88.921875 33.015625 
L 88.921875 0 
L 79.890625 0 
L 79.890625 32.71875 
Q 79.890625 40.578125 77.09375 44.375 
Q 74.3125 48.1875 68.609375 48.1875 
Q 61.625 48.1875 57.5625 43.546875 
Q 53.515625 38.921875 53.515625 30.90625 
L 53.515625 0 
L 44.484375 0 
L 44.484375 32.71875 
Q 44.484375 40.625 41.703125 44.40625 
Q 38.921875 48.1875 33.109375 48.1875 
Q 26.21875 48.1875 22.15625 43.53125 
Q 18.109375 38.875 18.109375 30.90625 
L 18.109375 0 
L 9.078125 0 
L 9.078125 54.6875 
L 18.109375 54.6875 
L 18.109375 46.1875 
Q 21.1875 51.21875 25.484375 53.609375 
Q 29.78125 56 35.6875 56 
Q 41.65625 56 45.828125 52.96875 
Q 50 49.953125 52 44.1875 
z
" id="DejaVuSans-109"/>
      <path d="M 37.109375 75.984375 
L 37.109375 68.5 
L 28.515625 68.5 
Q 23.6875 68.5 21.796875 66.546875 
Q 19.921875 64.59375 19.921875 59.515625 
L 19.921875 54.6875 
L 34.71875 54.6875 
L 34.71875 47.703125 
L 19.921875 47.703125 
L 19.921875 0 
L 10.890625 0 
L 10.890625 47.703125 
L 2.296875 47.703125 
L 2.296875 54.6875 
L 10.890625 54.6875 
L 10.890625 58.5 
Q 10.890625 67.625 15.140625 71.796875 
Q 19.390625 75.984375 28.609375 75.984375 
z
" id="DejaVuSans-102"/>
     </defs>
     <g style="fill:#262626;" transform="translate(413.5225 29.818438)scale(0.1 -0.1)">
      <use xlink:href="#DejaVuSans-43"/>
      <use x="83.789062" xlink:href="#DejaVuSans-50"/>
      <use x="147.412109" xlink:href="#DejaVuSans-53"/>
      <use x="211.035156" xlink:href="#DejaVuSans-55"/>
      <use x="274.658203" xlink:href="#DejaVuSans-46"/>
      <use x="306.445312" xlink:href="#DejaVuSans-49"/>
      <use x="370.068359" xlink:href="#DejaVuSans-51"/>
      <use x="433.691406" xlink:href="#DejaVuSans-57"/>
      <use x="497.314453" xlink:href="#DejaVuSans-52"/>
      <use x="560.9375" xlink:href="#DejaVuSans-32"/>
      <use x="592.724609" xlink:href="#DejaVuSans-68"/>
      <use x="669.726562" xlink:href="#DejaVuSans-97"/>
      <use x="731.005859" xlink:href="#DejaVuSans-32"/>
      <use x="762.792969" xlink:href="#DejaVuSans-109"/>
      <use x="860.205078" xlink:href="#DejaVuSans-97"/>
      <use x="921.484375" xlink:href="#DejaVuSans-115"/>
      <use x="973.583984" xlink:href="#DejaVuSans-115"/>
      <use x="1025.683594" xlink:href="#DejaVuSans-32"/>
      <use x="1057.470703" xlink:href="#DejaVuSans-115"/>
      <use x="1109.570312" xlink:href="#DejaVuSans-104"/>
      <use x="1172.949219" xlink:href="#DejaVuSans-105"/>
      <use x="1200.732422" xlink:href="#DejaVuSans-102"/>
      <use x="1235.921875" xlink:href="#DejaVuSans-116"/>
      <use x="1275.130859" xlink:href="#DejaVuSans-44"/>
     </g>
     <!-- 52 peptides -->
     <g style="fill:#262626;" transform="translate(413.5225 41.01625)scale(0.1 -0.1)">
      <use xlink:href="#DejaVuSans-53"/>
      <use x="63.623047" xlink:href="#DejaVuSans-50"/>
      <use x="127.246094" xlink:href="#DejaVuSans-32"/>
      <use x="159.033203" xlink:href="#DejaVuSans-112"/>
      <use x="222.509766" xlink:href="#DejaVuSans-101"/>
      <use x="284.033203" xlink:href="#DejaVuSans-112"/>
      <use x="347.509766" xlink:href="#DejaVuSans-116"/>
      <use x="386.71875" xlink:href="#DejaVuSans-105"/>
      <use x="414.501953" xlink:href="#DejaVuSans-100"/>
      <use x="477.978516" xlink:href="#DejaVuSans-101"/>
      <use x="539.501953" xlink:href="#DejaVuSans-115"/>
     </g>
     <!-- Not localized: 3 -->
     <defs>
      <path d="M 30.609375 48.390625 
Q 23.390625 48.390625 19.1875 42.75 
Q 14.984375 37.109375 14.984375 27.296875 
Q 14.984375 17.484375 19.15625 11.84375 
Q 23.34375 6.203125 30.609375 6.203125 
Q 37.796875 6.203125 41.984375 11.859375 
Q 46.1875 17.53125 46.1875 27.296875 
Q 46.1875 37.015625 41.984375 42.703125 
Q 37.796875 48.390625 30.609375 48.390625 
z
M 30.609375 56 
Q 42.328125 56 49.015625 48.375 
Q 55.71875 40.765625 55.71875 27.296875 
Q 55.71875 13.875 49.015625 6.21875 
Q 42.328125 -1.421875 30.609375 -1.421875 
Q 18.84375 -1.421875 12.171875 6.21875 
Q 5.515625 13.875 5.515625 27.296875 
Q 5.515625 40.765625 12.171875 48.375 
Q 18.84375 56 30.609375 56 
z
" id="DejaVuSans-111"/>
      <path d="M 5.515625 54.6875 
L 48.1875 54.6875 
L 48.1875 46.484375 
L 14.40625 7.171875 
L 48.1875 7.171875 
L 48.1875 0 
L 4.296875 0 
L 4.296875 8.203125 
L 38.09375 47.515625 
L 5.515625 47.515625 
z
" id="DejaVuSans-122"/>
      <path d="M 11.71875 12.40625 
L 22.015625 12.40625 
L 22.015625 0 
L 11.71875 0 
z
M 11.71875 51.703125 
L 22.015625 51.703125 
L 22.015625 39.3125 
L 11.71875 39.3125 
z
" id="DejaVuSans-58"/>
     </defs>
     <g style="fill:#262626;" transform="translate(413.5225 52.214063)scale(0.1 -0.1)">
      <use xlink:href="#DejaVuSans-78"/>
      <use x="74.804688" xlink:href="#DejaVuSans-111"/>
      <use x="135.986328" xlink:href="#DejaVuSans-116"/>
      <use x="175.195312" xlink:href="#DejaVuSans-32"/>
      <use x="206.982422" xlink:href="#DejaVuSans-108"/>
      <use x="234.765625" xlink:href="#DejaVuSans-111"/>
      <use x="295.947266" xlink:href="#DejaVuSans-99"/>
      <use x="350.927734" xlink:href="#DejaVuSans-97"/>
      <use x="412.207031" xlink:href="#DejaVuSans-108"/>
      <use x="439.990234" xlink:href="#DejaVuSans-105"/>
      <use x="467.773438" xlink:href="#DejaVuSans-122"/>
      <use x="520.263672" xlink:href="#DejaVuSans-101"/>
      <use x="581.787109" xlink:href="#DejaVuSans-100"/>
      <use x="645.263672" xlink:href="#DejaVuSans-58"/>
      <use x="678.955078" xlink:href="#DejaVuSans-32"/>
      <use x="710.742188" xlink:href="#DejaVuSans-51"/>
     </g>
    </g>
   </g>
  </g>
  <g id="axes_3">
   <g id="matplotlib.axis_4">
    <g id="ytick_12">
     <g id="line2d_14">
      <defs>
       <path d="M 0 0 
L 3.5 0 
" id="m68d17e3b4d" style="stroke:#006688;stroke-width:0.8;"/>
      </defs>
      <g>
       <use style="fill:#006688;stroke:#006688;stroke-width:0.8;" x="603.759" xlink:href="#m68d17e3b4d" y="224.12"/>
      </g>
     </g>
     <g id="text_35">
      <!-- 0 -->
      <g style="fill:#006688;" transform="translate(610.759 227.919219)scale(0.1 -0.1)">
       <use xlink:href="#DejaVuSans-48"/>
      </g>
     </g>
    </g>
    <g id="ytick_13">
     <g id="line2d_15">
      <g>
       <use style="fill:#006688;stroke:#006688;stroke-width:0.8;" x="603.759" xlink:href="#m68d17e3b4d" y="182.274762"/>
      </g>
     </g>
     <g id="text_36">
      <!-- 5 -->
      <g style="fill:#006688;" transform="translate(610.759 186.073981)scale(0.1 -0.1)">
       <use xlink:href="#DejaVuSans-53"/>
      </g>
     </g>
    </g>
    <g id="ytick_14">
     <g id="line2d_16">
      <g>
       <use style="fill:#006688;stroke:#006688;stroke-width:0.8;" x="603.759" xlink:href="#m68d17e3b4d" y="140.429524"/>
      </g>
     </g>
     <g id="text_37">
      <!-- 10 -->
      <g style="fill:#006688;" transform="translate(610.759 144.228743)scale(0.1 -0.1)">
       <use xlink:href="#DejaVuSans-49"/>
       <use x="63.623047" xlink:href="#DejaVuSans-48"/>
      </g>
     </g>
    </g>
    <g id="ytick_15">
     <g id="line2d_17">
      <g>
       <use style="fill:#006688;stroke:#006688;stroke-width:0.8;" x="603.759" xlink:href="#m68d17e3b4d" y="98.584286"/>
      </g>
     </g>
     <g id="text_38">
      <!-- 15 -->
      <g style="fill:#006688;" transform="translate(610.759 102.383504)scale(0.1 -0.1)">
       <use xlink:href="#DejaVuSans-49"/>
       <use x="63.623047" xlink:href="#DejaVuSans-53"/>
      </g>
     </g>
    </g>
    <g id="ytick_16">
     <g id="line2d_18">
      <g>
       <use style="fill:#006688;stroke:#006688;stroke-width:0.8;" x="603.759" xlink:href="#m68d17e3b4d" y="56.739048"/>
      </g>
     </g>
     <g id="text_39">
      <!-- 20 -->
      <g style="fill:#006688;" transform="translate(610.759 60.538266)scale(0.1 -0.1)">
       <use xlink:href="#DejaVuSans-50"/>
       <use x="63.623047" xlink:href="#DejaVuSans-48"/>
      </g>
     </g>
    </g>
    <g id="ytick_17">
     <g id="line2d_19">
      <g>
       <use style="fill:#006688;stroke:#006688;stroke-width:0.8;" x="603.759" xlink:href="#m68d17e3b4d" y="14.89381"/>
      </g>
     </g>
     <g id="text_40">
      <!-- 25 -->
      <g style="fill:#006688;" transform="translate(610.759 18.693028)scale(0.1 -0.1)">
       <use xlink:href="#DejaVuSans-50"/>
       <use x="63.623047" xlink:href="#DejaVuSans-53"/>
      </g>
     </g>
    </g>
    <g id="text_41">
     <!-- Localization count -->
     <g style="fill:#006688;" transform="translate(635.082437 164.066875)rotate(-90)scale(0.1 -0.1)">
      <use xlink:href="#DejaVuSans-76"/>
      <use x="55.697266" xlink:href="#DejaVuSans-111"/>
      <use x="116.878906" xlink:href="#DejaVuSans-99"/>
      <use x="171.859375" xlink:href="#DejaVuSans-97"/>
      <use x="233.138672" xlink:href="#DejaVuSans-108"/>
      <use x="260.921875" xlink:href="#DejaVuSans-105"/>
      <use x="288.705078" xlink:href="#DejaVuSans-122"/>
      <use x="341.195312" xlink:href="#DejaVuSans-97"/>
      <use x="402.474609" xlink:href="#DejaVuSans-116"/>
      <use x="441.683594" xlink:href="#DejaVuSans-105"/>
      <use x="469.466797" xlink:href="#DejaVuSans-111"/>
      <use x="530.648438" xlink:href="#DejaVuSans-110"/>
      <use x="594.027344" xlink:href="#DejaVuSans-32"/>
      <use x="625.814453" xlink:href="#DejaVuSans-99"/>
      <use x="680.794922" xlink:href="#DejaVuSans-111"/>
      <use x="741.976562" xlink:href="#DejaVuSans-117"/>
      <use x="805.355469" xlink:href="#DejaVuSans-110"/>
      <use x="868.734375" xlink:href="#DejaVuSans-116"/>
     </g>
    </g>
   </g>
   <g id="PathCollection_1">
    <defs>
     <path d="M 0 3 
C 0.795609 3 1.55874 2.683901 2.12132 2.12132 
C 2.683901 1.55874 3 0.795609 3 0 
C 3 -0.795609 2.683901 -1.55874 2.12132 -2.12132 
C 1.55874 -2.683901 0.795609 -3 0 -3 
C -0.795609 -3 -1.55874 -2.683901 -2.12132 -2.12132 
C -2.683901 -1.55874 -3 -0.795609 -3 0 
C -3 0.795609 -2.683901 1.55874 -2.12132 2.12132 
C -1.55874 2.683901 -0.795609 3 0 3 
z
" id="mefa5379659" style="stroke:#006688;"/>
    </defs>
    <g clip-path="url(#pe623e4e09c)">
     <use style="fill:#006688;stroke:#006688;" x="456.92619" xlink:href="#mefa5379659" y="106.953333"/>
    </g>
   </g>
   <g id="PathCollection_2">
    <defs>
     <path d="M 0 -3 
C -0.795609 -3 -1.55874 -2.683901 -2.12132 -2.12132 
C -2.683901 -1.55874 -3 -0.795609 -3 -0 
C -3 0.795609 -2.683901 1.55874 -2.12132 2.12132 
C -1.55874 2.683901 -0.795609 3 -0 3 
z
" id="mb8cf15c050" style="stroke:#006688;"/>
    </defs>
    <g clip-path="url(#pe623e4e09c)">
     <use style="fill:#006688;stroke:#006688;" x="384.713333" xlink:href="#mb8cf15c050" y="215.750952"/>
    </g>
   </g>
   <g id="PathCollection_3">
    <defs>
     <path d="M 0 3 
C 0.795609 3 1.55874 2.683901 2.12132 2.12132 
C 2.683901 1.55874 3 0.795609 3 0 
C 3 -0.795609 2.683901 -1.55874 2.12132 -2.12132 
C 1.55874 -2.683901 0.795609 -3 0 -3 
z
" id="m7564f3fcc6" style="stroke:#006688;"/>
    </defs>
    <g clip-path="url(#pe623e4e09c)">
     <use style="fill:#006688;stroke:#006688;" x="71.790952" xlink:href="#m7564f3fcc6" y="215.750952"/>
    </g>
   </g>
   <g id="PathCollection_4">
    <defs>
     <path d="M 3 0 
C 3 -0.795609 2.683901 -1.55874 2.12132 -2.12132 
C 1.55874 -2.683901 0.795609 -3 0 -3 
C -0.795609 -3 -1.55874 -2.683901 -2.12132 -2.12132 
C -2.683901 -1.55874 -3 -0.795609 -3 -0 
z
" id="m353784deb5" style="stroke:#006688;"/>
    </defs>
    <g clip-path="url(#pe623e4e09c)">
     <use style="fill:#006688;stroke:#006688;" x="0" xlink:href="#m353784deb5" y="0"/>
    </g>
   </g>
   <g id="PathCollection_5">
    <defs>
     <path d="M -3 -0 
C -3 0.795609 -2.683901 1.55874 -2.12132 2.12132 
C -1.55874 2.683901 -0.795609 3 -0 3 
C 0.795609 3 1.55874 2.683901 2.12132 2.12132 
C 2.683901 1.55874 3 0.795609 3 0 
z
" id="m25b4f914eb" style="stroke:#006688;"/>
    </defs>
    <g clip-path="url(#pe623e4e09c)">
     <use style="fill:#006688;stroke:#006688;" x="0" xlink:href="#m25b4f914eb" y="0"/>
    </g>
   </g>
   <g id="PathCollection_6">
    <defs>
     <path d="M 0 -3 
L -4.5 -0 
L -0 3 
" id="mdb911a1cfb" style="stroke:#006688;stroke-width:1.5;"/>
    </defs>
    <g clip-path="url(#pe623e4e09c)">
     <use style="fill:#006688;stroke:#006688;stroke-width:1.5;" x="95.861905" xlink:href="#mdb911a1cfb" y="199.012857"/>
     <use style="fill:#006688;stroke:#006688;stroke-width:1.5;" x="119.932857" xlink:href="#mdb911a1cfb" y="207.381905"/>
     <use style="fill:#006688;stroke:#006688;stroke-width:1.5;" x="168.074762" xlink:href="#mdb911a1cfb" y="182.274762"/>
     <use style="fill:#006688;stroke:#006688;stroke-width:1.5;" x="216.216667" xlink:href="#mdb911a1cfb" y="215.750952"/>
     <use style="fill:#006688;stroke:#006688;stroke-width:1.5;" x="264.358571" xlink:href="#mdb911a1cfb" y="215.750952"/>
     <use style="fill:#006688;stroke:#006688;stroke-width:1.5;" x="360.642381" xlink:href="#mdb911a1cfb" y="207.381905"/>
     <use style="fill:#006688;stroke:#006688;stroke-width:1.5;" x="384.713333" xlink:href="#mdb911a1cfb" y="190.64381"/>
     <use style="fill:#006688;stroke:#006688;stroke-width:1.5;" x="408.784286" xlink:href="#mdb911a1cfb" y="215.750952"/>
     <use style="fill:#006688;stroke:#006688;stroke-width:1.5;" x="432.855238" xlink:href="#mdb911a1cfb" y="215.750952"/>
     <use style="fill:#006688;stroke:#006688;stroke-width:1.5;" x="456.92619" xlink:href="#mdb911a1cfb" y="132.060476"/>
     <use style="fill:#006688;stroke:#006688;stroke-width:1.5;" x="480.997143" xlink:href="#mdb911a1cfb" y="215.750952"/>
     <use style="fill:#006688;stroke:#006688;stroke-width:1.5;" x="505.068095" xlink:href="#mdb911a1cfb" y="207.381905"/>
    </g>
   </g>
   <g id="PathCollection_7">
    <defs>
     <path d="M -0 3 
L 4.5 0 
L 0 -3 
" id="m8041071518" style="stroke:#006688;stroke-width:1.5;"/>
    </defs>
    <g clip-path="url(#pe623e4e09c)">
     <use style="fill:#006688;stroke:#006688;stroke-width:1.5;" x="71.790952" xlink:href="#m8041071518" y="215.750952"/>
     <use style="fill:#006688;stroke:#006688;stroke-width:1.5;" x="144.00381" xlink:href="#m8041071518" y="207.381905"/>
     <use style="fill:#006688;stroke:#006688;stroke-width:1.5;" x="456.92619" xlink:href="#m8041071518" y="73.477143"/>
     <use style="fill:#006688;stroke:#006688;stroke-width:1.5;" x="480.997143" xlink:href="#m8041071518" y="115.322381"/>
    </g>
   </g>
   <g id="patch_52">
    <path d="M 603.759 224.12 
L 603.759 13.22 
" style="fill:none;stroke:#006688;stroke-linecap:square;stroke-linejoin:miter;stroke-width:0.8;"/>
   </g>
   <g id="legend_2">
    <g id="patch_53">
     <path d="M 54.72 94.610625 
L 376.065313 94.610625 
Q 378.065313 94.610625 378.065313 92.610625 
L 378.065313 20.22 
Q 378.065313 18.22 376.065313 18.22 
L 54.72 18.22 
Q 52.72 18.22 52.72 20.22 
L 52.72 92.610625 
Q 52.72 94.610625 54.72 94.610625 
z
" style="fill:#ffffff;opacity:0.8;stroke:#cccccc;stroke-linejoin:miter;"/>
    </g>
    <g id="text_42">
     <!-- +129.0426 at N-term: 1 -->
     <defs>
      <path d="M 4.890625 31.390625 
L 31.203125 31.390625 
L 31.203125 23.390625 
L 4.890625 23.390625 
z
" id="DejaVuSans-45"/>
      <path d="M 41.109375 46.296875 
Q 39.59375 47.171875 37.8125 47.578125 
Q 36.03125 48 33.890625 48 
Q 26.265625 48 22.1875 43.046875 
Q 18.109375 38.09375 18.109375 28.8125 
L 18.109375 0 
L 9.078125 0 
L 9.078125 54.6875 
L 18.109375 54.6875 
L 18.109375 46.1875 
Q 20.953125 51.171875 25.484375 53.578125 
Q 30.03125 56 36.53125 56 
Q 37.453125 56 38.578125 55.875 
Q 39.703125 55.765625 41.0625 55.515625 
z
" id="DejaVuSans-114"/>
     </defs>
     <g style="fill:#262626;" transform="translate(84.72 29.818438)scale(0.1 -0.1)">
      <use xlink:href="#DejaVuSans-43"/>
      <use x="83.789062" xlink:href="#DejaVuSans-49"/>
      <use x="147.412109" xlink:href="#DejaVuSans-50"/>
      <use x="211.035156" xlink:href="#DejaVuSans-57"/>
      <use x="274.658203" xlink:href="#DejaVuSans-46"/>
      <use x="306.445312" xlink:href="#DejaVuSans-48"/>
      <use x="370.068359" xlink:href="#DejaVuSans-52"/>
      <use x="433.691406" xlink:href="#DejaVuSans-50"/>
      <use x="497.314453" xlink:href="#DejaVuSans-54"/>
      <use x="560.9375" xlink:href="#DejaVuSans-32"/>
      <use x="592.724609" xlink:href="#DejaVuSans-97"/>
      <use x="654.003906" xlink:href="#DejaVuSans-116"/>
      <use x="693.212891" xlink:href="#DejaVuSans-32"/>
      <use x="725" xlink:href="#DejaVuSans-78"/>
      <use x="799.804688" xlink:href="#DejaVuSans-45"/>
      <use x="835.888672" xlink:href="#DejaVuSans-116"/>
      <use x="875.097656" xlink:href="#DejaVuSans-101"/>
      <use x="936.621094" xlink:href="#DejaVuSans-114"/>
      <use x="977.71875" xlink:href="#DejaVuSans-109"/>
      <use x="1075.130859" xlink:href="#DejaVuSans-58"/>
      <use x="1108.822266" xlink:href="#DejaVuSans-32"/>
      <use x="1140.609375" xlink:href="#DejaVuSans-49"/>
     </g>
    </g>
    <g id="text_43">
     <!-- +128.0960 at N-term: 25 -->
     <g style="fill:#262626;" transform="translate(84.72 44.496563)scale(0.1 -0.1)">
      <use xlink:href="#DejaVuSans-43"/>
      <use x="83.789062" xlink:href="#DejaVuSans-49"/>
      <use x="147.412109" xlink:href="#DejaVuSans-50"/>
      <use x="211.035156" xlink:href="#DejaVuSans-56"/>
      <use x="274.658203" xlink:href="#DejaVuSans-46"/>
      <use x="306.445312" xlink:href="#DejaVuSans-48"/>
      <use x="370.068359" xlink:href="#DejaVuSans-57"/>
      <use x="433.691406" xlink:href="#DejaVuSans-54"/>
      <use x="497.314453" xlink:href="#DejaVuSans-48"/>
      <use x="560.9375" xlink:href="#DejaVuSans-32"/>
      <use x="592.724609" xlink:href="#DejaVuSans-97"/>
      <use x="654.003906" xlink:href="#DejaVuSans-116"/>
      <use x="693.212891" xlink:href="#DejaVuSans-32"/>
      <use x="725" xlink:href="#DejaVuSans-78"/>
      <use x="799.804688" xlink:href="#DejaVuSans-45"/>
      <use x="835.888672" xlink:href="#DejaVuSans-116"/>
      <use x="875.097656" xlink:href="#DejaVuSans-101"/>
      <use x="936.621094" xlink:href="#DejaVuSans-114"/>
      <use x="977.71875" xlink:href="#DejaVuSans-109"/>
      <use x="1075.130859" xlink:href="#DejaVuSans-58"/>
      <use x="1108.822266" xlink:href="#DejaVuSans-32"/>
      <use x="1140.609375" xlink:href="#DejaVuSans-50"/>
      <use x="1204.232422" xlink:href="#DejaVuSans-53"/>
     </g>
    </g>
    <g id="text_44">
     <!-- +257.1394 at N-term: 3 -->
     <g style="fill:#262626;" transform="translate(84.72 59.174688)scale(0.1 -0.1)">
      <use xlink:href="#DejaVuSans-43"/>
      <use x="83.789062" xlink:href="#DejaVuSans-50"/>
      <use x="147.412109" xlink:href="#DejaVuSans-53"/>
      <use x="211.035156" xlink:href="#DejaVuSans-55"/>
      <use x="274.658203" xlink:href="#DejaVuSans-46"/>
      <use x="306.445312" xlink:href="#DejaVuSans-49"/>
      <use x="370.068359" xlink:href="#DejaVuSans-51"/>
      <use x="433.691406" xlink:href="#DejaVuSans-57"/>
      <use x="497.314453" xlink:href="#DejaVuSans-52"/>
      <use x="560.9375" xlink:href="#DejaVuSans-32"/>
      <use x="592.724609" xlink:href="#DejaVuSans-97"/>
      <use x="654.003906" xlink:href="#DejaVuSans-116"/>
      <use x="693.212891" xlink:href="#DejaVuSans-32"/>
      <use x="725" xlink:href="#DejaVuSans-78"/>
      <use x="799.804688" xlink:href="#DejaVuSans-45"/>
      <use x="835.888672" xlink:href="#DejaVuSans-116"/>
      <use x="875.097656" xlink:href="#DejaVuSans-101"/>
      <use x="936.621094" xlink:href="#DejaVuSans-114"/>
      <use x="977.71875" xlink:href="#DejaVuSans-109"/>
      <use x="1075.130859" xlink:href="#DejaVuSans-58"/>
      <use x="1108.822266" xlink:href="#DejaVuSans-32"/>
      <use x="1140.609375" xlink:href="#DejaVuSans-51"/>
     </g>
    </g>
    <g id="PathCollection_8">
     <g>
      <use style="fill:#006688;stroke:#006688;" x="66.72" xlink:href="#mefa5379659" y="71.227813"/>
     </g>
    </g>
    <g id="text_45">
     <!-- Location of +257.1394 -->
     <g style="fill:#262626;" transform="translate(84.72 73.852813)scale(0.1 -0.1)">
      <use xlink:href="#DejaVuSans-76"/>
      <use x="55.697266" xlink:href="#DejaVuSans-111"/>
      <use x="116.878906" xlink:href="#DejaVuSans-99"/>
      <use x="171.859375" xlink:href="#DejaVuSans-97"/>
      <use x="233.138672" xlink:href="#DejaVuSans-116"/>
      <use x="272.347656" xlink:href="#DejaVuSans-105"/>
      <use x="300.130859" xlink:href="#DejaVuSans-111"/>
      <use x="361.3125" xlink:href="#DejaVuSans-110"/>
      <use x="424.691406" xlink:href="#DejaVuSans-32"/>
      <use x="456.478516" xlink:href="#DejaVuSans-111"/>
      <use x="517.660156" xlink:href="#DejaVuSans-102"/>
      <use x="552.865234" xlink:href="#DejaVuSans-32"/>
      <use x="584.652344" xlink:href="#DejaVuSans-43"/>
      <use x="668.441406" xlink:href="#DejaVuSans-50"/>
      <use x="732.064453" xlink:href="#DejaVuSans-53"/>
      <use x="795.6875" xlink:href="#DejaVuSans-55"/>
      <use x="859.310547" xlink:href="#DejaVuSans-46"/>
      <use x="891.097656" xlink:href="#DejaVuSans-49"/>
      <use x="954.720703" xlink:href="#DejaVuSans-51"/>
      <use x="1018.34375" xlink:href="#DejaVuSans-57"/>
      <use x="1081.966797" xlink:href="#DejaVuSans-52"/>
     </g>
    </g>
    <g id="PathCollection_9">
     <g>
      <use style="fill:#006688;stroke:#006688;" x="66.72" xlink:href="#mb8cf15c050" y="85.905938"/>
     </g>
    </g>
    <g id="text_46">
     <!-- Location of +14.0153 -->
     <g style="fill:#262626;" transform="translate(84.72 88.530938)scale(0.1 -0.1)">
      <use xlink:href="#DejaVuSans-76"/>
      <use x="55.697266" xlink:href="#DejaVuSans-111"/>
      <use x="116.878906" xlink:href="#DejaVuSans-99"/>
      <use x="171.859375" xlink:href="#DejaVuSans-97"/>
      <use x="233.138672" xlink:href="#DejaVuSans-116"/>
      <use x="272.347656" xlink:href="#DejaVuSans-105"/>
      <use x="300.130859" xlink:href="#DejaVuSans-111"/>
      <use x="361.3125" xlink:href="#DejaVuSans-110"/>
      <use x="424.691406" xlink:href="#DejaVuSans-32"/>
      <use x="456.478516" xlink:href="#DejaVuSans-111"/>
      <use x="517.660156" xlink:href="#DejaVuSans-102"/>
      <use x="552.865234" xlink:href="#DejaVuSans-32"/>
      <use x="584.652344" xlink:href="#DejaVuSans-43"/>
      <use x="668.441406" xlink:href="#DejaVuSans-49"/>
      <use x="732.064453" xlink:href="#DejaVuSans-52"/>
      <use x="795.6875" xlink:href="#DejaVuSans-46"/>
      <use x="827.474609" xlink:href="#DejaVuSans-48"/>
      <use x="891.097656" xlink:href="#DejaVuSans-49"/>
      <use x="954.720703" xlink:href="#DejaVuSans-53"/>
      <use x="1018.34375" xlink:href="#DejaVuSans-51"/>
     </g>
    </g>
    <g id="PathCollection_10">
     <g>
      <use style="fill:#006688;stroke:#006688;" x="241.504375" xlink:href="#m7564f3fcc6" y="27.193438"/>
     </g>
    </g>
    <g id="text_47">
     <!-- Location of +243.1239 -->
     <g style="fill:#262626;" transform="translate(259.504375 29.818438)scale(0.1 -0.1)">
      <use xlink:href="#DejaVuSans-76"/>
      <use x="55.697266" xlink:href="#DejaVuSans-111"/>
      <use x="116.878906" xlink:href="#DejaVuSans-99"/>
      <use x="171.859375" xlink:href="#DejaVuSans-97"/>
      <use x="233.138672" xlink:href="#DejaVuSans-116"/>
      <use x="272.347656" xlink:href="#DejaVuSans-105"/>
      <use x="300.130859" xlink:href="#DejaVuSans-111"/>
      <use x="361.3125" xlink:href="#DejaVuSans-110"/>
      <use x="424.691406" xlink:href="#DejaVuSans-32"/>
      <use x="456.478516" xlink:href="#DejaVuSans-111"/>
      <use x="517.660156" xlink:href="#DejaVuSans-102"/>
      <use x="552.865234" xlink:href="#DejaVuSans-32"/>
      <use x="584.652344" xlink:href="#DejaVuSans-43"/>
      <use x="668.441406" xlink:href="#DejaVuSans-50"/>
      <use x="732.064453" xlink:href="#DejaVuSans-52"/>
      <use x="795.6875" xlink:href="#DejaVuSans-51"/>
      <use x="859.310547" xlink:href="#DejaVuSans-46"/>
      <use x="891.097656" xlink:href="#DejaVuSans-49"/>
      <use x="954.720703" xlink:href="#DejaVuSans-50"/>
      <use x="1018.34375" xlink:href="#DejaVuSans-51"/>
      <use x="1081.966797" xlink:href="#DejaVuSans-57"/>
     </g>
    </g>
    <g id="PathCollection_11">
     <g>
      <use style="fill:#006688;stroke:#006688;" x="241.504375" xlink:href="#m353784deb5" y="41.871563"/>
     </g>
    </g>
    <g id="text_48">
     <!-- Location of +72.0209 -->
     <g style="fill:#262626;" transform="translate(259.504375 44.496563)scale(0.1 -0.1)">
      <use xlink:href="#DejaVuSans-76"/>
      <use x="55.697266" xlink:href="#DejaVuSans-111"/>
      <use x="116.878906" xlink:href="#DejaVuSans-99"/>
      <use x="171.859375" xlink:href="#DejaVuSans-97"/>
      <use x="233.138672" xlink:href="#DejaVuSans-116"/>
      <use x="272.347656" xlink:href="#DejaVuSans-105"/>
      <use x="300.130859" xlink:href="#DejaVuSans-111"/>
      <use x="361.3125" xlink:href="#DejaVuSans-110"/>
      <use x="424.691406" xlink:href="#DejaVuSans-32"/>
      <use x="456.478516" xlink:href="#DejaVuSans-111"/>
      <use x="517.660156" xlink:href="#DejaVuSans-102"/>
      <use x="552.865234" xlink:href="#DejaVuSans-32"/>
      <use x="584.652344" xlink:href="#DejaVuSans-43"/>
      <use x="668.441406" xlink:href="#DejaVuSans-55"/>
      <use x="732.064453" xlink:href="#DejaVuSans-50"/>
      <use x="795.6875" xlink:href="#DejaVuSans-46"/>
      <use x="827.474609" xlink:href="#DejaVuSans-48"/>
      <use x="891.097656" xlink:href="#DejaVuSans-50"/>
      <use x="954.720703" xlink:href="#DejaVuSans-48"/>
      <use x="1018.34375" xlink:href="#DejaVuSans-57"/>
     </g>
    </g>
    <g id="PathCollection_12">
     <g>
      <use style="fill:#006688;stroke:#006688;" x="241.504375" xlink:href="#m25b4f914eb" y="56.549688"/>
     </g>
    </g>
    <g id="text_49">
     <!-- Location of +185.1175 -->
     <g style="fill:#262626;" transform="translate(259.504375 59.174688)scale(0.1 -0.1)">
      <use xlink:href="#DejaVuSans-76"/>
      <use x="55.697266" xlink:href="#DejaVuSans-111"/>
      <use x="116.878906" xlink:href="#DejaVuSans-99"/>
      <use x="171.859375" xlink:href="#DejaVuSans-97"/>
      <use x="233.138672" xlink:href="#DejaVuSans-116"/>
      <use x="272.347656" xlink:href="#DejaVuSans-105"/>
      <use x="300.130859" xlink:href="#DejaVuSans-111"/>
      <use x="361.3125" xlink:href="#DejaVuSans-110"/>
      <use x="424.691406" xlink:href="#DejaVuSans-32"/>
      <use x="456.478516" xlink:href="#DejaVuSans-111"/>
      <use x="517.660156" xlink:href="#DejaVuSans-102"/>
      <use x="552.865234" xlink:href="#DejaVuSans-32"/>
      <use x="584.652344" xlink:href="#DejaVuSans-43"/>
      <use x="668.441406" xlink:href="#DejaVuSans-49"/>
      <use x="732.064453" xlink:href="#DejaVuSans-56"/>
      <use x="795.6875" xlink:href="#DejaVuSans-53"/>
      <use x="859.310547" xlink:href="#DejaVuSans-46"/>
      <use x="891.097656" xlink:href="#DejaVuSans-49"/>
      <use x="954.720703" xlink:href="#DejaVuSans-49"/>
      <use x="1018.34375" xlink:href="#DejaVuSans-55"/>
      <use x="1081.966797" xlink:href="#DejaVuSans-53"/>
     </g>
    </g>
    <g id="PathCollection_13">
     <g>
      <use style="fill:#006688;stroke:#006688;stroke-width:1.5;" x="241.504375" xlink:href="#mdb911a1cfb" y="71.227813"/>
     </g>
    </g>
    <g id="text_50">
     <!-- Location of +128.0960 -->
     <g style="fill:#262626;" transform="translate(259.504375 73.852813)scale(0.1 -0.1)">
      <use xlink:href="#DejaVuSans-76"/>
      <use x="55.697266" xlink:href="#DejaVuSans-111"/>
      <use x="116.878906" xlink:href="#DejaVuSans-99"/>
      <use x="171.859375" xlink:href="#DejaVuSans-97"/>
      <use x="233.138672" xlink:href="#DejaVuSans-116"/>
      <use x="272.347656" xlink:href="#DejaVuSans-105"/>
      <use x="300.130859" xlink:href="#DejaVuSans-111"/>
      <use x="361.3125" xlink:href="#DejaVuSans-110"/>
      <use x="424.691406" xlink:href="#DejaVuSans-32"/>
      <use x="456.478516" xlink:href="#DejaVuSans-111"/>
      <use x="517.660156" xlink:href="#DejaVuSans-102"/>
      <use x="552.865234" xlink:href="#DejaVuSans-32"/>
      <use x="584.652344" xlink:href="#DejaVuSans-43"/>
      <use x="668.441406" xlink:href="#DejaVuSans-49"/>
      <use x="732.064453" xlink:href="#DejaVuSans-50"/>
      <use x="795.6875" xlink:href="#DejaVuSans-56"/>
      <use x="859.310547" xlink:href="#DejaVuSans-46"/>
      <use x="891.097656" xlink:href="#DejaVuSans-48"/>
      <use x="954.720703" xlink:href="#DejaVuSans-57"/>
      <use x="1018.34375" xlink:href="#DejaVuSans-54"/>
      <use x="1081.966797" xlink:href="#DejaVuSans-48"/>
     </g>
    </g>
    <g id="PathCollection_14">
     <g>
      <use style="fill:#006688;stroke:#006688;stroke-width:1.5;" x="241.504375" xlink:href="#m8041071518" y="85.905938"/>
     </g>
    </g>
    <g id="text_51">
     <!-- Location of +129.0426 -->
     <g style="fill:#262626;" transform="translate(259.504375 88.530938)scale(0.1 -0.1)">
      <use xlink:href="#DejaVuSans-76"/>
      <use x="55.697266" xlink:href="#DejaVuSans-111"/>
      <use x="116.878906" xlink:href="#DejaVuSans-99"/>
      <use x="171.859375" xlink:href="#DejaVuSans-97"/>
      <use x="233.138672" xlink:href="#DejaVuSans-116"/>
      <use x="272.347656" xlink:href="#DejaVuSans-105"/>
      <use x="300.130859" xlink:href="#DejaVuSans-111"/>
      <use x="361.3125" xlink:href="#DejaVuSans-110"/>
      <use x="424.691406" xlink:href="#DejaVuSans-32"/>
      <use x="456.478516" xlink:href="#DejaVuSans-111"/>
      <use x="517.660156" xlink:href="#DejaVuSans-102"/>
      <use x="552.865234" xlink:href="#DejaVuSans-32"/>
      <use x="584.652344" xlink:href="#DejaVuSans-43"/>
      <use x="668.441406" xlink:href="#DejaVuSans-49"/>
      <use x="732.064453" xlink:href="#DejaVuSans-50"/>
      <use x="795.6875" xlink:href="#DejaVuSans-57"/>
      <use x="859.310547" xlink:href="#DejaVuSans-46"/>
      <use x="891.097656" xlink:href="#DejaVuSans-48"/>
      <use x="954.720703" xlink:href="#DejaVuSans-52"/>
      <use x="1018.34375" xlink:href="#DejaVuSans-50"/>
      <use x="1081.966797" xlink:href="#DejaVuSans-54"/>
     </g>
    </g>
   </g>
  </g>
 </g>
 <defs>
  <clipPath id="pe623e4e09c">
   <rect height="210.9" width="505.49" x="47.72" y="13.22"/>
  </clipPath>
 </defs>
</svg>
