<?xml version="1.0" encoding="utf-8" standalone="no"?>
<!DOCTYPE svg PUBLIC "-//W3C//DTD SVG 1.1//EN"
  "http://www.w3.org/Graphics/SVG/1.1/DTD/svg11.dtd">
<!-- Created with matplotlib (https://matplotlib.org/) -->
<svg height="252pt" version="1.1" viewBox="0 0 648 252" width="648pt" xmlns="http://www.w3.org/2000/svg" xmlns:xlink="http://www.w3.org/1999/xlink">
 <defs>
  <style type="text/css">
*{stroke-linecap:butt;stroke-linejoin:round;}
  </style>
 </defs>
 <g id="figure_1">
  <g id="patch_1">
   <path d="M 0 252 
L 648 252 
L 648 0 
L 0 0 
z
" style="fill:#ffffff;"/>
  </g>
  <g id="axes_1">
   <g id="patch_2">
    <path d="M 44.57 224.12 
L 553.21 224.12 
L 553.21 11.805882 
L 44.57 11.805882 
z
" style="fill:#ffffff;"/>
   </g>
   <g id="matplotlib.axis_1">
    <g id="xtick_1">
     <g id="text_1">
      <!-- M -->
      <defs>
       <path d="M 9.8125 72.90625 
L 24.515625 72.90625 
L 43.109375 23.296875 
L 61.8125 72.90625 
L 76.515625 72.90625 
L 76.515625 0 
L 66.890625 0 
L 66.890625 64.015625 
L 48.09375 14.015625 
L 38.1875 14.015625 
L 19.390625 64.015625 
L 19.390625 0 
L 9.8125 0 
z
" id="DejaVuSans-77"/>
      </defs>
      <g style="fill:#262626;" transform="translate(64.47689 238.718437)scale(0.1 -0.1)">
       <use xlink:href="#DejaVuSans-77"/>
      </g>
     </g>
    </g>
    <g id="xtick_2">
     <g id="text_2">
      <!-- D -->
      <defs>
       <path d="M 19.671875 64.796875 
L 19.671875 8.109375 
L 31.59375 8.109375 
Q 46.6875 8.109375 53.6875 14.9375 
Q 60.6875 21.78125 60.6875 36.53125 
Q 60.6875 51.171875 53.6875 57.984375 
Q 46.6875 64.796875 31.59375 64.796875 
z
M 9.8125 72.90625 
L 30.078125 72.90625 
Q 51.265625 72.90625 61.171875 64.09375 
Q 71.09375 55.28125 71.09375 36.53125 
Q 71.09375 17.671875 61.125 8.828125 
Q 51.171875 0 30.078125 0 
L 9.8125 0 
z
" id="DejaVuSans-68"/>
      </defs>
      <g style="fill:#262626;" transform="translate(89.161905 238.718437)scale(0.1 -0.1)">
       <use xlink:href="#DejaVuSans-68"/>
      </g>
     </g>
    </g>
    <g id="xtick_3">
     <g id="text_3">
      <!-- Q -->
      <defs>
       <path d="M 39.40625 66.21875 
Q 28.65625 66.21875 22.328125 58.203125 
Q 16.015625 50.203125 16.015625 36.375 
Q 16.015625 22.609375 22.328125 14.59375 
Q 28.65625 6.59375 39.40625 6.59375 
Q 50.140625 6.59375 56.421875 14.59375 
Q 62.703125 22.609375 62.703125 36.375 
Q 62.703125 50.203125 56.421875 58.203125 
Q 50.140625 66.21875 39.40625 66.21875 
z
M 53.21875 1.3125 
L 66.21875 -12.890625 
L 54.296875 -12.890625 
L 43.5 -1.21875 
Q 41.890625 -1.3125 41.03125 -1.359375 
Q 40.1875 -1.421875 39.40625 -1.421875 
Q 24.03125 -1.421875 14.8125 8.859375 
Q 5.609375 19.140625 5.609375 36.375 
Q 5.609375 53.65625 14.8125 63.9375 
Q 24.03125 74.21875 39.40625 74.21875 
Q 54.734375 74.21875 63.90625 63.9375 
Q 73.09375 53.65625 73.09375 36.375 
Q 73.09375 23.6875 67.984375 14.640625 
Q 62.890625 5.609375 53.21875 1.3125 
z
" id="DejaVuSans-81"/>
      </defs>
      <g style="fill:#262626;" transform="translate(113.29692 238.718437)scale(0.1 -0.1)">
       <use xlink:href="#DejaVuSans-81"/>
      </g>
     </g>
    </g>
    <g id="xtick_4">
     <g id="text_4">
      <!-- C -->
      <defs>
       <path d="M 64.40625 67.28125 
L 64.40625 56.890625 
Q 59.421875 61.53125 53.78125 63.8125 
Q 48.140625 66.109375 41.796875 66.109375 
Q 29.296875 66.109375 22.65625 58.46875 
Q 16.015625 50.828125 16.015625 36.375 
Q 16.015625 21.96875 22.65625 14.328125 
Q 29.296875 6.6875 41.796875 6.6875 
Q 48.140625 6.6875 53.78125 8.984375 
Q 59.421875 11.28125 64.40625 15.921875 
L 64.40625 5.609375 
Q 59.234375 2.09375 53.4375 0.328125 
Q 47.65625 -1.421875 41.21875 -1.421875 
Q 24.65625 -1.421875 15.125 8.703125 
Q 5.609375 18.84375 5.609375 36.375 
Q 5.609375 53.953125 15.125 64.078125 
Q 24.65625 74.21875 41.21875 74.21875 
Q 47.75 74.21875 53.53125 72.484375 
Q 59.328125 70.75 64.40625 67.28125 
z
" id="DejaVuSans-67"/>
      </defs>
      <g style="fill:#262626;" transform="translate(137.962403 238.718437)scale(0.1 -0.1)">
       <use xlink:href="#DejaVuSans-67"/>
      </g>
     </g>
    </g>
    <g id="xtick_5">
     <g id="text_5">
      <!-- L -->
      <defs>
       <path d="M 9.8125 72.90625 
L 19.671875 72.90625 
L 19.671875 8.296875 
L 55.171875 8.296875 
L 55.171875 0 
L 9.8125 0 
z
" id="DejaVuSans-76"/>
      </defs>
      <g style="fill:#262626;" transform="translate(162.888824 238.718437)scale(0.1 -0.1)">
       <use xlink:href="#DejaVuSans-76"/>
      </g>
     </g>
    </g>
    <g id="xtick_6">
     <g id="text_6">
      <!-- H -->
      <defs>
       <path d="M 9.8125 72.90625 
L 19.671875 72.90625 
L 19.671875 43.015625 
L 55.515625 43.015625 
L 55.515625 72.90625 
L 65.375 72.90625 
L 65.375 0 
L 55.515625 0 
L 55.515625 34.71875 
L 19.671875 34.71875 
L 19.671875 0 
L 9.8125 0 
z
" id="DejaVuSans-72"/>
      </defs>
      <g style="fill:#262626;" transform="translate(186.135558 238.718437)scale(0.1 -0.1)">
       <use xlink:href="#DejaVuSans-72"/>
      </g>
     </g>
    </g>
    <g id="xtick_7">
     <g id="text_7">
      <!-- S -->
      <defs>
       <path d="M 53.515625 70.515625 
L 53.515625 60.890625 
Q 47.90625 63.578125 42.921875 64.890625 
Q 37.9375 66.21875 33.296875 66.21875 
Q 25.25 66.21875 20.875 63.09375 
Q 16.5 59.96875 16.5 54.203125 
Q 16.5 49.359375 19.40625 46.890625 
Q 22.3125 44.4375 30.421875 42.921875 
L 36.375 41.703125 
Q 47.40625 39.59375 52.65625 34.296875 
Q 57.90625 29 57.90625 20.125 
Q 57.90625 9.515625 50.796875 4.046875 
Q 43.703125 -1.421875 29.984375 -1.421875 
Q 24.8125 -1.421875 18.96875 -0.25 
Q 13.140625 0.921875 6.890625 3.21875 
L 6.890625 13.375 
Q 12.890625 10.015625 18.65625 8.296875 
Q 24.421875 6.59375 29.984375 6.59375 
Q 38.421875 6.59375 43.015625 9.90625 
Q 47.609375 13.234375 47.609375 19.390625 
Q 47.609375 24.75 44.3125 27.78125 
Q 41.015625 30.8125 33.5 32.328125 
L 27.484375 33.5 
Q 16.453125 35.6875 11.515625 40.375 
Q 6.59375 45.0625 6.59375 53.421875 
Q 6.59375 63.09375 13.40625 68.65625 
Q 20.21875 74.21875 32.171875 74.21875 
Q 37.3125 74.21875 42.625 73.28125 
Q 47.953125 72.359375 53.515625 70.515625 
z
" id="DejaVuSans-83"/>
      </defs>
      <g style="fill:#262626;" transform="translate(210.942448 238.718437)scale(0.1 -0.1)">
       <use xlink:href="#DejaVuSans-83"/>
      </g>
     </g>
    </g>
    <g id="xtick_8">
     <g id="text_8">
      <!-- R -->
      <defs>
       <path d="M 44.390625 34.1875 
Q 47.5625 33.109375 50.5625 29.59375 
Q 53.5625 26.078125 56.59375 19.921875 
L 66.609375 0 
L 56 0 
L 46.6875 18.703125 
Q 43.0625 26.03125 39.671875 28.421875 
Q 36.28125 30.8125 30.421875 30.8125 
L 19.671875 30.8125 
L 19.671875 0 
L 9.8125 0 
L 9.8125 72.90625 
L 32.078125 72.90625 
Q 44.578125 72.90625 50.734375 67.671875 
Q 56.890625 62.453125 56.890625 51.90625 
Q 56.890625 45.015625 53.6875 40.46875 
Q 50.484375 35.9375 44.390625 34.1875 
z
M 19.671875 64.796875 
L 19.671875 38.921875 
L 32.078125 38.921875 
Q 39.203125 38.921875 42.84375 42.21875 
Q 46.484375 45.515625 46.484375 51.90625 
Q 46.484375 58.296875 42.84375 61.546875 
Q 39.203125 64.796875 32.078125 64.796875 
z
" id="DejaVuSans-82"/>
      </defs>
      <g style="fill:#262626;" transform="translate(234.8634 238.718437)scale(0.1 -0.1)">
       <use xlink:href="#DejaVuSans-82"/>
      </g>
     </g>
    </g>
    <g id="xtick_9">
     <g id="text_9">
      <!-- A -->
      <defs>
       <path d="M 34.1875 63.1875 
L 20.796875 26.90625 
L 47.609375 26.90625 
z
M 28.609375 72.90625 
L 39.796875 72.90625 
L 67.578125 0 
L 57.328125 0 
L 50.6875 18.703125 
L 17.828125 18.703125 
L 11.1875 0 
L 0.78125 0 
z
" id="DejaVuSans-65"/>
      </defs>
      <g style="fill:#262626;" transform="translate(259.138259 238.718437)scale(0.1 -0.1)">
       <use xlink:href="#DejaVuSans-65"/>
      </g>
     </g>
    </g>
    <g id="xtick_10">
     <g id="text_10">
      <!-- W -->
      <defs>
       <path d="M 3.328125 72.90625 
L 13.28125 72.90625 
L 28.609375 11.28125 
L 43.890625 72.90625 
L 54.984375 72.90625 
L 70.3125 11.28125 
L 85.59375 72.90625 
L 95.609375 72.90625 
L 77.296875 0 
L 64.890625 0 
L 49.515625 63.28125 
L 33.984375 0 
L 21.578125 0 
z
" id="DejaVuSans-87"/>
      </defs>
      <g style="fill:#262626;" transform="translate(281.835774 238.718437)scale(0.1 -0.1)">
       <use xlink:href="#DejaVuSans-87"/>
      </g>
     </g>
    </g>
    <g id="xtick_11">
     <g id="text_11">
      <!-- Y -->
      <defs>
       <path d="M -0.203125 72.90625 
L 10.40625 72.90625 
L 30.609375 42.921875 
L 50.6875 72.90625 
L 61.28125 72.90625 
L 35.5 34.71875 
L 35.5 0 
L 25.59375 0 
L 25.59375 34.71875 
z
" id="DejaVuSans-89"/>
      </defs>
      <g style="fill:#262626;" transform="translate(307.94657 238.718437)scale(0.1 -0.1)">
       <use xlink:href="#DejaVuSans-89"/>
      </g>
     </g>
    </g>
    <g id="xtick_12">
     <g id="text_12">
      <!-- P -->
      <defs>
       <path d="M 19.671875 64.796875 
L 19.671875 37.40625 
L 32.078125 37.40625 
Q 38.96875 37.40625 42.71875 40.96875 
Q 46.484375 44.53125 46.484375 51.125 
Q 46.484375 57.671875 42.71875 61.234375 
Q 38.96875 64.796875 32.078125 64.796875 
z
M 9.8125 72.90625 
L 32.078125 72.90625 
Q 44.34375 72.90625 50.609375 67.359375 
Q 56.890625 61.8125 56.890625 51.125 
Q 56.890625 40.328125 50.609375 34.8125 
Q 44.34375 29.296875 32.078125 29.296875 
L 19.671875 29.296875 
L 19.671875 0 
L 9.8125 0 
z
" id="DejaVuSans-80"/>
      </defs>
      <g style="fill:#262626;" transform="translate(332.206585 238.718437)scale(0.1 -0.1)">
       <use xlink:href="#DejaVuSans-80"/>
      </g>
     </g>
    </g>
    <g id="xtick_13">
     <g id="text_13">
      <!-- F -->
      <defs>
       <path d="M 9.8125 72.90625 
L 51.703125 72.90625 
L 51.703125 64.59375 
L 19.671875 64.59375 
L 19.671875 43.109375 
L 48.578125 43.109375 
L 48.578125 34.8125 
L 19.671875 34.8125 
L 19.671875 0 
L 9.8125 0 
z
" id="DejaVuSans-70"/>
      </defs>
      <g style="fill:#262626;" transform="translate(356.5666 238.718437)scale(0.1 -0.1)">
       <use xlink:href="#DejaVuSans-70"/>
      </g>
     </g>
    </g>
    <g id="xtick_14">
     <g id="text_14">
      <!-- V -->
      <defs>
       <path d="M 28.609375 0 
L 0.78125 72.90625 
L 11.078125 72.90625 
L 34.1875 11.53125 
L 57.328125 72.90625 
L 67.578125 72.90625 
L 39.796875 0 
z
" id="DejaVuSans-86"/>
      </defs>
      <g style="fill:#262626;" transform="translate(380.243021 238.718437)scale(0.1 -0.1)">
       <use xlink:href="#DejaVuSans-86"/>
      </g>
     </g>
    </g>
    <g id="xtick_15">
     <g id="text_15">
      <!-- N -->
      <defs>
       <path d="M 9.8125 72.90625 
L 23.09375 72.90625 
L 55.421875 11.921875 
L 55.421875 72.90625 
L 64.984375 72.90625 
L 64.984375 0 
L 51.703125 0 
L 19.390625 60.984375 
L 19.390625 0 
L 9.8125 0 
z
" id="DejaVuSans-78"/>
      </defs>
      <g style="fill:#262626;" transform="translate(404.143661 238.718437)scale(0.1 -0.1)">
       <use xlink:href="#DejaVuSans-78"/>
      </g>
     </g>
    </g>
    <g id="xtick_16">
     <g id="text_16">
      <!-- T -->
      <defs>
       <path d="M -0.296875 72.90625 
L 61.375 72.90625 
L 61.375 64.59375 
L 35.5 64.59375 
L 35.5 0 
L 25.59375 0 
L 25.59375 64.59375 
L -0.296875 64.59375 
z
" id="DejaVuSans-84"/>
      </defs>
      <g style="fill:#262626;" transform="translate(429.051332 238.718437)scale(0.1 -0.1)">
       <use xlink:href="#DejaVuSans-84"/>
      </g>
     </g>
    </g>
    <g id="xtick_17">
     <g id="text_17">
      <!-- E -->
      <defs>
       <path d="M 9.8125 72.90625 
L 55.90625 72.90625 
L 55.90625 64.59375 
L 19.671875 64.59375 
L 19.671875 43.015625 
L 54.390625 43.015625 
L 54.390625 34.71875 
L 19.671875 34.71875 
L 19.671875 8.296875 
L 56.78125 8.296875 
L 56.78125 0 
L 9.8125 0 
z
" id="DejaVuSans-69"/>
      </defs>
      <g style="fill:#262626;" transform="translate(453.166815 238.718437)scale(0.1 -0.1)">
       <use xlink:href="#DejaVuSans-69"/>
      </g>
     </g>
    </g>
    <g id="xtick_18">
     <g id="text_18">
      <!-- G -->
      <defs>
       <path d="M 59.515625 10.40625 
L 59.515625 29.984375 
L 43.40625 29.984375 
L 43.40625 38.09375 
L 69.28125 38.09375 
L 69.28125 6.78125 
Q 63.578125 2.734375 56.6875 0.65625 
Q 49.8125 -1.421875 42 -1.421875 
Q 24.90625 -1.421875 15.25 8.5625 
Q 5.609375 18.5625 5.609375 36.375 
Q 5.609375 54.25 15.25 64.234375 
Q 24.90625 74.21875 42 74.21875 
Q 49.125 74.21875 55.546875 72.453125 
Q 61.96875 70.703125 67.390625 67.28125 
L 67.390625 56.78125 
Q 61.921875 61.421875 55.765625 63.765625 
Q 49.609375 66.109375 42.828125 66.109375 
Q 29.4375 66.109375 22.71875 58.640625 
Q 16.015625 51.171875 16.015625 36.375 
Q 16.015625 21.625 22.71875 14.15625 
Q 29.4375 6.6875 42.828125 6.6875 
Q 48.046875 6.6875 52.140625 7.59375 
Q 56.25 8.5 59.515625 10.40625 
z
" id="DejaVuSans-71"/>
      </defs>
      <g style="fill:#262626;" transform="translate(476.672924 238.718437)scale(0.1 -0.1)">
       <use xlink:href="#DejaVuSans-71"/>
      </g>
     </g>
    </g>
    <g id="xtick_19">
     <g id="text_19">
      <!-- I -->
      <defs>
       <path d="M 9.8125 72.90625 
L 19.671875 72.90625 
L 19.671875 0 
L 9.8125 0 
z
" id="DejaVuSans-73"/>
      </defs>
      <g style="fill:#262626;" transform="translate(503.293095 238.718437)scale(0.1 -0.1)">
       <use xlink:href="#DejaVuSans-73"/>
      </g>
     </g>
    </g>
    <g id="xtick_20">
     <g id="text_20">
      <!-- K -->
      <defs>
       <path d="M 9.8125 72.90625 
L 19.671875 72.90625 
L 19.671875 42.09375 
L 52.390625 72.90625 
L 65.09375 72.90625 
L 28.90625 38.921875 
L 67.671875 0 
L 54.6875 0 
L 19.671875 35.109375 
L 19.671875 0 
L 9.8125 0 
z
" id="DejaVuSans-75"/>
      </defs>
      <g style="fill:#262626;" transform="translate(525.710141 238.718437)scale(0.1 -0.1)">
       <use xlink:href="#DejaVuSans-75"/>
      </g>
     </g>
    </g>
   </g>
   <g id="matplotlib.axis_2">
    <g id="ytick_1">
     <g id="line2d_1">
      <defs>
       <path d="M 0 0 
L -3.5 0 
" id="m5a8d11f2e2" style="stroke:#88aa00;stroke-width:0.8;"/>
      </defs>
      <g>
       <use style="fill:#88aa00;stroke:#88aa00;stroke-width:0.8;" x="44.57" xlink:href="#m5a8d11f2e2" y="224.12"/>
      </g>
     </g>
     <g id="text_21">
      <!-- 0 -->
      <defs>
       <path d="M 31.78125 66.40625 
Q 24.171875 66.40625 20.328125 58.90625 
Q 16.5 51.421875 16.5 36.375 
Q 16.5 21.390625 20.328125 13.890625 
Q 24.171875 6.390625 31.78125 6.390625 
Q 39.453125 6.390625 43.28125 13.890625 
Q 47.125 21.390625 47.125 36.375 
Q 47.125 51.421875 43.28125 58.90625 
Q 39.453125 66.40625 31.78125 66.40625 
z
M 31.78125 74.21875 
Q 44.046875 74.21875 50.515625 64.515625 
Q 56.984375 54.828125 56.984375 36.375 
Q 56.984375 17.96875 50.515625 8.265625 
Q 44.046875 -1.421875 31.78125 -1.421875 
Q 19.53125 -1.421875 13.0625 8.265625 
Q 6.59375 17.96875 6.59375 36.375 
Q 6.59375 54.828125 13.0625 64.515625 
Q 19.53125 74.21875 31.78125 74.21875 
z
" id="DejaVuSans-48"/>
      </defs>
      <g style="fill:#88aa00;" transform="translate(31.2075 227.919219)scale(0.1 -0.1)">
       <use xlink:href="#DejaVuSans-48"/>
      </g>
     </g>
    </g>
    <g id="ytick_2">
     <g id="line2d_2">
      <g>
       <use style="fill:#88aa00;stroke:#88aa00;stroke-width:0.8;" x="44.57" xlink:href="#m5a8d11f2e2" y="194.251173"/>
      </g>
     </g>
     <g id="text_22">
      <!-- 2 -->
      <defs>
       <path d="M 19.1875 8.296875 
L 53.609375 8.296875 
L 53.609375 0 
L 7.328125 0 
L 7.328125 8.296875 
Q 12.9375 14.109375 22.625 23.890625 
Q 32.328125 33.6875 34.8125 36.53125 
Q 39.546875 41.84375 41.421875 45.53125 
Q 43.3125 49.21875 43.3125 52.78125 
Q 43.3125 58.59375 39.234375 62.25 
Q 35.15625 65.921875 28.609375 65.921875 
Q 23.96875 65.921875 18.8125 64.3125 
Q 13.671875 62.703125 7.8125 59.421875 
L 7.8125 69.390625 
Q 13.765625 71.78125 18.9375 73 
Q 24.125 74.21875 28.421875 74.21875 
Q 39.75 74.21875 46.484375 68.546875 
Q 53.21875 62.890625 53.21875 53.421875 
Q 53.21875 48.921875 51.53125 44.890625 
Q 49.859375 40.875 45.40625 35.40625 
Q 44.1875 33.984375 37.640625 27.21875 
Q 31.109375 20.453125 19.1875 8.296875 
z
" id="DejaVuSans-50"/>
      </defs>
      <g style="fill:#88aa00;" transform="translate(31.2075 198.050392)scale(0.1 -0.1)">
       <use xlink:href="#DejaVuSans-50"/>
      </g>
     </g>
    </g>
    <g id="ytick_3">
     <g id="line2d_3">
      <g>
       <use style="fill:#88aa00;stroke:#88aa00;stroke-width:0.8;" x="44.57" xlink:href="#m5a8d11f2e2" y="164.382346"/>
      </g>
     </g>
     <g id="text_23">
      <!-- 4 -->
      <defs>
       <path d="M 37.796875 64.3125 
L 12.890625 25.390625 
L 37.796875 25.390625 
z
M 35.203125 72.90625 
L 47.609375 72.90625 
L 47.609375 25.390625 
L 58.015625 25.390625 
L 58.015625 17.1875 
L 47.609375 17.1875 
L 47.609375 0 
L 37.796875 0 
L 37.796875 17.1875 
L 4.890625 17.1875 
L 4.890625 26.703125 
z
" id="DejaVuSans-52"/>
      </defs>
      <g style="fill:#88aa00;" transform="translate(31.2075 168.181565)scale(0.1 -0.1)">
       <use xlink:href="#DejaVuSans-52"/>
      </g>
     </g>
    </g>
    <g id="ytick_4">
     <g id="line2d_4">
      <g>
       <use style="fill:#88aa00;stroke:#88aa00;stroke-width:0.8;" x="44.57" xlink:href="#m5a8d11f2e2" y="134.513519"/>
      </g>
     </g>
     <g id="text_24">
      <!-- 6 -->
      <defs>
       <path d="M 33.015625 40.375 
Q 26.375 40.375 22.484375 35.828125 
Q 18.609375 31.296875 18.609375 23.390625 
Q 18.609375 15.53125 22.484375 10.953125 
Q 26.375 6.390625 33.015625 6.390625 
Q 39.65625 6.390625 43.53125 10.953125 
Q 47.40625 15.53125 47.40625 23.390625 
Q 47.40625 31.296875 43.53125 35.828125 
Q 39.65625 40.375 33.015625 40.375 
z
M 52.59375 71.296875 
L 52.59375 62.3125 
Q 48.875 64.0625 45.09375 64.984375 
Q 41.3125 65.921875 37.59375 65.921875 
Q 27.828125 65.921875 22.671875 59.328125 
Q 17.53125 52.734375 16.796875 39.40625 
Q 19.671875 43.65625 24.015625 45.921875 
Q 28.375 48.1875 33.59375 48.1875 
Q 44.578125 48.1875 50.953125 41.515625 
Q 57.328125 34.859375 57.328125 23.390625 
Q 57.328125 12.15625 50.6875 5.359375 
Q 44.046875 -1.421875 33.015625 -1.421875 
Q 20.359375 -1.421875 13.671875 8.265625 
Q 6.984375 17.96875 6.984375 36.375 
Q 6.984375 53.65625 15.1875 63.9375 
Q 23.390625 74.21875 37.203125 74.21875 
Q 40.921875 74.21875 44.703125 73.484375 
Q 48.484375 72.75 52.59375 71.296875 
z
" id="DejaVuSans-54"/>
      </defs>
      <g style="fill:#88aa00;" transform="translate(31.2075 138.312737)scale(0.1 -0.1)">
       <use xlink:href="#DejaVuSans-54"/>
      </g>
     </g>
    </g>
    <g id="ytick_5">
     <g id="line2d_5">
      <g>
       <use style="fill:#88aa00;stroke:#88aa00;stroke-width:0.8;" x="44.57" xlink:href="#m5a8d11f2e2" y="104.644692"/>
      </g>
     </g>
     <g id="text_25">
      <!-- 8 -->
      <defs>
       <path d="M 31.78125 34.625 
Q 24.75 34.625 20.71875 30.859375 
Q 16.703125 27.09375 16.703125 20.515625 
Q 16.703125 13.921875 20.71875 10.15625 
Q 24.75 6.390625 31.78125 6.390625 
Q 38.8125 6.390625 42.859375 10.171875 
Q 46.921875 13.96875 46.921875 20.515625 
Q 46.921875 27.09375 42.890625 30.859375 
Q 38.875 34.625 31.78125 34.625 
z
M 21.921875 38.8125 
Q 15.578125 40.375 12.03125 44.71875 
Q 8.5 49.078125 8.5 55.328125 
Q 8.5 64.0625 14.71875 69.140625 
Q 20.953125 74.21875 31.78125 74.21875 
Q 42.671875 74.21875 48.875 69.140625 
Q 55.078125 64.0625 55.078125 55.328125 
Q 55.078125 49.078125 51.53125 44.71875 
Q 48 40.375 41.703125 38.8125 
Q 48.828125 37.15625 52.796875 32.3125 
Q 56.78125 27.484375 56.78125 20.515625 
Q 56.78125 9.90625 50.3125 4.234375 
Q 43.84375 -1.421875 31.78125 -1.421875 
Q 19.734375 -1.421875 13.25 4.234375 
Q 6.78125 9.90625 6.78125 20.515625 
Q 6.78125 27.484375 10.78125 32.3125 
Q 14.796875 37.15625 21.921875 38.8125 
z
M 18.3125 54.390625 
Q 18.3125 48.734375 21.84375 45.5625 
Q 25.390625 42.390625 31.78125 42.390625 
Q 38.140625 42.390625 41.71875 45.5625 
Q 45.3125 48.734375 45.3125 54.390625 
Q 45.3125 60.0625 41.71875 63.234375 
Q 38.140625 66.40625 31.78125 66.40625 
Q 25.390625 66.40625 21.84375 63.234375 
Q 18.3125 60.0625 18.3125 54.390625 
z
" id="DejaVuSans-56"/>
      </defs>
      <g style="fill:#88aa00;" transform="translate(31.2075 108.44391)scale(0.1 -0.1)">
       <use xlink:href="#DejaVuSans-56"/>
      </g>
     </g>
    </g>
    <g id="ytick_6">
     <g id="line2d_6">
      <g>
       <use style="fill:#88aa00;stroke:#88aa00;stroke-width:0.8;" x="44.57" xlink:href="#m5a8d11f2e2" y="74.775864"/>
      </g>
     </g>
     <g id="text_26">
      <!-- 10 -->
      <defs>
       <path d="M 12.40625 8.296875 
L 28.515625 8.296875 
L 28.515625 63.921875 
L 10.984375 60.40625 
L 10.984375 69.390625 
L 28.421875 72.90625 
L 38.28125 72.90625 
L 38.28125 8.296875 
L 54.390625 8.296875 
L 54.390625 0 
L 12.40625 0 
z
" id="DejaVuSans-49"/>
      </defs>
      <g style="fill:#88aa00;" transform="translate(24.845 78.575083)scale(0.1 -0.1)">
       <use xlink:href="#DejaVuSans-49"/>
       <use x="63.623047" xlink:href="#DejaVuSans-48"/>
      </g>
     </g>
    </g>
    <g id="ytick_7">
     <g id="line2d_7">
      <g>
       <use style="fill:#88aa00;stroke:#88aa00;stroke-width:0.8;" x="44.57" xlink:href="#m5a8d11f2e2" y="44.907037"/>
      </g>
     </g>
     <g id="text_27">
      <!-- 12 -->
      <g style="fill:#88aa00;" transform="translate(24.845 48.706256)scale(0.1 -0.1)">
       <use xlink:href="#DejaVuSans-49"/>
       <use x="63.623047" xlink:href="#DejaVuSans-50"/>
      </g>
     </g>
    </g>
    <g id="ytick_8">
     <g id="line2d_8">
      <g>
       <use style="fill:#88aa00;stroke:#88aa00;stroke-width:0.8;" x="44.57" xlink:href="#m5a8d11f2e2" y="15.03821"/>
      </g>
     </g>
     <g id="text_28">
      <!-- 14 -->
      <g style="fill:#88aa00;" transform="translate(24.845 18.837429)scale(0.1 -0.1)">
       <use xlink:href="#DejaVuSans-49"/>
       <use x="63.623047" xlink:href="#DejaVuSans-52"/>
      </g>
     </g>
    </g>
    <g id="text_29">
     <!-- Relative AA abundance -->
     <defs>
      <path d="M 56.203125 29.59375 
L 56.203125 25.203125 
L 14.890625 25.203125 
Q 15.484375 15.921875 20.484375 11.0625 
Q 25.484375 6.203125 34.421875 6.203125 
Q 39.59375 6.203125 44.453125 7.46875 
Q 49.3125 8.734375 54.109375 11.28125 
L 54.109375 2.78125 
Q 49.265625 0.734375 44.1875 -0.34375 
Q 39.109375 -1.421875 33.890625 -1.421875 
Q 20.796875 -1.421875 13.15625 6.1875 
Q 5.515625 13.8125 5.515625 26.8125 
Q 5.515625 40.234375 12.765625 48.109375 
Q 20.015625 56 32.328125 56 
Q 43.359375 56 49.78125 48.890625 
Q 56.203125 41.796875 56.203125 29.59375 
z
M 47.21875 32.234375 
Q 47.125 39.59375 43.09375 43.984375 
Q 39.0625 48.390625 32.421875 48.390625 
Q 24.90625 48.390625 20.390625 44.140625 
Q 15.875 39.890625 15.1875 32.171875 
z
" id="DejaVuSans-101"/>
      <path d="M 9.421875 75.984375 
L 18.40625 75.984375 
L 18.40625 0 
L 9.421875 0 
z
" id="DejaVuSans-108"/>
      <path d="M 34.28125 27.484375 
Q 23.390625 27.484375 19.1875 25 
Q 14.984375 22.515625 14.984375 16.5 
Q 14.984375 11.71875 18.140625 8.90625 
Q 21.296875 6.109375 26.703125 6.109375 
Q 34.1875 6.109375 38.703125 11.40625 
Q 43.21875 16.703125 43.21875 25.484375 
L 43.21875 27.484375 
z
M 52.203125 31.203125 
L 52.203125 0 
L 43.21875 0 
L 43.21875 8.296875 
Q 40.140625 3.328125 35.546875 0.953125 
Q 30.953125 -1.421875 24.3125 -1.421875 
Q 15.921875 -1.421875 10.953125 3.296875 
Q 6 8.015625 6 15.921875 
Q 6 25.140625 12.171875 29.828125 
Q 18.359375 34.515625 30.609375 34.515625 
L 43.21875 34.515625 
L 43.21875 35.40625 
Q 43.21875 41.609375 39.140625 45 
Q 35.0625 48.390625 27.6875 48.390625 
Q 23 48.390625 18.546875 47.265625 
Q 14.109375 46.140625 10.015625 43.890625 
L 10.015625 52.203125 
Q 14.9375 54.109375 19.578125 55.046875 
Q 24.21875 56 28.609375 56 
Q 40.484375 56 46.34375 49.84375 
Q 52.203125 43.703125 52.203125 31.203125 
z
" id="DejaVuSans-97"/>
      <path d="M 18.3125 70.21875 
L 18.3125 54.6875 
L 36.8125 54.6875 
L 36.8125 47.703125 
L 18.3125 47.703125 
L 18.3125 18.015625 
Q 18.3125 11.328125 20.140625 9.421875 
Q 21.96875 7.515625 27.59375 7.515625 
L 36.8125 7.515625 
L 36.8125 0 
L 27.59375 0 
Q 17.1875 0 13.234375 3.875 
Q 9.28125 7.765625 9.28125 18.015625 
L 9.28125 47.703125 
L 2.6875 47.703125 
L 2.6875 54.6875 
L 9.28125 54.6875 
L 9.28125 70.21875 
z
" id="DejaVuSans-116"/>
      <path d="M 9.421875 54.6875 
L 18.40625 54.6875 
L 18.40625 0 
L 9.421875 0 
z
M 9.421875 75.984375 
L 18.40625 75.984375 
L 18.40625 64.59375 
L 9.421875 64.59375 
z
" id="DejaVuSans-105"/>
      <path d="M 2.984375 54.6875 
L 12.5 54.6875 
L 29.59375 8.796875 
L 46.6875 54.6875 
L 56.203125 54.6875 
L 35.6875 0 
L 23.484375 0 
z
" id="DejaVuSans-118"/>
      <path id="DejaVuSans-32"/>
      <path d="M 48.6875 27.296875 
Q 48.6875 37.203125 44.609375 42.84375 
Q 40.53125 48.484375 33.40625 48.484375 
Q 26.265625 48.484375 22.1875 42.84375 
Q 18.109375 37.203125 18.109375 27.296875 
Q 18.109375 17.390625 22.1875 11.75 
Q 26.265625 6.109375 33.40625 6.109375 
Q 40.53125 6.109375 44.609375 11.75 
Q 48.6875 17.390625 48.6875 27.296875 
z
M 18.109375 46.390625 
Q 20.953125 51.265625 25.265625 53.625 
Q 29.59375 56 35.59375 56 
Q 45.5625 56 51.78125 48.09375 
Q 58.015625 40.1875 58.015625 27.296875 
Q 58.015625 14.40625 51.78125 6.484375 
Q 45.5625 -1.421875 35.59375 -1.421875 
Q 29.59375 -1.421875 25.265625 0.953125 
Q 20.953125 3.328125 18.109375 8.203125 
L 18.109375 0 
L 9.078125 0 
L 9.078125 75.984375 
L 18.109375 75.984375 
z
" id="DejaVuSans-98"/>
      <path d="M 8.5 21.578125 
L 8.5 54.6875 
L 17.484375 54.6875 
L 17.484375 21.921875 
Q 17.484375 14.15625 20.5 10.265625 
Q 23.53125 6.390625 29.59375 6.390625 
Q 36.859375 6.390625 41.078125 11.03125 
Q 45.3125 15.671875 45.3125 23.6875 
L 45.3125 54.6875 
L 54.296875 54.6875 
L 54.296875 0 
L 45.3125 0 
L 45.3125 8.40625 
Q 42.046875 3.421875 37.71875 1 
Q 33.40625 -1.421875 27.6875 -1.421875 
Q 18.265625 -1.421875 13.375 4.4375 
Q 8.5 10.296875 8.5 21.578125 
z
M 31.109375 56 
z
" id="DejaVuSans-117"/>
      <path d="M 54.890625 33.015625 
L 54.890625 0 
L 45.90625 0 
L 45.90625 32.71875 
Q 45.90625 40.484375 42.875 44.328125 
Q 39.84375 48.1875 33.796875 48.1875 
Q 26.515625 48.1875 22.3125 43.546875 
Q 18.109375 38.921875 18.109375 30.90625 
L 18.109375 0 
L 9.078125 0 
L 9.078125 54.6875 
L 18.109375 54.6875 
L 18.109375 46.1875 
Q 21.34375 51.125 25.703125 53.5625 
Q 30.078125 56 35.796875 56 
Q 45.21875 56 50.046875 50.171875 
Q 54.890625 44.34375 54.890625 33.015625 
z
" id="DejaVuSans-110"/>
      <path d="M 45.40625 46.390625 
L 45.40625 75.984375 
L 54.390625 75.984375 
L 54.390625 0 
L 45.40625 0 
L 45.40625 8.203125 
Q 42.578125 3.328125 38.25 0.953125 
Q 33.9375 -1.421875 27.875 -1.421875 
Q 17.96875 -1.421875 11.734375 6.484375 
Q 5.515625 14.40625 5.515625 27.296875 
Q 5.515625 40.1875 11.734375 48.09375 
Q 17.96875 56 27.875 56 
Q 33.9375 56 38.25 53.625 
Q 42.578125 51.265625 45.40625 46.390625 
z
M 14.796875 27.296875 
Q 14.796875 17.390625 18.875 11.75 
Q 22.953125 6.109375 30.078125 6.109375 
Q 37.203125 6.109375 41.296875 11.75 
Q 45.40625 17.390625 45.40625 27.296875 
Q 45.40625 37.203125 41.296875 42.84375 
Q 37.203125 48.484375 30.078125 48.484375 
Q 22.953125 48.484375 18.875 42.84375 
Q 14.796875 37.203125 14.796875 27.296875 
z
" id="DejaVuSans-100"/>
      <path d="M 48.78125 52.59375 
L 48.78125 44.1875 
Q 44.96875 46.296875 41.140625 47.34375 
Q 37.3125 48.390625 33.40625 48.390625 
Q 24.65625 48.390625 19.8125 42.84375 
Q 14.984375 37.3125 14.984375 27.296875 
Q 14.984375 17.28125 19.8125 11.734375 
Q 24.65625 6.203125 33.40625 6.203125 
Q 37.3125 6.203125 41.140625 7.25 
Q 44.96875 8.296875 48.78125 10.40625 
L 48.78125 2.09375 
Q 45.015625 0.34375 40.984375 -0.53125 
Q 36.96875 -1.421875 32.421875 -1.421875 
Q 20.0625 -1.421875 12.78125 6.34375 
Q 5.515625 14.109375 5.515625 27.296875 
Q 5.515625 40.671875 12.859375 48.328125 
Q 20.21875 56 33.015625 56 
Q 37.15625 56 41.109375 55.140625 
Q 45.0625 54.296875 48.78125 52.59375 
z
" id="DejaVuSans-99"/>
     </defs>
     <g style="fill:#88aa00;" transform="translate(18.765313 176.177785)rotate(-90)scale(0.1 -0.1)">
      <use xlink:href="#DejaVuSans-82"/>
      <use x="69.419922" xlink:href="#DejaVuSans-101"/>
      <use x="130.943359" xlink:href="#DejaVuSans-108"/>
      <use x="158.726562" xlink:href="#DejaVuSans-97"/>
      <use x="220.005859" xlink:href="#DejaVuSans-116"/>
      <use x="259.214844" xlink:href="#DejaVuSans-105"/>
      <use x="286.998047" xlink:href="#DejaVuSans-118"/>
      <use x="346.177734" xlink:href="#DejaVuSans-101"/>
      <use x="407.701172" xlink:href="#DejaVuSans-32"/>
      <use x="439.488281" xlink:href="#DejaVuSans-65"/>
      <use x="507.927734" xlink:href="#DejaVuSans-65"/>
      <use x="576.335938" xlink:href="#DejaVuSans-32"/>
      <use x="608.123047" xlink:href="#DejaVuSans-97"/>
      <use x="669.402344" xlink:href="#DejaVuSans-98"/>
      <use x="732.878906" xlink:href="#DejaVuSans-117"/>
      <use x="796.257812" xlink:href="#DejaVuSans-110"/>
      <use x="859.636719" xlink:href="#DejaVuSans-100"/>
      <use x="923.113281" xlink:href="#DejaVuSans-97"/>
      <use x="984.392578" xlink:href="#DejaVuSans-110"/>
      <use x="1047.771484" xlink:href="#DejaVuSans-99"/>
      <use x="1102.751953" xlink:href="#DejaVuSans-101"/>
     </g>
    </g>
   </g>
   <g id="patch_3">
    <path clip-path="url(#p0caa17654e)" d="M 63.946762 224.12 
L 68.790952 224.12 
L 68.790952 72.467059 
L 63.946762 72.467059 
z
" style="fill:#88aa00;"/>
   </g>
   <g id="patch_4">
    <path clip-path="url(#p0caa17654e)" d="M 88.167714 224.12 
L 93.011905 224.12 
L 93.011905 207.849996 
L 88.167714 207.849996 
z
" style="fill:#88aa00;"/>
   </g>
   <g id="patch_5">
    <path clip-path="url(#p0caa17654e)" d="M 112.388667 224.12 
L 117.232857 224.12 
L 117.232857 211.240332 
L 112.388667 211.240332 
z
" style="fill:#88aa00;"/>
   </g>
   <g id="patch_6">
    <path clip-path="url(#p0caa17654e)" d="M 136.609619 224.12 
L 141.45381 224.12 
L 141.45381 207.715572 
L 136.609619 207.715572 
z
" style="fill:#88aa00;"/>
   </g>
   <g id="patch_7">
    <path clip-path="url(#p0caa17654e)" d="M 160.830571 224.12 
L 165.674762 224.12 
L 165.674762 212.109589 
L 160.830571 212.109589 
z
" style="fill:#88aa00;"/>
   </g>
   <g id="patch_8">
    <path clip-path="url(#p0caa17654e)" d="M 185.051524 224.12 
L 189.895714 224.12 
L 189.895714 208.135001 
L 185.051524 208.135001 
z
" style="fill:#88aa00;"/>
   </g>
   <g id="patch_9">
    <path clip-path="url(#p0caa17654e)" d="M 209.272476 224.12 
L 214.116667 224.12 
L 214.116667 209.995195 
L 209.272476 209.995195 
z
" style="fill:#88aa00;"/>
   </g>
   <g id="patch_10">
    <path clip-path="url(#p0caa17654e)" d="M 233.493429 224.12 
L 238.337619 224.12 
L 238.337619 216.424476 
L 233.493429 216.424476 
z
" style="fill:#88aa00;"/>
   </g>
   <g id="patch_11">
    <path clip-path="url(#p0caa17654e)" d="M 257.714381 224.12 
L 262.558571 224.12 
L 262.558571 206.587633 
L 257.714381 206.587633 
z
" style="fill:#88aa00;"/>
   </g>
   <g id="patch_12">
    <path clip-path="url(#p0caa17654e)" d="M 281.935333 224.12 
L 286.779524 224.12 
L 286.779524 215.843938 
L 281.935333 215.843938 
z
" style="fill:#88aa00;"/>
   </g>
   <g id="patch_13">
    <path clip-path="url(#p0caa17654e)" d="M 306.156286 224.12 
L 311.000476 224.12 
L 311.000476 207.835811 
L 306.156286 207.835811 
z
" style="fill:#88aa00;"/>
   </g>
   <g id="patch_14">
    <path clip-path="url(#p0caa17654e)" d="M 330.377238 224.12 
L 335.221429 224.12 
L 335.221429 206.735804 
L 330.377238 206.735804 
z
" style="fill:#88aa00;"/>
   </g>
   <g id="patch_15">
    <path clip-path="url(#p0caa17654e)" d="M 354.59819 224.12 
L 359.442381 224.12 
L 359.442381 213.396711 
L 354.59819 213.396711 
z
" style="fill:#88aa00;"/>
   </g>
   <g id="patch_16">
    <path clip-path="url(#p0caa17654e)" d="M 378.819143 224.12 
L 383.663333 224.12 
L 383.663333 207.923329 
L 378.819143 207.923329 
z
" style="fill:#88aa00;"/>
   </g>
   <g id="patch_17">
    <path clip-path="url(#p0caa17654e)" d="M 403.040095 224.12 
L 407.884286 224.12 
L 407.884286 207.586185 
L 403.040095 207.586185 
z
" style="fill:#88aa00;"/>
   </g>
   <g id="patch_18">
    <path clip-path="url(#p0caa17654e)" d="M 427.261048 224.12 
L 432.105238 224.12 
L 432.105238 207.32225 
L 427.261048 207.32225 
z
" style="fill:#88aa00;"/>
   </g>
   <g id="patch_19">
    <path clip-path="url(#p0caa17654e)" d="M 451.482 224.12 
L 456.32619 224.12 
L 456.32619 210.03261 
L 451.482 210.03261 
z
" style="fill:#88aa00;"/>
   </g>
   <g id="patch_20">
    <path clip-path="url(#p0caa17654e)" d="M 475.702952 224.12 
L 480.547143 224.12 
L 480.547143 206.859736 
L 475.702952 206.859736 
z
" style="fill:#88aa00;"/>
   </g>
   <g id="patch_21">
    <path clip-path="url(#p0caa17654e)" d="M 499.923905 224.12 
L 504.768095 224.12 
L 504.768095 209.640377 
L 499.923905 209.640377 
z
" style="fill:#88aa00;"/>
   </g>
   <g id="patch_22">
    <path clip-path="url(#p0caa17654e)" d="M 524.144857 224.12 
L 528.989048 224.12 
L 528.989048 214.14995 
L 524.144857 214.14995 
z
" style="fill:#88aa00;"/>
   </g>
   <g id="LineCollection_1">
    <path clip-path="url(#p0caa17654e)" d="M 66.368857 77.777295 
L 66.368857 67.156823 
" style="fill:none;stroke:#000000;stroke-width:1.5;"/>
    <path clip-path="url(#p0caa17654e)" d="M 90.58981 208.700515 
L 90.58981 206.999476 
" style="fill:none;stroke:#000000;stroke-width:1.5;"/>
    <path clip-path="url(#p0caa17654e)" d="M 114.810762 212.176169 
L 114.810762 210.304495 
" style="fill:none;stroke:#000000;stroke-width:1.5;"/>
    <path clip-path="url(#p0caa17654e)" d="M 139.031714 209.47707 
L 139.031714 205.954074 
" style="fill:none;stroke:#000000;stroke-width:1.5;"/>
    <path clip-path="url(#p0caa17654e)" d="M 163.252667 212.647627 
L 163.252667 211.571551 
" style="fill:none;stroke:#000000;stroke-width:1.5;"/>
    <path clip-path="url(#p0caa17654e)" d="M 187.473619 209.527284 
L 187.473619 206.742717 
" style="fill:none;stroke:#000000;stroke-width:1.5;"/>
    <path clip-path="url(#p0caa17654e)" d="M 211.694571 210.827525 
L 211.694571 209.162866 
" style="fill:none;stroke:#000000;stroke-width:1.5;"/>
    <path clip-path="url(#p0caa17654e)" d="M 235.915524 216.879182 
L 235.915524 215.96977 
" style="fill:none;stroke:#000000;stroke-width:1.5;"/>
    <path clip-path="url(#p0caa17654e)" d="M 260.136476 207.542959 
L 260.136476 205.632306 
" style="fill:none;stroke:#000000;stroke-width:1.5;"/>
    <path clip-path="url(#p0caa17654e)" d="M 284.357429 217.445978 
L 284.357429 214.241898 
" style="fill:none;stroke:#000000;stroke-width:1.5;"/>
    <path clip-path="url(#p0caa17654e)" d="M 308.578381 209.326833 
L 308.578381 206.344789 
" style="fill:none;stroke:#000000;stroke-width:1.5;"/>
    <path clip-path="url(#p0caa17654e)" d="M 332.799333 207.745108 
L 332.799333 205.7265 
" style="fill:none;stroke:#000000;stroke-width:1.5;"/>
    <path clip-path="url(#p0caa17654e)" d="M 357.020286 214.443106 
L 357.020286 212.350316 
" style="fill:none;stroke:#000000;stroke-width:1.5;"/>
    <path clip-path="url(#p0caa17654e)" d="M 381.241238 208.763998 
L 381.241238 207.08266 
" style="fill:none;stroke:#000000;stroke-width:1.5;"/>
    <path clip-path="url(#p0caa17654e)" d="M 405.46219 208.774868 
L 405.46219 206.397502 
" style="fill:none;stroke:#000000;stroke-width:1.5;"/>
    <path clip-path="url(#p0caa17654e)" d="M 429.683143 208.312909 
L 429.683143 206.331591 
" style="fill:none;stroke:#000000;stroke-width:1.5;"/>
    <path clip-path="url(#p0caa17654e)" d="M 453.904095 210.783302 
L 453.904095 209.281917 
" style="fill:none;stroke:#000000;stroke-width:1.5;"/>
    <path clip-path="url(#p0caa17654e)" d="M 478.125048 207.795446 
L 478.125048 205.924027 
" style="fill:none;stroke:#000000;stroke-width:1.5;"/>
    <path clip-path="url(#p0caa17654e)" d="M 502.346 210.510289 
L 502.346 208.770465 
" style="fill:none;stroke:#000000;stroke-width:1.5;"/>
    <path clip-path="url(#p0caa17654e)" d="M 526.566952 214.808654 
L 526.566952 213.491246 
" style="fill:none;stroke:#000000;stroke-width:1.5;"/>
   </g>
   <g id="LineCollection_2">
    <path clip-path="url(#p0caa17654e)" d="M 44.57 209.185586 
L 553.21 209.185586 
" style="fill:none;stroke:#006688;stroke-dasharray:5.55,2.4;stroke-dashoffset:0;stroke-width:1.5;"/>
   </g>
   <g id="patch_23">
    <path d="M 44.57 224.12 
L 44.57 11.805882 
" style="fill:none;stroke:#88aa00;stroke-linecap:square;stroke-linejoin:miter;stroke-width:0.8;"/>
   </g>
   <g id="patch_24">
    <path d="M 553.21 224.12 
L 553.21 11.805882 
" style="fill:none;stroke:#ff6600;stroke-linecap:square;stroke-linejoin:miter;stroke-width:0.8;"/>
   </g>
   <g id="patch_25">
    <path d="M 44.57 224.12 
L 553.21 224.12 
" style="fill:none;stroke:#262626;stroke-linecap:square;stroke-linejoin:miter;stroke-width:0.8;"/>
   </g>
   <g id="patch_26">
    <path d="M 44.57 11.805882 
L 553.21 11.805882 
" style="fill:none;stroke:#262626;stroke-linecap:square;stroke-linejoin:miter;stroke-width:0.8;"/>
   </g>
  </g>
  <g id="axes_2">
   <g id="matplotlib.axis_3">
    <g id="ytick_9">
     <g id="line2d_9">
      <defs>
       <path d="M 0 0 
L 3.5 0 
" id="mc15eb7a05f" style="stroke:#ff6600;stroke-width:0.8;"/>
      </defs>
      <g>
       <use style="fill:#ff6600;stroke:#ff6600;stroke-width:0.8;" x="553.21" xlink:href="#mc15eb7a05f" y="224.12"/>
      </g>
     </g>
     <g id="text_30">
      <!-- 0 -->
      <g style="fill:#ff6600;" transform="translate(560.21 227.919219)scale(0.1 -0.1)">
       <use xlink:href="#DejaVuSans-48"/>
      </g>
     </g>
    </g>
    <g id="ytick_10">
     <g id="line2d_10">
      <g>
       <use style="fill:#ff6600;stroke:#ff6600;stroke-width:0.8;" x="553.21" xlink:href="#mc15eb7a05f" y="190.149741"/>
      </g>
     </g>
     <g id="text_31">
      <!-- 20 -->
      <g style="fill:#ff6600;" transform="translate(560.21 193.94896)scale(0.1 -0.1)">
       <use xlink:href="#DejaVuSans-50"/>
       <use x="63.623047" xlink:href="#DejaVuSans-48"/>
      </g>
     </g>
    </g>
    <g id="ytick_11">
     <g id="line2d_11">
      <g>
       <use style="fill:#ff6600;stroke:#ff6600;stroke-width:0.8;" x="553.21" xlink:href="#mc15eb7a05f" y="156.179482"/>
      </g>
     </g>
     <g id="text_32">
      <!-- 40 -->
      <g style="fill:#ff6600;" transform="translate(560.21 159.978701)scale(0.1 -0.1)">
       <use xlink:href="#DejaVuSans-52"/>
       <use x="63.623047" xlink:href="#DejaVuSans-48"/>
      </g>
     </g>
    </g>
    <g id="ytick_12">
     <g id="line2d_12">
      <g>
       <use style="fill:#ff6600;stroke:#ff6600;stroke-width:0.8;" x="553.21" xlink:href="#mc15eb7a05f" y="122.209224"/>
      </g>
     </g>
     <g id="text_33">
      <!-- 60 -->
      <g style="fill:#ff6600;" transform="translate(560.21 126.008442)scale(0.1 -0.1)">
       <use xlink:href="#DejaVuSans-54"/>
       <use x="63.623047" xlink:href="#DejaVuSans-48"/>
      </g>
     </g>
    </g>
    <g id="ytick_13">
     <g id="line2d_13">
      <g>
       <use style="fill:#ff6600;stroke:#ff6600;stroke-width:0.8;" x="553.21" xlink:href="#mc15eb7a05f" y="88.238965"/>
      </g>
     </g>
     <g id="text_34">
      <!-- 80 -->
      <g style="fill:#ff6600;" transform="translate(560.21 92.038183)scale(0.1 -0.1)">
       <use xlink:href="#DejaVuSans-56"/>
       <use x="63.623047" xlink:href="#DejaVuSans-48"/>
      </g>
     </g>
    </g>
    <g id="ytick_14">
     <g id="line2d_14">
      <g>
       <use style="fill:#ff6600;stroke:#ff6600;stroke-width:0.8;" x="553.21" xlink:href="#mc15eb7a05f" y="54.268706"/>
      </g>
     </g>
     <g id="text_35">
      <!-- 100 -->
      <g style="fill:#ff6600;" transform="translate(560.21 58.067925)scale(0.1 -0.1)">
       <use xlink:href="#DejaVuSans-49"/>
       <use x="63.623047" xlink:href="#DejaVuSans-48"/>
       <use x="127.246094" xlink:href="#DejaVuSans-48"/>
      </g>
     </g>
    </g>
    <g id="text_36">
     <!-- Peptides with AA, % -->
     <defs>
      <path d="M 18.109375 8.203125 
L 18.109375 -20.796875 
L 9.078125 -20.796875 
L 9.078125 54.6875 
L 18.109375 54.6875 
L 18.109375 46.390625 
Q 20.953125 51.265625 25.265625 53.625 
Q 29.59375 56 35.59375 56 
Q 45.5625 56 51.78125 48.09375 
Q 58.015625 40.1875 58.015625 27.296875 
Q 58.015625 14.40625 51.78125 6.484375 
Q 45.5625 -1.421875 35.59375 -1.421875 
Q 29.59375 -1.421875 25.265625 0.953125 
Q 20.953125 3.328125 18.109375 8.203125 
z
M 48.6875 27.296875 
Q 48.6875 37.203125 44.609375 42.84375 
Q 40.53125 48.484375 33.40625 48.484375 
Q 26.265625 48.484375 22.1875 42.84375 
Q 18.109375 37.203125 18.109375 27.296875 
Q 18.109375 17.390625 22.1875 11.75 
Q 26.265625 6.109375 33.40625 6.109375 
Q 40.53125 6.109375 44.609375 11.75 
Q 48.6875 17.390625 48.6875 27.296875 
z
" id="DejaVuSans-112"/>
      <path d="M 44.28125 53.078125 
L 44.28125 44.578125 
Q 40.484375 46.53125 36.375 47.5 
Q 32.28125 48.484375 27.875 48.484375 
Q 21.1875 48.484375 17.84375 46.4375 
Q 14.5 44.390625 14.5 40.28125 
Q 14.5 37.15625 16.890625 35.375 
Q 19.28125 33.59375 26.515625 31.984375 
L 29.59375 31.296875 
Q 39.15625 29.25 43.1875 25.515625 
Q 47.21875 21.78125 47.21875 15.09375 
Q 47.21875 7.46875 41.1875 3.015625 
Q 35.15625 -1.421875 24.609375 -1.421875 
Q 20.21875 -1.421875 15.453125 -0.5625 
Q 10.6875 0.296875 5.421875 2 
L 5.421875 11.28125 
Q 10.40625 8.6875 15.234375 7.390625 
Q 20.0625 6.109375 24.8125 6.109375 
Q 31.15625 6.109375 34.5625 8.28125 
Q 37.984375 10.453125 37.984375 14.40625 
Q 37.984375 18.0625 35.515625 20.015625 
Q 33.0625 21.96875 24.703125 23.78125 
L 21.578125 24.515625 
Q 13.234375 26.265625 9.515625 29.90625 
Q 5.8125 33.546875 5.8125 39.890625 
Q 5.8125 47.609375 11.28125 51.796875 
Q 16.75 56 26.8125 56 
Q 31.78125 56 36.171875 55.265625 
Q 40.578125 54.546875 44.28125 53.078125 
z
" id="DejaVuSans-115"/>
      <path d="M 4.203125 54.6875 
L 13.1875 54.6875 
L 24.421875 12.015625 
L 35.59375 54.6875 
L 46.1875 54.6875 
L 57.421875 12.015625 
L 68.609375 54.6875 
L 77.59375 54.6875 
L 63.28125 0 
L 52.6875 0 
L 40.921875 44.828125 
L 29.109375 0 
L 18.5 0 
z
" id="DejaVuSans-119"/>
      <path d="M 54.890625 33.015625 
L 54.890625 0 
L 45.90625 0 
L 45.90625 32.71875 
Q 45.90625 40.484375 42.875 44.328125 
Q 39.84375 48.1875 33.796875 48.1875 
Q 26.515625 48.1875 22.3125 43.546875 
Q 18.109375 38.921875 18.109375 30.90625 
L 18.109375 0 
L 9.078125 0 
L 9.078125 75.984375 
L 18.109375 75.984375 
L 18.109375 46.1875 
Q 21.34375 51.125 25.703125 53.5625 
Q 30.078125 56 35.796875 56 
Q 45.21875 56 50.046875 50.171875 
Q 54.890625 44.34375 54.890625 33.015625 
z
" id="DejaVuSans-104"/>
      <path d="M 11.71875 12.40625 
L 22.015625 12.40625 
L 22.015625 4 
L 14.015625 -11.625 
L 7.71875 -11.625 
L 11.71875 4 
z
" id="DejaVuSans-44"/>
      <path d="M 72.703125 32.078125 
Q 68.453125 32.078125 66.03125 28.46875 
Q 63.625 24.859375 63.625 18.40625 
Q 63.625 12.0625 66.03125 8.421875 
Q 68.453125 4.78125 72.703125 4.78125 
Q 76.859375 4.78125 79.265625 8.421875 
Q 81.6875 12.0625 81.6875 18.40625 
Q 81.6875 24.8125 79.265625 28.4375 
Q 76.859375 32.078125 72.703125 32.078125 
z
M 72.703125 38.28125 
Q 80.421875 38.28125 84.953125 32.90625 
Q 89.5 27.546875 89.5 18.40625 
Q 89.5 9.28125 84.9375 3.921875 
Q 80.375 -1.421875 72.703125 -1.421875 
Q 64.890625 -1.421875 60.34375 3.921875 
Q 55.8125 9.28125 55.8125 18.40625 
Q 55.8125 27.59375 60.375 32.9375 
Q 64.9375 38.28125 72.703125 38.28125 
z
M 22.3125 68.015625 
Q 18.109375 68.015625 15.6875 64.375 
Q 13.28125 60.75 13.28125 54.390625 
Q 13.28125 47.953125 15.671875 44.328125 
Q 18.0625 40.71875 22.3125 40.71875 
Q 26.5625 40.71875 28.96875 44.328125 
Q 31.390625 47.953125 31.390625 54.390625 
Q 31.390625 60.6875 28.953125 64.34375 
Q 26.515625 68.015625 22.3125 68.015625 
z
M 66.40625 74.21875 
L 74.21875 74.21875 
L 28.609375 -1.421875 
L 20.796875 -1.421875 
z
M 22.3125 74.21875 
Q 30.03125 74.21875 34.609375 68.875 
Q 39.203125 63.53125 39.203125 54.390625 
Q 39.203125 45.171875 34.640625 39.84375 
Q 30.078125 34.515625 22.3125 34.515625 
Q 14.546875 34.515625 10.03125 39.859375 
Q 5.515625 45.21875 5.515625 54.390625 
Q 5.515625 63.484375 10.046875 68.84375 
Q 14.59375 74.21875 22.3125 74.21875 
z
" id="DejaVuSans-37"/>
     </defs>
     <g style="fill:#ff6600;" transform="translate(590.895937 167.98716)rotate(-90)scale(0.1 -0.1)">
      <use xlink:href="#DejaVuSans-80"/>
      <use x="60.255859" xlink:href="#DejaVuSans-101"/>
      <use x="121.779297" xlink:href="#DejaVuSans-112"/>
      <use x="185.255859" xlink:href="#DejaVuSans-116"/>
      <use x="224.464844" xlink:href="#DejaVuSans-105"/>
      <use x="252.248047" xlink:href="#DejaVuSans-100"/>
      <use x="315.724609" xlink:href="#DejaVuSans-101"/>
      <use x="377.248047" xlink:href="#DejaVuSans-115"/>
      <use x="429.347656" xlink:href="#DejaVuSans-32"/>
      <use x="461.134766" xlink:href="#DejaVuSans-119"/>
      <use x="542.921875" xlink:href="#DejaVuSans-105"/>
      <use x="570.705078" xlink:href="#DejaVuSans-116"/>
      <use x="609.914062" xlink:href="#DejaVuSans-104"/>
      <use x="673.292969" xlink:href="#DejaVuSans-32"/>
      <use x="705.080078" xlink:href="#DejaVuSans-65"/>
      <use x="773.519531" xlink:href="#DejaVuSans-65"/>
      <use x="841.927734" xlink:href="#DejaVuSans-44"/>
      <use x="873.714844" xlink:href="#DejaVuSans-32"/>
      <use x="905.501953" xlink:href="#DejaVuSans-37"/>
     </g>
    </g>
   </g>
   <g id="patch_27">
    <path clip-path="url(#p0caa17654e)" d="M 68.790952 224.12 
L 73.635143 224.12 
L 73.635143 83.143426 
L 68.790952 83.143426 
z
" style="fill:#ff6600;"/>
   </g>
   <g id="patch_28">
    <path clip-path="url(#p0caa17654e)" d="M 93.011905 224.12 
L 97.856095 224.12 
L 97.856095 84.841939 
L 93.011905 84.841939 
z
" style="fill:#ff6600;"/>
   </g>
   <g id="patch_29">
    <path clip-path="url(#p0caa17654e)" d="M 117.232857 224.12 
L 122.077048 224.12 
L 122.077048 108.62112 
L 117.232857 108.62112 
z
" style="fill:#ff6600;"/>
   </g>
   <g id="patch_30">
    <path clip-path="url(#p0caa17654e)" d="M 141.45381 224.12 
L 146.298 224.12 
L 146.298 154.480969 
L 141.45381 154.480969 
z
" style="fill:#ff6600;"/>
   </g>
   <g id="patch_31">
    <path clip-path="url(#p0caa17654e)" d="M 165.674762 224.12 
L 170.518952 224.12 
L 170.518952 67.856809 
L 165.674762 67.856809 
z
" style="fill:#ff6600;"/>
   </g>
   <g id="patch_32">
    <path clip-path="url(#p0caa17654e)" d="M 189.895714 224.12 
L 194.739905 224.12 
L 194.739905 157.877995 
L 189.895714 157.877995 
z
" style="fill:#ff6600;"/>
   </g>
   <g id="patch_33">
    <path clip-path="url(#p0caa17654e)" d="M 214.116667 224.12 
L 218.960857 224.12 
L 218.960857 86.540452 
L 214.116667 86.540452 
z
" style="fill:#ff6600;"/>
   </g>
   <g id="patch_34">
    <path clip-path="url(#p0caa17654e)" d="M 238.337619 224.12 
L 243.18181 224.12 
L 243.18181 129.003275 
L 238.337619 129.003275 
z
" style="fill:#ff6600;"/>
   </g>
   <g id="patch_35">
    <path clip-path="url(#p0caa17654e)" d="M 262.558571 224.12 
L 267.402762 224.12 
L 267.402762 78.047887 
L 262.558571 78.047887 
z
" style="fill:#ff6600;"/>
   </g>
   <g id="patch_36">
    <path clip-path="url(#p0caa17654e)" d="M 286.779524 224.12 
L 291.623714 224.12 
L 291.623714 203.737845 
L 286.779524 203.737845 
z
" style="fill:#ff6600;"/>
   </g>
   <g id="patch_37">
    <path clip-path="url(#p0caa17654e)" d="M 311.000476 224.12 
L 315.844667 224.12 
L 315.844667 127.304762 
L 311.000476 127.304762 
z
" style="fill:#ff6600;"/>
   </g>
   <g id="patch_38">
    <path clip-path="url(#p0caa17654e)" d="M 335.221429 224.12 
L 340.065619 224.12 
L 340.065619 88.238965 
L 335.221429 88.238965 
z
" style="fill:#ff6600;"/>
   </g>
   <g id="patch_39">
    <path clip-path="url(#p0caa17654e)" d="M 359.442381 224.12 
L 364.286571 224.12 
L 364.286571 129.003275 
L 359.442381 129.003275 
z
" style="fill:#ff6600;"/>
   </g>
   <g id="patch_40">
    <path clip-path="url(#p0caa17654e)" d="M 383.663333 224.12 
L 388.507524 224.12 
L 388.507524 69.555322 
L 383.663333 69.555322 
z
" style="fill:#ff6600;"/>
   </g>
   <g id="patch_41">
    <path clip-path="url(#p0caa17654e)" d="M 407.884286 224.12 
L 412.728476 224.12 
L 412.728476 110.319633 
L 407.884286 110.319633 
z
" style="fill:#ff6600;"/>
   </g>
   <g id="patch_42">
    <path clip-path="url(#p0caa17654e)" d="M 432.105238 224.12 
L 436.949429 224.12 
L 436.949429 86.540452 
L 432.105238 86.540452 
z
" style="fill:#ff6600;"/>
   </g>
   <g id="patch_43">
    <path clip-path="url(#p0caa17654e)" d="M 456.32619 224.12 
L 461.170381 224.12 
L 461.170381 84.841939 
L 456.32619 84.841939 
z
" style="fill:#ff6600;"/>
   </g>
   <g id="patch_44">
    <path clip-path="url(#p0caa17654e)" d="M 480.547143 224.12 
L 485.391333 224.12 
L 485.391333 88.238965 
L 480.547143 88.238965 
z
" style="fill:#ff6600;"/>
   </g>
   <g id="patch_45">
    <path clip-path="url(#p0caa17654e)" d="M 504.768095 224.12 
L 509.612286 224.12 
L 509.612286 101.827068 
L 504.768095 101.827068 
z
" style="fill:#ff6600;"/>
   </g>
   <g id="patch_46">
    <path clip-path="url(#p0caa17654e)" d="M 528.989048 224.12 
L 533.833238 224.12 
L 533.833238 112.018146 
L 528.989048 112.018146 
z
" style="fill:#ff6600;"/>
   </g>
   <g id="patch_47">
    <path d="M 44.57 224.12 
L 44.57 11.805882 
" style="fill:none;stroke:#88aa00;stroke-linecap:square;stroke-linejoin:miter;stroke-width:0.8;"/>
   </g>
   <g id="patch_48">
    <path d="M 553.21 224.12 
L 553.21 11.805882 
" style="fill:none;stroke:#ff6600;stroke-linecap:square;stroke-linejoin:miter;stroke-width:0.8;"/>
   </g>
   <g id="patch_49">
    <path d="M 44.57 224.12 
L 553.21 224.12 
" style="fill:none;stroke:#262626;stroke-linecap:square;stroke-linejoin:miter;stroke-width:0.8;"/>
   </g>
   <g id="patch_50">
    <path d="M 44.57 11.805882 
L 553.21 11.805882 
" style="fill:none;stroke:#262626;stroke-linecap:square;stroke-linejoin:miter;stroke-width:0.8;"/>
   </g>
   <g id="legend_1">
    <g id="patch_51">
     <path d="M 409.885 56.879632 
L 546.21 56.879632 
Q 548.21 56.879632 548.21 54.879632 
L 548.21 18.805882 
Q 548.21 16.805882 546.21 16.805882 
L 409.885 16.805882 
Q 407.885 16.805882 407.885 18.805882 
L 407.885 54.879632 
Q 407.885 56.879632 409.885 56.879632 
z
" style="fill:#ffffff;opacity:0.8;stroke:#696969;stroke-linejoin:miter;"/>
    </g>
    <g id="line2d_15">
     <path d="M 411.885 37.141976 
L 411.885 37.141976 
" style="fill:none;stroke:#1f77b4;stroke-linecap:round;stroke-opacity:0;stroke-width:1.5;"/>
    </g>
    <g id="line2d_16"/>
    <g id="text_37">
     <!-- +46.0289 Da mass shift, -->
     <defs>
      <path d="M 46 62.703125 
L 46 35.5 
L 73.1875 35.5 
L 73.1875 27.203125 
L 46 27.203125 
L 46 0 
L 37.796875 0 
L 37.796875 27.203125 
L 10.59375 27.203125 
L 10.59375 35.5 
L 37.796875 35.5 
L 37.796875 62.703125 
z
" id="DejaVuSans-43"/>
      <path d="M 10.6875 12.40625 
L 21 12.40625 
L 21 0 
L 10.6875 0 
z
" id="DejaVuSans-46"/>
      <path d="M 10.984375 1.515625 
L 10.984375 10.5 
Q 14.703125 8.734375 18.5 7.8125 
Q 22.3125 6.890625 25.984375 6.890625 
Q 35.75 6.890625 40.890625 13.453125 
Q 46.046875 20.015625 46.78125 33.40625 
Q 43.953125 29.203125 39.59375 26.953125 
Q 35.25 24.703125 29.984375 24.703125 
Q 19.046875 24.703125 12.671875 31.3125 
Q 6.296875 37.9375 6.296875 49.421875 
Q 6.296875 60.640625 12.9375 67.421875 
Q 19.578125 74.21875 30.609375 74.21875 
Q 43.265625 74.21875 49.921875 64.515625 
Q 56.59375 54.828125 56.59375 36.375 
Q 56.59375 19.140625 48.40625 8.859375 
Q 40.234375 -1.421875 26.421875 -1.421875 
Q 22.703125 -1.421875 18.890625 -0.6875 
Q 15.09375 0.046875 10.984375 1.515625 
z
M 30.609375 32.421875 
Q 37.25 32.421875 41.125 36.953125 
Q 45.015625 41.5 45.015625 49.421875 
Q 45.015625 57.28125 41.125 61.84375 
Q 37.25 66.40625 30.609375 66.40625 
Q 23.96875 66.40625 20.09375 61.84375 
Q 16.21875 57.28125 16.21875 49.421875 
Q 16.21875 41.5 20.09375 36.953125 
Q 23.96875 32.421875 30.609375 32.421875 
z
" id="DejaVuSans-57"/>
      <path d="M 52 44.1875 
Q 55.375 50.25 60.0625 53.125 
Q 64.75 56 71.09375 56 
Q 79.640625 56 84.28125 50.015625 
Q 88.921875 44.046875 88.921875 33.015625 
L 88.921875 0 
L 79.890625 0 
L 79.890625 32.71875 
Q 79.890625 40.578125 77.09375 44.375 
Q 74.3125 48.1875 68.609375 48.1875 
Q 61.625 48.1875 57.5625 43.546875 
Q 53.515625 38.921875 53.515625 30.90625 
L 53.515625 0 
L 44.484375 0 
L 44.484375 32.71875 
Q 44.484375 40.625 41.703125 44.40625 
Q 38.921875 48.1875 33.109375 48.1875 
Q 26.21875 48.1875 22.15625 43.53125 
Q 18.109375 38.875 18.109375 30.90625 
L 18.109375 0 
L 9.078125 0 
L 9.078125 54.6875 
L 18.109375 54.6875 
L 18.109375 46.1875 
Q 21.1875 51.21875 25.484375 53.609375 
Q 29.78125 56 35.6875 56 
Q 41.65625 56 45.828125 52.96875 
Q 50 49.953125 52 44.1875 
z
" id="DejaVuSans-109"/>
      <path d="M 37.109375 75.984375 
L 37.109375 68.5 
L 28.515625 68.5 
Q 23.6875 68.5 21.796875 66.546875 
Q 19.921875 64.59375 19.921875 59.515625 
L 19.921875 54.6875 
L 34.71875 54.6875 
L 34.71875 47.703125 
L 19.921875 47.703125 
L 19.921875 0 
L 10.890625 0 
L 10.890625 47.703125 
L 2.296875 47.703125 
L 2.296875 54.6875 
L 10.890625 54.6875 
L 10.890625 58.5 
Q 10.890625 67.625 15.140625 71.796875 
Q 19.390625 75.984375 28.609375 75.984375 
z
" id="DejaVuSans-102"/>
     </defs>
     <g style="fill:#262626;" transform="translate(419.885 28.40432)scale(0.1 -0.1)">
      <use xlink:href="#DejaVuSans-43"/>
      <use x="83.789062" xlink:href="#DejaVuSans-52"/>
      <use x="147.412109" xlink:href="#DejaVuSans-54"/>
      <use x="211.035156" xlink:href="#DejaVuSans-46"/>
      <use x="242.822266" xlink:href="#DejaVuSans-48"/>
      <use x="306.445312" xlink:href="#DejaVuSans-50"/>
      <use x="370.068359" xlink:href="#DejaVuSans-56"/>
      <use x="433.691406" xlink:href="#DejaVuSans-57"/>
      <use x="497.314453" xlink:href="#DejaVuSans-32"/>
      <use x="529.101562" xlink:href="#DejaVuSans-68"/>
      <use x="606.103516" xlink:href="#DejaVuSans-97"/>
      <use x="667.382812" xlink:href="#DejaVuSans-32"/>
      <use x="699.169922" xlink:href="#DejaVuSans-109"/>
      <use x="796.582031" xlink:href="#DejaVuSans-97"/>
      <use x="857.861328" xlink:href="#DejaVuSans-115"/>
      <use x="909.960938" xlink:href="#DejaVuSans-115"/>
      <use x="962.060547" xlink:href="#DejaVuSans-32"/>
      <use x="993.847656" xlink:href="#DejaVuSans-115"/>
      <use x="1045.947266" xlink:href="#DejaVuSans-104"/>
      <use x="1109.326172" xlink:href="#DejaVuSans-105"/>
      <use x="1137.109375" xlink:href="#DejaVuSans-102"/>
      <use x="1172.298828" xlink:href="#DejaVuSans-116"/>
      <use x="1211.507812" xlink:href="#DejaVuSans-44"/>
     </g>
     <!-- 171 peptides -->
     <defs>
      <path d="M 8.203125 72.90625 
L 55.078125 72.90625 
L 55.078125 68.703125 
L 28.609375 0 
L 18.3125 0 
L 43.21875 64.59375 
L 8.203125 64.59375 
z
" id="DejaVuSans-55"/>
     </defs>
     <g style="fill:#262626;" transform="translate(419.885 39.602132)scale(0.1 -0.1)">
      <use xlink:href="#DejaVuSans-49"/>
      <use x="63.623047" xlink:href="#DejaVuSans-55"/>
      <use x="127.246094" xlink:href="#DejaVuSans-49"/>
      <use x="190.869141" xlink:href="#DejaVuSans-32"/>
      <use x="222.65625" xlink:href="#DejaVuSans-112"/>
      <use x="286.132812" xlink:href="#DejaVuSans-101"/>
      <use x="347.65625" xlink:href="#DejaVuSans-112"/>
      <use x="411.132812" xlink:href="#DejaVuSans-116"/>
      <use x="450.341797" xlink:href="#DejaVuSans-105"/>
      <use x="478.125" xlink:href="#DejaVuSans-100"/>
      <use x="541.601562" xlink:href="#DejaVuSans-101"/>
      <use x="603.125" xlink:href="#DejaVuSans-115"/>
     </g>
     <!-- Not localized: 84 -->
     <defs>
      <path d="M 30.609375 48.390625 
Q 23.390625 48.390625 19.1875 42.75 
Q 14.984375 37.109375 14.984375 27.296875 
Q 14.984375 17.484375 19.15625 11.84375 
Q 23.34375 6.203125 30.609375 6.203125 
Q 37.796875 6.203125 41.984375 11.859375 
Q 46.1875 17.53125 46.1875 27.296875 
Q 46.1875 37.015625 41.984375 42.703125 
Q 37.796875 48.390625 30.609375 48.390625 
z
M 30.609375 56 
Q 42.328125 56 49.015625 48.375 
Q 55.71875 40.765625 55.71875 27.296875 
Q 55.71875 13.875 49.015625 6.21875 
Q 42.328125 -1.421875 30.609375 -1.421875 
Q 18.84375 -1.421875 12.171875 6.21875 
Q 5.515625 13.875 5.515625 27.296875 
Q 5.515625 40.765625 12.171875 48.375 
Q 18.84375 56 30.609375 56 
z
" id="DejaVuSans-111"/>
      <path d="M 5.515625 54.6875 
L 48.1875 54.6875 
L 48.1875 46.484375 
L 14.40625 7.171875 
L 48.1875 7.171875 
L 48.1875 0 
L 4.296875 0 
L 4.296875 8.203125 
L 38.09375 47.515625 
L 5.515625 47.515625 
z
" id="DejaVuSans-122"/>
      <path d="M 11.71875 12.40625 
L 22.015625 12.40625 
L 22.015625 0 
L 11.71875 0 
z
M 11.71875 51.703125 
L 22.015625 51.703125 
L 22.015625 39.3125 
L 11.71875 39.3125 
z
" id="DejaVuSans-58"/>
     </defs>
     <g style="fill:#262626;" transform="translate(419.885 50.799945)scale(0.1 -0.1)">
      <use xlink:href="#DejaVuSans-78"/>
      <use x="74.804688" xlink:href="#DejaVuSans-111"/>
      <use x="135.986328" xlink:href="#DejaVuSans-116"/>
      <use x="175.195312" xlink:href="#DejaVuSans-32"/>
      <use x="206.982422" xlink:href="#DejaVuSans-108"/>
      <use x="234.765625" xlink:href="#DejaVuSans-111"/>
      <use x="295.947266" xlink:href="#DejaVuSans-99"/>
      <use x="350.927734" xlink:href="#DejaVuSans-97"/>
      <use x="412.207031" xlink:href="#DejaVuSans-108"/>
      <use x="439.990234" xlink:href="#DejaVuSans-105"/>
      <use x="467.773438" xlink:href="#DejaVuSans-122"/>
      <use x="520.263672" xlink:href="#DejaVuSans-101"/>
      <use x="581.787109" xlink:href="#DejaVuSans-100"/>
      <use x="645.263672" xlink:href="#DejaVuSans-58"/>
      <use x="678.955078" xlink:href="#DejaVuSans-32"/>
      <use x="710.742188" xlink:href="#DejaVuSans-56"/>
      <use x="774.365234" xlink:href="#DejaVuSans-52"/>
     </g>
    </g>
   </g>
  </g>
  <g id="axes_3">
   <g id="matplotlib.axis_4">
    <g id="ytick_15">
     <g id="line2d_17">
      <defs>
       <path d="M 0 0 
L 3.5 0 
" id="mee21e51d83" style="stroke:#006688;stroke-width:0.8;"/>
      </defs>
      <g>
       <use style="fill:#006688;stroke:#006688;stroke-width:0.8;" x="604.074" xlink:href="#mee21e51d83" y="224.12"/>
      </g>
     </g>
     <g id="text_38">
      <!-- 0 -->
      <g style="fill:#006688;" transform="translate(611.074 227.919219)scale(0.1 -0.1)">
       <use xlink:href="#DejaVuSans-48"/>
      </g>
     </g>
    </g>
    <g id="ytick_16">
     <g id="line2d_18">
      <g>
       <use style="fill:#006688;stroke:#006688;stroke-width:0.8;" x="604.074" xlink:href="#mee21e51d83" y="178.164563"/>
      </g>
     </g>
     <g id="text_39">
      <!-- 10 -->
      <g style="fill:#006688;" transform="translate(611.074 181.963782)scale(0.1 -0.1)">
       <use xlink:href="#DejaVuSans-49"/>
       <use x="63.623047" xlink:href="#DejaVuSans-48"/>
      </g>
     </g>
    </g>
    <g id="ytick_17">
     <g id="line2d_19">
      <g>
       <use style="fill:#006688;stroke:#006688;stroke-width:0.8;" x="604.074" xlink:href="#mee21e51d83" y="132.209127"/>
      </g>
     </g>
     <g id="text_40">
      <!-- 20 -->
      <g style="fill:#006688;" transform="translate(611.074 136.008345)scale(0.1 -0.1)">
       <use xlink:href="#DejaVuSans-50"/>
       <use x="63.623047" xlink:href="#DejaVuSans-48"/>
      </g>
     </g>
    </g>
    <g id="ytick_18">
     <g id="line2d_20">
      <g>
       <use style="fill:#006688;stroke:#006688;stroke-width:0.8;" x="604.074" xlink:href="#mee21e51d83" y="86.25369"/>
      </g>
     </g>
     <g id="text_41">
      <!-- 30 -->
      <defs>
       <path d="M 40.578125 39.3125 
Q 47.65625 37.796875 51.625 33 
Q 55.609375 28.21875 55.609375 21.1875 
Q 55.609375 10.40625 48.1875 4.484375 
Q 40.765625 -1.421875 27.09375 -1.421875 
Q 22.515625 -1.421875 17.65625 -0.515625 
Q 12.796875 0.390625 7.625 2.203125 
L 7.625 11.71875 
Q 11.71875 9.328125 16.59375 8.109375 
Q 21.484375 6.890625 26.8125 6.890625 
Q 36.078125 6.890625 40.9375 10.546875 
Q 45.796875 14.203125 45.796875 21.1875 
Q 45.796875 27.640625 41.28125 31.265625 
Q 36.765625 34.90625 28.71875 34.90625 
L 20.21875 34.90625 
L 20.21875 43.015625 
L 29.109375 43.015625 
Q 36.375 43.015625 40.234375 45.921875 
Q 44.09375 48.828125 44.09375 54.296875 
Q 44.09375 59.90625 40.109375 62.90625 
Q 36.140625 65.921875 28.71875 65.921875 
Q 24.65625 65.921875 20.015625 65.03125 
Q 15.375 64.15625 9.8125 62.3125 
L 9.8125 71.09375 
Q 15.4375 72.65625 20.34375 73.4375 
Q 25.25 74.21875 29.59375 74.21875 
Q 40.828125 74.21875 47.359375 69.109375 
Q 53.90625 64.015625 53.90625 55.328125 
Q 53.90625 49.265625 50.4375 45.09375 
Q 46.96875 40.921875 40.578125 39.3125 
z
" id="DejaVuSans-51"/>
      </defs>
      <g style="fill:#006688;" transform="translate(611.074 90.052909)scale(0.1 -0.1)">
       <use xlink:href="#DejaVuSans-51"/>
       <use x="63.623047" xlink:href="#DejaVuSans-48"/>
      </g>
     </g>
    </g>
    <g id="ytick_19">
     <g id="line2d_21">
      <g>
       <use style="fill:#006688;stroke:#006688;stroke-width:0.8;" x="604.074" xlink:href="#mee21e51d83" y="40.298253"/>
      </g>
     </g>
     <g id="text_42">
      <!-- 40 -->
      <g style="fill:#006688;" transform="translate(611.074 44.097472)scale(0.1 -0.1)">
       <use xlink:href="#DejaVuSans-52"/>
       <use x="63.623047" xlink:href="#DejaVuSans-48"/>
      </g>
     </g>
    </g>
    <g id="text_43">
     <!-- Localization count -->
     <g style="fill:#006688;" transform="translate(635.397438 163.359816)rotate(-90)scale(0.1 -0.1)">
      <use xlink:href="#DejaVuSans-76"/>
      <use x="55.697266" xlink:href="#DejaVuSans-111"/>
      <use x="116.878906" xlink:href="#DejaVuSans-99"/>
      <use x="171.859375" xlink:href="#DejaVuSans-97"/>
      <use x="233.138672" xlink:href="#DejaVuSans-108"/>
      <use x="260.921875" xlink:href="#DejaVuSans-105"/>
      <use x="288.705078" xlink:href="#DejaVuSans-122"/>
      <use x="341.195312" xlink:href="#DejaVuSans-97"/>
      <use x="402.474609" xlink:href="#DejaVuSans-116"/>
      <use x="441.683594" xlink:href="#DejaVuSans-105"/>
      <use x="469.466797" xlink:href="#DejaVuSans-111"/>
      <use x="530.648438" xlink:href="#DejaVuSans-110"/>
      <use x="594.027344" xlink:href="#DejaVuSans-32"/>
      <use x="625.814453" xlink:href="#DejaVuSans-99"/>
      <use x="680.794922" xlink:href="#DejaVuSans-111"/>
      <use x="741.976562" xlink:href="#DejaVuSans-117"/>
      <use x="805.355469" xlink:href="#DejaVuSans-110"/>
      <use x="868.734375" xlink:href="#DejaVuSans-116"/>
     </g>
    </g>
   </g>
   <g id="PathCollection_1">
    <defs>
     <path d="M 0 3 
C 0.795609 3 1.55874 2.683901 2.12132 2.12132 
C 2.683901 1.55874 3 0.795609 3 0 
C 3 -0.795609 2.683901 -1.55874 2.12132 -2.12132 
C 1.55874 -2.683901 0.795609 -3 0 -3 
C -0.795609 -3 -1.55874 -2.683901 -2.12132 -2.12132 
C -2.683901 -1.55874 -3 -0.795609 -3 0 
C -3 0.795609 -2.683901 1.55874 -2.12132 2.12132 
C -1.55874 2.683901 -0.795609 3 0 3 
z
" id="mfe8ccb050f" style="stroke:#006688;"/>
    </defs>
    <g clip-path="url(#p0caa17654e)">
     <use style="fill:#006688;stroke:#006688;" x="68.790952" xlink:href="#mfe8ccb050f" y="72.467059"/>
     <use style="fill:#006688;stroke:#006688;" x="93.011905" xlink:href="#mfe8ccb050f" y="214.928913"/>
     <use style="fill:#006688;stroke:#006688;" x="141.45381" xlink:href="#mfe8ccb050f" y="210.333369"/>
     <use style="fill:#006688;stroke:#006688;" x="165.674762" xlink:href="#mfe8ccb050f" y="187.355651"/>
     <use style="fill:#006688;stroke:#006688;" x="214.116667" xlink:href="#mfe8ccb050f" y="201.142282"/>
     <use style="fill:#006688;stroke:#006688;" x="262.558571" xlink:href="#mfe8ccb050f" y="168.973476"/>
     <use style="fill:#006688;stroke:#006688;" x="311.000476" xlink:href="#mfe8ccb050f" y="187.355651"/>
     <use style="fill:#006688;stroke:#006688;" x="359.442381" xlink:href="#mfe8ccb050f" y="214.928913"/>
     <use style="fill:#006688;stroke:#006688;" x="432.105238" xlink:href="#mfe8ccb050f" y="182.760107"/>
     <use style="fill:#006688;stroke:#006688;" x="504.768095" xlink:href="#mfe8ccb050f" y="205.737825"/>
     <use style="fill:#006688;stroke:#006688;" x="528.989048" xlink:href="#mfe8ccb050f" y="219.524456"/>
    </g>
   </g>
   <g id="patch_52">
    <path d="M 604.074 224.12 
L 604.074 11.805882 
" style="fill:none;stroke:#006688;stroke-linecap:square;stroke-linejoin:miter;stroke-width:0.8;"/>
   </g>
   <g id="legend_2">
    <g id="patch_53">
     <path d="M 51.57 49.162132 
L 360.190313 49.162132 
Q 362.190313 49.162132 362.190313 47.162132 
L 362.190313 18.805882 
Q 362.190313 16.805882 360.190313 16.805882 
L 51.57 16.805882 
Q 49.57 16.805882 49.57 18.805882 
L 49.57 47.162132 
Q 49.57 49.162132 51.57 49.162132 
z
" style="fill:#ffffff;opacity:0.8;stroke:#cccccc;stroke-linejoin:miter;"/>
    </g>
    <g id="text_44">
     <!-- +46.0289 at N-term: 10 -->
     <defs>
      <path d="M 4.890625 31.390625 
L 31.203125 31.390625 
L 31.203125 23.390625 
L 4.890625 23.390625 
z
" id="DejaVuSans-45"/>
      <path d="M 41.109375 46.296875 
Q 39.59375 47.171875 37.8125 47.578125 
Q 36.03125 48 33.890625 48 
Q 26.265625 48 22.1875 43.046875 
Q 18.109375 38.09375 18.109375 28.8125 
L 18.109375 0 
L 9.078125 0 
L 9.078125 54.6875 
L 18.109375 54.6875 
L 18.109375 46.1875 
Q 20.953125 51.171875 25.484375 53.578125 
Q 30.03125 56 36.53125 56 
Q 37.453125 56 38.578125 55.875 
Q 39.703125 55.765625 41.0625 55.515625 
z
" id="DejaVuSans-114"/>
     </defs>
     <g style="fill:#262626;" transform="translate(81.57 28.40432)scale(0.1 -0.1)">
      <use xlink:href="#DejaVuSans-43"/>
      <use x="83.789062" xlink:href="#DejaVuSans-52"/>
      <use x="147.412109" xlink:href="#DejaVuSans-54"/>
      <use x="211.035156" xlink:href="#DejaVuSans-46"/>
      <use x="242.822266" xlink:href="#DejaVuSans-48"/>
      <use x="306.445312" xlink:href="#DejaVuSans-50"/>
      <use x="370.068359" xlink:href="#DejaVuSans-56"/>
      <use x="433.691406" xlink:href="#DejaVuSans-57"/>
      <use x="497.314453" xlink:href="#DejaVuSans-32"/>
      <use x="529.101562" xlink:href="#DejaVuSans-97"/>
      <use x="590.380859" xlink:href="#DejaVuSans-116"/>
      <use x="629.589844" xlink:href="#DejaVuSans-32"/>
      <use x="661.376953" xlink:href="#DejaVuSans-78"/>
      <use x="736.181641" xlink:href="#DejaVuSans-45"/>
      <use x="772.265625" xlink:href="#DejaVuSans-116"/>
      <use x="811.474609" xlink:href="#DejaVuSans-101"/>
      <use x="872.998047" xlink:href="#DejaVuSans-114"/>
      <use x="914.095703" xlink:href="#DejaVuSans-109"/>
      <use x="1011.507812" xlink:href="#DejaVuSans-58"/>
      <use x="1045.199219" xlink:href="#DejaVuSans-32"/>
      <use x="1076.986328" xlink:href="#DejaVuSans-49"/>
      <use x="1140.609375" xlink:href="#DejaVuSans-48"/>
     </g>
    </g>
    <g id="text_45">
     <!-- +46.0289 at C-term: 1 -->
     <g style="fill:#262626;" transform="translate(81.57 43.082445)scale(0.1 -0.1)">
      <use xlink:href="#DejaVuSans-43"/>
      <use x="83.789062" xlink:href="#DejaVuSans-52"/>
      <use x="147.412109" xlink:href="#DejaVuSans-54"/>
      <use x="211.035156" xlink:href="#DejaVuSans-46"/>
      <use x="242.822266" xlink:href="#DejaVuSans-48"/>
      <use x="306.445312" xlink:href="#DejaVuSans-50"/>
      <use x="370.068359" xlink:href="#DejaVuSans-56"/>
      <use x="433.691406" xlink:href="#DejaVuSans-57"/>
      <use x="497.314453" xlink:href="#DejaVuSans-32"/>
      <use x="529.101562" xlink:href="#DejaVuSans-97"/>
      <use x="590.380859" xlink:href="#DejaVuSans-116"/>
      <use x="629.589844" xlink:href="#DejaVuSans-32"/>
      <use x="661.376953" xlink:href="#DejaVuSans-67"/>
      <use x="731.201172" xlink:href="#DejaVuSans-45"/>
      <use x="767.285156" xlink:href="#DejaVuSans-116"/>
      <use x="806.494141" xlink:href="#DejaVuSans-101"/>
      <use x="868.017578" xlink:href="#DejaVuSans-114"/>
      <use x="909.115234" xlink:href="#DejaVuSans-109"/>
      <use x="1006.527344" xlink:href="#DejaVuSans-58"/>
      <use x="1040.21875" xlink:href="#DejaVuSans-32"/>
      <use x="1072.005859" xlink:href="#DejaVuSans-49"/>
     </g>
    </g>
    <g id="PathCollection_2">
     <g>
      <use style="fill:#006688;stroke:#006688;" x="231.991875" xlink:href="#mfe8ccb050f" y="25.77932"/>
     </g>
    </g>
    <g id="text_46">
     <!-- Location of +46.0289 -->
     <g style="fill:#262626;" transform="translate(249.991875 28.40432)scale(0.1 -0.1)">
      <use xlink:href="#DejaVuSans-76"/>
      <use x="55.697266" xlink:href="#DejaVuSans-111"/>
      <use x="116.878906" xlink:href="#DejaVuSans-99"/>
      <use x="171.859375" xlink:href="#DejaVuSans-97"/>
      <use x="233.138672" xlink:href="#DejaVuSans-116"/>
      <use x="272.347656" xlink:href="#DejaVuSans-105"/>
      <use x="300.130859" xlink:href="#DejaVuSans-111"/>
      <use x="361.3125" xlink:href="#DejaVuSans-110"/>
      <use x="424.691406" xlink:href="#DejaVuSans-32"/>
      <use x="456.478516" xlink:href="#DejaVuSans-111"/>
      <use x="517.660156" xlink:href="#DejaVuSans-102"/>
      <use x="552.865234" xlink:href="#DejaVuSans-32"/>
      <use x="584.652344" xlink:href="#DejaVuSans-43"/>
      <use x="668.441406" xlink:href="#DejaVuSans-52"/>
      <use x="732.064453" xlink:href="#DejaVuSans-54"/>
      <use x="795.6875" xlink:href="#DejaVuSans-46"/>
      <use x="827.474609" xlink:href="#DejaVuSans-48"/>
      <use x="891.097656" xlink:href="#DejaVuSans-50"/>
      <use x="954.720703" xlink:href="#DejaVuSans-56"/>
      <use x="1018.34375" xlink:href="#DejaVuSans-57"/>
     </g>
    </g>
   </g>
  </g>
 </g>
 <defs>
  <clipPath id="p0caa17654e">
   <rect height="212.314118" width="508.64" x="44.57" y="11.805882"/>
  </clipPath>
 </defs>
</svg>
